<svg width="903" height="968" viewBox="0 0 903 968" fill="none" xmlns="http://www.w3.org/2000/svg">
<rect x="379" width="524" height="820" fill="#F6F6EB"/>
<rect x="391" y="10" width="500" height="800" stroke="#CCCCCC" stroke-opacity="0.84" stroke-width="4"/>
<path d="M0 1095L380.5 821H902L868 1095H0Z" fill="url(#paint0_linear)"/>
<rect x="887" y="101" width="9" height="80" rx="4.5" fill="#A5873F"/>
<rect x="887" y="639" width="9" height="80" rx="4.5" fill="#A5873F"/>
<rect x="405" y="373" width="46" height="73" rx="10" fill="#A5873F"/>
<rect x="405" y="378" width="46" height="63" rx="10" fill="#9C7F38"/>
<g filter="url(#filter0_d)">
<circle cx="428" cy="417" r="18" fill="#BB9C50"/>
</g>
<circle cx="413" cy="387" r="3" fill="#BB9C50"/>
<circle cx="443" cy="387" r="3" fill="#BB9C50"/>
<path d="M430 405.5C433 405.667 439 409.2 439 422" stroke="#F6F6EB" stroke-opacity="0.7" stroke-width="3" stroke-linecap="round"/>
<rect x="183" y="207" width="106" height="106" rx="4" fill="#2C2C2C"/>
<path d="M210.208 248.84C210.144 248.936 209.168 249.16 207.28 249.512C205.424 249.864 204.144 250.104 203.44 250.232V246.344C207.344 245.416 210.016 244.008 211.456 242.12H215.344V281H210.208V248.84ZM233.367 281.432C230.167 281.432 227.767 280.264 226.167 277.928C224.599 275.56 223.815 272.472 223.815 268.664V255.56C223.815 251.368 224.551 248.024 226.023 245.528C227.495 243.032 229.943 241.784 233.367 241.784C236.375 241.784 238.695 242.6 240.327 244.232C241.959 245.864 242.807 248.2 242.871 251.24L242.919 251.816H237.735C237.735 249.832 237.415 248.376 236.775 247.448C236.135 246.488 234.999 246.008 233.367 246.008C230.423 246.008 228.951 248.776 228.951 254.312V260.216C229.463 259.384 230.199 258.728 231.159 258.248C232.151 257.768 233.303 257.528 234.615 257.528C237.655 257.528 239.815 258.504 241.095 260.456C242.375 262.376 243.015 265.144 243.015 268.76C243.015 272.568 242.231 275.64 240.663 277.976C239.095 280.28 236.663 281.432 233.367 281.432ZM233.367 277.16C234.967 277.16 236.103 276.504 236.775 275.192C237.479 273.88 237.831 272.152 237.831 270.008C237.831 268.056 237.751 266.504 237.591 265.352C237.431 264.2 237.031 263.256 236.391 262.52C235.751 261.784 234.743 261.416 233.367 261.416C232.375 261.416 231.495 261.672 230.727 262.184C229.991 262.696 229.399 263.32 228.951 264.056V269.864C228.951 272.072 229.287 273.848 229.959 275.192C230.663 276.504 231.799 277.16 233.367 277.16ZM257.94 281.432C254.1 281.432 251.396 280.296 249.828 278.024C248.26 275.72 247.476 272.552 247.476 268.52V254.792C247.476 250.536 248.244 247.304 249.78 245.096C251.316 242.888 254.036 241.784 257.94 241.784C261.428 241.784 263.924 242.728 265.428 244.616C266.964 246.504 267.732 249.288 267.732 252.968V256.04H262.596V253.304C262.596 251.512 262.516 250.136 262.356 249.176C262.196 248.216 261.78 247.448 261.108 246.872C260.468 246.296 259.428 246.008 257.988 246.008C256.516 246.008 255.412 246.328 254.676 246.968C253.972 247.576 253.508 248.44 253.284 249.56C253.06 250.648 252.948 252.12 252.948 253.976V269.384C252.948 271.368 253.108 272.92 253.428 274.04C253.748 275.16 254.26 275.96 254.964 276.44C255.7 276.92 256.708 277.16 257.988 277.16C259.364 277.16 260.388 276.856 261.06 276.248C261.732 275.64 262.148 274.808 262.308 273.752C262.5 272.696 262.596 271.256 262.596 269.432V266.552H267.732V269.432C267.732 273.304 266.996 276.28 265.524 278.36C264.084 280.408 261.556 281.432 257.94 281.432Z" fill="#F6F6EB"/>
<circle cx="640.5" cy="249.5" r="10.5" fill="#BB9C50"/>
<g filter="url(#filter1_d)">
<circle cx="640.5" cy="249.5" r="5.5" fill="#2C2C2C"/>
</g>
<defs>
<filter id="filter0_d" x="406" y="399" width="44" height="44" filterUnits="userSpaceOnUse" color-interpolation-filters="sRGB">
<feFlood flood-opacity="0" result="BackgroundImageFix"/>
<feColorMatrix in="SourceAlpha" type="matrix" values="0 0 0 0 0 0 0 0 0 0 0 0 0 0 0 0 0 0 127 0"/>
<feOffset dy="4"/>
<feGaussianBlur stdDeviation="2"/>
<feColorMatrix type="matrix" values="0 0 0 0 0 0 0 0 0 0 0 0 0 0 0 0 0 0 0.25 0"/>
<feBlend mode="normal" in2="BackgroundImageFix" result="effect1_dropShadow"/>
<feBlend mode="normal" in="SourceGraphic" in2="effect1_dropShadow" result="shape"/>
</filter>
<filter id="filter1_d" x="631" y="244" width="19" height="19" filterUnits="userSpaceOnUse" color-interpolation-filters="sRGB">
<feFlood flood-opacity="0" result="BackgroundImageFix"/>
<feColorMatrix in="SourceAlpha" type="matrix" values="0 0 0 0 0 0 0 0 0 0 0 0 0 0 0 0 0 0 127 0"/>
<feOffset dy="4"/>
<feGaussianBlur stdDeviation="2"/>
<feColorMatrix type="matrix" values="0 0 0 0 0 0 0 0 0 0 0 0 0 0 0 0 0 0 0.25 0"/>
<feBlend mode="normal" in2="BackgroundImageFix" result="effect1_dropShadow"/>
<feBlend mode="normal" in="SourceGraphic" in2="effect1_dropShadow" result="shape"/>
</filter>
<linearGradient id="paint0_linear" x1="621.5" y1="821" x2="621" y2="1031" gradientUnits="userSpaceOnUse">
<stop stop-color="#FBCB41" stop-opacity="0.74"/>
<stop offset="0.640625" stop-color="#FFF9BE" stop-opacity="0.15"/>
<stop offset="1" stop-color="#FFDE1A" stop-opacity="0"/>
</linearGradient>
</defs>
</svg>
