<svg width="1440" height="1024" viewBox="0 0 1440 1024" fill="none" xmlns="http://www.w3.org/2000/svg">
<rect width="1440" height="1024" fill="#ACF0F4"/>
<path fill-rule="evenodd" clip-rule="evenodd" d="M647.494 86.9738C646.158 78.8129 639.073 72.5856 630.535 72.5856C629.445 72.5856 628.378 72.687 627.345 72.881C625.861 66.7487 620.337 62.1941 613.748 62.1941C612.545 62.1941 611.377 62.346 610.263 62.6317C607.093 58.0223 601.781 55 595.764 55C587.707 55 580.916 60.4176 578.835 67.8085C578.617 67.7959 578.398 67.7895 578.178 67.7895C571.997 67.7895 566.987 72.7998 566.987 78.9803L566.987 78.9803C562.572 78.9803 558.993 82.5591 558.993 86.9738H556.995C553.684 86.9738 551 89.6579 551 92.9689C551 96.2799 553.684 98.964 556.995 98.964H652.917C656.228 98.964 658.912 96.2799 658.912 92.9689C658.912 89.6579 656.228 86.9738 652.917 86.9738H647.494Z" fill="#E9E9DD"/>
<mask id="mask0" mask-type="alpha" maskUnits="userSpaceOnUse" x="551" y="55" width="108" height="44">
<path fill-rule="evenodd" clip-rule="evenodd" d="M647.494 86.9738C646.158 78.8129 639.073 72.5856 630.535 72.5856C629.445 72.5856 628.378 72.687 627.345 72.881C625.861 66.7487 620.337 62.1941 613.748 62.1941C612.545 62.1941 611.377 62.346 610.263 62.6317C607.093 58.0223 601.781 55 595.764 55C587.707 55 580.916 60.4176 578.835 67.8085C578.617 67.7959 578.398 67.7895 578.178 67.7895C571.997 67.7895 566.987 72.7998 566.987 78.9803L566.987 78.9803C562.572 78.9803 558.993 82.5591 558.993 86.9738H556.995C553.684 86.9738 551 89.6579 551 92.9689C551 96.2799 553.684 98.964 556.995 98.964H652.917C656.228 98.964 658.912 96.2799 658.912 92.9689C658.912 89.6579 656.228 86.9738 652.917 86.9738H647.494Z" fill="#F6F6EB"/>
</mask>
<g mask="url(#mask0)">
<ellipse cx="522.027" cy="-68.2376" rx="202.387" ry="178.243" fill="#F6F6EB"/>
</g>
<path fill-rule="evenodd" clip-rule="evenodd" d="M1317.49 225.974C1316.16 217.813 1309.07 211.586 1300.53 211.586C1299.44 211.586 1298.38 211.687 1297.34 211.881C1295.86 205.749 1290.34 201.194 1283.75 201.194C1282.54 201.194 1281.38 201.346 1280.26 201.632C1277.09 197.022 1271.78 194 1265.76 194C1257.71 194 1250.92 199.418 1248.83 206.808C1248.62 206.796 1248.4 206.79 1248.18 206.79C1242 206.79 1236.99 211.8 1236.99 217.98L1236.99 217.98C1232.57 217.98 1228.99 221.559 1228.99 225.974H1227C1223.68 225.974 1221 228.658 1221 231.969C1221 235.28 1223.68 237.964 1227 237.964H1322.92C1326.23 237.964 1328.91 235.28 1328.91 231.969C1328.91 228.658 1326.23 225.974 1322.92 225.974H1317.49Z" fill="#E9E9DD"/>
<mask id="mask1" mask-type="alpha" maskUnits="userSpaceOnUse" x="1221" y="194" width="108" height="44">
<path fill-rule="evenodd" clip-rule="evenodd" d="M1317.49 225.974C1316.16 217.813 1309.07 211.586 1300.53 211.586C1299.44 211.586 1298.38 211.687 1297.34 211.881C1295.86 205.749 1290.34 201.194 1283.75 201.194C1282.54 201.194 1281.38 201.346 1280.26 201.632C1277.09 197.022 1271.78 194 1265.76 194C1257.71 194 1250.92 199.418 1248.83 206.808C1248.62 206.796 1248.4 206.79 1248.18 206.79C1242 206.79 1236.99 211.8 1236.99 217.98L1236.99 217.98C1232.57 217.98 1228.99 221.559 1228.99 225.974H1227C1223.68 225.974 1221 228.658 1221 231.969C1221 235.28 1223.68 237.964 1227 237.964H1322.92C1326.23 237.964 1328.91 235.28 1328.91 231.969C1328.91 228.658 1326.23 225.974 1322.92 225.974H1317.49Z" fill="#F6F6EB"/>
</mask>
<g mask="url(#mask1)">
<ellipse cx="1192.03" cy="70.7624" rx="202.387" ry="178.243" fill="#F6F6EB"/>
</g>
<path fill-rule="evenodd" clip-rule="evenodd" d="M968.494 167.974C967.158 159.813 960.073 153.586 951.535 153.586C950.445 153.586 949.378 153.687 948.345 153.881C946.861 147.749 941.337 143.194 934.748 143.194C933.545 143.194 932.377 143.346 931.263 143.632C928.093 139.022 922.781 136 916.764 136C908.707 136 901.916 141.418 899.835 148.808C899.617 148.796 899.398 148.79 899.178 148.79C892.997 148.79 887.987 153.8 887.987 159.98L887.987 159.98C883.572 159.98 879.993 163.559 879.993 167.974H877.995C874.684 167.974 872 170.658 872 173.969C872 177.28 874.684 179.964 877.995 179.964H973.917C977.228 179.964 979.912 177.28 979.912 173.969C979.912 170.658 977.228 167.974 973.917 167.974H968.494Z" fill="#E9E9DD"/>
<mask id="mask2" mask-type="alpha" maskUnits="userSpaceOnUse" x="872" y="136" width="108" height="44">
<path fill-rule="evenodd" clip-rule="evenodd" d="M968.494 167.974C967.158 159.813 960.073 153.586 951.535 153.586C950.445 153.586 949.378 153.687 948.345 153.881C946.861 147.749 941.337 143.194 934.748 143.194C933.545 143.194 932.377 143.346 931.263 143.632C928.093 139.022 922.781 136 916.764 136C908.707 136 901.916 141.418 899.835 148.808C899.617 148.796 899.398 148.79 899.178 148.79C892.997 148.79 887.987 153.8 887.987 159.98L887.987 159.98C883.572 159.98 879.993 163.559 879.993 167.974H877.995C874.684 167.974 872 170.658 872 173.969C872 177.28 874.684 179.964 877.995 179.964H973.917C977.228 179.964 979.912 177.28 979.912 173.969C979.912 170.658 977.228 167.974 973.917 167.974H968.494Z" fill="#F6F6EB"/>
</mask>
<g mask="url(#mask2)">
<ellipse cx="843.027" cy="12.7624" rx="202.387" ry="178.243" fill="#F6F6EB"/>
</g>
<path fill-rule="evenodd" clip-rule="evenodd" d="M118.599 158.314C119.456 158.524 120.351 158.636 121.273 158.636C122.192 158.636 123.086 158.525 123.941 158.316L201.242 158.335C204.553 158.336 207.238 155.652 207.239 152.341C207.24 149.072 204.624 146.414 201.371 146.346C201.552 145.677 201.649 144.974 201.649 144.248C201.649 139.833 198.07 136.254 193.656 136.254C193.576 136.254 193.496 136.255 193.417 136.258C192.72 129.184 186.753 123.657 179.496 123.657C178.802 123.657 178.121 123.708 177.454 123.805C174.583 117.996 168.598 114 161.679 114C153.075 114 145.914 120.179 144.392 128.341C142.353 127.488 140.114 127.017 137.765 127.017C131.115 127.017 125.347 130.794 122.49 136.32C122.09 136.276 121.684 136.254 121.273 136.254C115.471 136.254 110.701 140.669 110.138 146.322L90.9966 146.317C87.6856 146.317 85.0008 149 85 152.311C84.9992 155.622 87.6826 158.307 90.9936 158.308L118.599 158.314Z" fill="#E9E9DD"/>
<mask id="mask3" mask-type="alpha" maskUnits="userSpaceOnUse" x="85" y="114" width="123" height="45">
<path fill-rule="evenodd" clip-rule="evenodd" d="M118.599 158.314C119.456 158.524 120.351 158.636 121.273 158.636C122.192 158.636 123.086 158.525 123.941 158.316L201.242 158.335C204.553 158.336 207.238 155.652 207.239 152.341C207.24 149.072 204.624 146.414 201.371 146.346C201.552 145.677 201.649 144.974 201.649 144.248C201.649 139.833 198.07 136.254 193.656 136.254C193.576 136.254 193.496 136.255 193.417 136.258C192.72 129.184 186.753 123.657 179.496 123.657C178.802 123.657 178.121 123.708 177.454 123.805C174.583 117.996 168.598 114 161.679 114C153.075 114 145.914 120.179 144.392 128.341C142.353 127.488 140.114 127.017 137.765 127.017C131.115 127.017 125.347 130.794 122.49 136.32C122.09 136.276 121.684 136.254 121.273 136.254C115.471 136.254 110.701 140.669 110.138 146.322L90.9966 146.317C87.6856 146.317 85.0008 149 85 152.311C84.9992 155.622 87.6826 158.307 90.9936 158.308L118.599 158.314Z" fill="#F6F6EB"/>
</mask>
<g mask="url(#mask3)">
<path d="M430.364 15.7862C452.404 66.2563 404.792 135.764 324.02 171.036C243.248 206.308 114.178 151.244 92.138 100.773C70.0984 50.3034 163.436 23.5395 244.207 -11.7325C324.979 -47.0044 408.324 -34.6839 430.364 15.7862Z" fill="#F6F6EB"/>
</g>
<rect y="831" width="1440" height="193" fill="#5EAF9C"/>
<rect y="813" width="1440" height="18" fill="#3F746E"/>
<rect y="795" width="1440" height="18" fill="#00463A"/>
<rect x="560" y="522" width="148" height="273" fill="#D8FBFD" fill-opacity="0.79"/>
<path d="M453 559L546 508.5V795H453V559Z" fill="#D8FBFD" fill-opacity="0.79"/>
<rect x="280" y="600" width="98" height="195" fill="#D8FBFD" fill-opacity="0.79"/>
<rect x="236" y="692" width="44" height="103" fill="#D8FBFD" fill-opacity="0.79"/>
<path d="M832.105 336.859L658 795H1302L984.056 325L893.572 354.024L832.105 336.859Z" fill="#F6F6EB"/>
<path d="M765.5 513.5L651.5 795.5H1299L1137.5 546.5L987 409.5L935 513.5L861 469.5L765.5 513.5Z" fill="#E2E8E2"/>
<path d="M415.5 158L418.531 219.5H412.469L415.5 158Z" fill="#F2F1F1"/>
<rect x="397" y="220" width="38" height="11" rx="5" fill="#F2F1F1"/>
<rect x="408" y="212" width="16" height="8" fill="#0B2759"/>
<rect x="400" y="216" width="31" height="4" rx="2" fill="#0B2759"/>
<rect x="360" y="258" width="111" height="4" fill="#0B2759"/>
<path d="M416 222L474.89 258H357.11L416 222Z" fill="#F2F1F1"/>
<rect x="338" y="263" width="155" height="14" rx="4" fill="#F2F1F1"/>
<rect x="360" y="277" width="111" height="14" fill="#0B2759"/>
<path d="M479 290.5H351C351 296.1 355.667 299.5 357 300.5H469C479.4 300.5 480.333 293.833 479 290.5Z" fill="#F2F1F1"/>
<path d="M404.5 301H423.5L433 796H397L404.5 301Z" fill="#0B2759"/>
<path d="M435 501.058C428.2 432.635 443.167 339.176 451.5 301H434C431.5 326.069 426.4 377.484 426 382.596C425.6 387.708 422.167 392.591 420.5 394.393C416.333 396.523 407.2 399.505 404 394.393C400.8 389.281 392 330.001 388 301H381C390.5 352.612 393.5 464.192 395 485.82C396.2 503.122 374.167 699.149 363 795H381C381 795 401 570.365 410 561.517C419 552.67 425.5 572.823 426 584.128C426.5 595.434 444.5 795 444.5 795H468C459.833 725.529 441.8 569.48 435 501.058Z" fill="#F2F1F1" stroke="#F2F1F1"/>
<rect x="493" y="559" width="97.8018" height="236" fill="#E1D8BF"/>
<rect x="509.301" y="600.105" width="17.7177" height="31.1832" fill="#F5F5E5"/>
<rect x="509.301" y="646.171" width="17.7177" height="31.1832" fill="#F5F5E5"/>
<rect x="509.301" y="692.237" width="17.7177" height="31.1832" fill="#F5F5E5"/>
<rect x="509.301" y="738.303" width="17.7177" height="31.1832" fill="#F5F5E5"/>
<rect x="541.901" y="600.105" width="17.7177" height="31.1832" fill="#F5F5E5"/>
<rect x="541.901" y="646.171" width="17.7177" height="31.1832" fill="#F5F5E5"/>
<rect x="541.901" y="692.237" width="17.7177" height="31.1832" fill="#F5F5E5"/>
<rect x="541.901" y="738.303" width="17.7177" height="31.1832" fill="#F5F5E5"/>
<path d="M970 597L1026 502V795H970V597Z" fill="#BEE2D8" fill-opacity="0.86"/>
<rect x="1037" y="497" width="156" height="297" fill="#F7D1B7"/>
<rect x="1056" y="529" width="117" height="16" rx="5" fill="#FEFDF6"/>
<rect x="1056" y="569" width="117" height="16" rx="5" fill="#FEFDF6"/>
<rect x="1056" y="609" width="117" height="16" rx="5" fill="#FEFDF6"/>
<rect x="1056" y="649" width="117" height="16" rx="5" fill="#FEFDF6"/>
<rect x="1056" y="689" width="117" height="16" rx="5" fill="#FEFDF6"/>
<rect x="1056" y="729" width="117" height="16" rx="5" fill="#FEFDF6"/>
<line x1="1139.92" y1="666.617" x2="1328.79" y2="666.617" stroke="#EBBC9F" stroke-width="6"/>
<line x1="1139.92" y1="705.196" x2="1328.79" y2="705.196" stroke="#EBBC9F" stroke-width="6"/>
<rect x="1115" y="737.935" width="238.71" height="20.8972" fill="#C48559"/>
<line x1="1139.92" y1="620" x2="1328.79" y2="620" stroke="#EBBC9F" stroke-width="6"/>
<line x1="1172.65" y1="623" x2="1172.65" y2="737.935" stroke="#EBBC9F" stroke-width="6"/>
<line x1="1237.76" y1="623" x2="1237.76" y2="737.935" stroke="#EBBC9F" stroke-width="6"/>
<line x1="1302.86" y1="623" x2="1302.86" y2="737.935" stroke="#EBBC9F" stroke-width="6"/>
<path d="M1167.82 670V666.396L1170.47 665.834V648.59L1167.82 648.027V644.406H1180.26C1182.3 644.406 1184.07 644.764 1185.57 645.479C1187.07 646.193 1188.23 647.189 1189.03 648.467C1189.85 649.732 1190.27 651.209 1190.27 652.896C1190.27 654.584 1189.85 656.061 1189.03 657.326C1188.23 658.592 1187.07 659.576 1185.57 660.279C1184.07 660.982 1182.3 661.334 1180.26 661.334H1176.64V665.834L1179.3 666.396V670H1167.82ZM1176.64 656.605H1180.26C1181.52 656.605 1182.47 656.266 1183.11 655.586C1183.77 654.895 1184.1 654.01 1184.1 652.932C1184.1 651.818 1183.77 650.904 1183.11 650.189C1182.47 649.475 1181.52 649.117 1180.26 649.117H1176.64V656.605ZM1204.57 670.369C1202.37 670.369 1200.45 670.018 1198.81 669.314C1197.18 668.6 1195.92 667.557 1195.03 666.186C1194.14 664.814 1193.69 663.139 1193.69 661.158V648.59L1191.06 648.027V644.406H1202.52V648.027L1199.86 648.59V661.158C1199.86 662.705 1200.27 663.854 1201.08 664.604C1201.88 665.342 1203.04 665.711 1204.54 665.711C1207.68 665.711 1209.25 664.193 1209.25 661.158V648.59L1206.61 648.027V644.406H1218.07V648.027L1215.42 648.59V661.158C1215.42 663.104 1214.96 664.768 1214.05 666.15C1213.13 667.521 1211.86 668.57 1210.23 669.297C1208.62 670.012 1206.73 670.369 1204.57 670.369ZM1219.11 670V666.396L1221.77 665.834V648.59L1219.11 648.027V644.406H1230.69C1233.92 644.406 1236.43 644.998 1238.24 646.182C1240.04 647.365 1240.94 649.129 1240.94 651.473C1240.94 652.68 1240.66 653.764 1240.08 654.725C1239.51 655.674 1238.62 656.395 1237.43 656.887C1238.96 657.215 1240.08 657.889 1240.77 658.908C1241.46 659.916 1241.8 661.082 1241.8 662.406C1241.8 664.914 1240.97 666.807 1239.29 668.084C1237.61 669.361 1235.18 670 1232 670H1219.11ZM1227.94 655.023H1230.43C1233.33 655.023 1234.77 654.074 1234.77 652.176C1234.77 651.109 1234.43 650.336 1233.75 649.855C1233.09 649.363 1232.07 649.117 1230.69 649.117H1227.94V655.023ZM1227.94 665.307H1232C1234.44 665.307 1235.67 664.334 1235.67 662.389C1235.67 661.287 1235.4 660.467 1234.86 659.928C1234.33 659.377 1233.48 659.102 1232.29 659.102H1227.94V665.307ZM1242.98 670V666.396L1245.64 665.834V648.59L1242.98 648.027V644.406H1255.04V648.027L1251.81 648.59V665.271H1257.89L1258.03 661.703H1262.74V670H1242.98ZM1263.97 670V666.396L1266.62 665.834V648.59L1263.97 648.027V644.406H1275.43V648.027L1272.78 648.59V665.834L1275.43 666.396V670H1263.97ZM1289.41 670.369C1286.97 670.369 1284.79 669.877 1282.88 668.893C1280.97 667.908 1279.47 666.484 1278.38 664.621C1277.29 662.746 1276.75 660.473 1276.75 657.801V656.623C1276.75 654.162 1277.25 651.988 1278.24 650.102C1279.25 648.203 1280.68 646.721 1282.53 645.654C1284.4 644.576 1286.6 644.037 1289.16 644.037C1290.94 644.037 1292.63 644.277 1294.24 644.758C1295.86 645.227 1297.36 646.035 1298.74 647.184V653.775H1294.26L1293.64 649.996C1293.04 649.586 1292.4 649.264 1291.71 649.029C1291.02 648.795 1290.24 648.678 1289.37 648.678C1287.43 648.678 1285.86 649.369 1284.68 650.752C1283.49 652.123 1282.9 654.068 1282.9 656.588V657.801C1282.9 659.371 1283.18 660.754 1283.73 661.949C1284.28 663.133 1285.05 664.059 1286.03 664.727C1287.03 665.395 1288.18 665.729 1289.48 665.729C1290.17 665.729 1290.87 665.658 1291.59 665.518C1292.3 665.365 1292.99 665.166 1293.66 664.92L1294.27 661.299H1298.77V667.75C1297.76 668.453 1296.45 669.068 1294.87 669.596C1293.29 670.111 1291.47 670.369 1289.41 670.369ZM1153.39 717V713.396L1156.02 712.834V695.59L1153.39 695.027V691.406H1165.46L1171.65 708.264H1171.76L1177.77 691.406H1189.7V695.027L1187.05 695.59V712.834L1189.7 713.396V717H1178.24V713.396L1181 712.834V709.494L1181.14 697.453L1181.04 697.436L1173.79 717H1168.94L1161.6 697.664L1161.47 697.682L1161.89 708.65V712.834L1164.86 713.396V717H1153.39ZM1187.72 717V713.396L1189.51 713.133L1197.14 691.406H1203.82L1211.46 713.133L1213.26 713.396V717H1203.69V713.396L1205.36 713.08L1204.59 710.303H1196.36L1195.63 713.08L1197.3 713.396V717H1187.72ZM1197.67 705.979H1203.27L1200.78 698.227L1200.5 697.33H1200.39L1200.09 698.314L1197.67 705.979ZM1214.38 717V713.396L1217.04 712.834V695.59L1214.38 695.027V691.389H1226.97C1229 691.389 1230.75 691.711 1232.24 692.355C1233.73 693 1234.88 693.92 1235.69 695.115C1236.5 696.299 1236.9 697.705 1236.9 699.334C1236.9 700.729 1236.54 702.035 1235.83 703.254C1235.12 704.473 1234.16 705.475 1232.94 706.26L1235.62 712.799L1238.04 713.414V717H1230.59L1227.41 707.771L1223.21 707.719V712.834L1225.86 713.396V717H1214.38ZM1223.21 702.99H1227.04C1228.23 702.99 1229.15 702.715 1229.8 702.164C1230.44 701.602 1230.77 700.793 1230.77 699.738C1230.77 698.648 1230.44 697.775 1229.78 697.119C1229.12 696.451 1228.19 696.117 1226.97 696.117H1223.21V702.99ZM1239.38 717V713.396L1242.03 712.834V695.59L1239.38 695.027V691.406H1250.63V695.027L1248.2 695.59V703.148L1256.22 695.256L1256.24 695.221L1253.34 695.027V691.406H1265.29V695.027L1262.88 695.537L1255.76 702.48L1263.6 712.957L1266.22 713.396V717H1253.88V713.396L1256.45 713.203H1256.48L1251.61 706.541L1248.2 709.863V712.834L1250.63 713.396V717H1239.38ZM1267.05 717V713.396L1269.7 712.834V695.59L1267.05 695.027V691.406H1287.49V698.789H1282.83L1282.69 696.152H1275.87V701.408H1284.04V706.137H1275.87V712.236H1283.02L1283.17 709.477H1287.77V717H1267.05ZM1296.07 717V713.396L1298.74 712.834V696.188H1294.78L1294.63 698.947H1289.97V691.406H1313.75V698.947H1309.04L1308.9 696.188H1304.91V712.834L1307.58 713.396V717H1296.07Z" fill="#E7343C"/>
<rect x="1147.95" y="758.832" width="21.7009" height="36.1682" fill="#C48559"/>
<rect x="1299.06" y="758.832" width="21.7009" height="36.1682" fill="#C48559"/>
<rect x="739" y="584" width="146.049" height="210" fill="#F5BE77"/>
<rect x="763.197" y="605.605" width="43.2099" height="27.6543" fill="#0B2759"/>
<rect x="763.197" y="653.136" width="43.2099" height="27.6543" fill="#0B2759"/>
<rect x="763.197" y="700.667" width="43.2099" height="27.6543" fill="#0B2759"/>
<rect x="763.197" y="748.198" width="43.2099" height="27.6543" fill="#0B2759"/>
<rect x="817.642" y="605.605" width="43.2099" height="27.6543" fill="#0B2759"/>
<rect x="817.642" y="653.136" width="43.2099" height="27.6543" fill="#0B2759"/>
<rect x="817.642" y="700.667" width="43.2099" height="27.6543" fill="#0B2759"/>
<rect x="817.642" y="748.198" width="43.2099" height="27.6543" fill="#0B2759"/>
<path fill-rule="evenodd" clip-rule="evenodd" d="M951 444H904V488H885V546H872V794H984V546H971V488H951V444Z" fill="#EC7160"/>
<rect x="885" y="576" width="19" height="19" fill="#FBC6BA"/>
<rect x="885" y="619" width="19" height="19" fill="#FBC6BA"/>
<rect x="885" y="662" width="19" height="19" fill="#FBC6BA"/>
<rect x="885" y="705" width="19" height="19" fill="#FBC6BA"/>
<rect x="885" y="748" width="19" height="19" fill="#FBC6BA"/>
<rect x="918" y="576" width="19" height="19" fill="#FBC6BA"/>
<rect x="918" y="619" width="19" height="19" fill="#FBC6BA"/>
<rect x="918" y="662" width="19" height="19" fill="#FBC6BA"/>
<rect x="918" y="705" width="19" height="19" fill="#FBC6BA"/>
<rect x="918" y="748" width="19" height="19" fill="#FBC6BA"/>
<rect x="951" y="576" width="19" height="19" fill="#FBC6BA"/>
<rect x="951" y="619" width="19" height="19" fill="#FBC6BA"/>
<rect x="951" y="662" width="19" height="19" fill="#FBC6BA"/>
<rect x="951" y="705" width="19" height="19" fill="#FBC6BA"/>
<rect x="951" y="748" width="19" height="19" fill="#FBC6BA"/>
<path fill-rule="evenodd" clip-rule="evenodd" d="M748.237 447H648.039V463.547H748.237V447ZM759.276 796V463.547H637V796H759.276Z" fill="#7DA59D"/>
<line x1="648.039" y1="497.907" x2="748.237" y2="497.907" stroke="#F6F6EB" stroke-width="8"/>
<line x1="648.039" y1="511.446" x2="748.237" y2="511.446" stroke="#F6F6EB" stroke-width="8"/>
<line x1="648.039" y1="524.985" x2="748.237" y2="524.985" stroke="#F6F6EB" stroke-width="8"/>
<line x1="648.039" y1="538.524" x2="748.237" y2="538.524" stroke="#F6F6EB" stroke-width="8"/>
<line x1="648.039" y1="552.062" x2="748.237" y2="552.062" stroke="#F6F6EB" stroke-width="8"/>
<line x1="648.039" y1="565.601" x2="748.237" y2="565.601" stroke="#F6F6EB" stroke-width="8"/>
<line x1="648.039" y1="579.14" x2="748.237" y2="579.14" stroke="#F6F6EB" stroke-width="8"/>
<line x1="648.039" y1="592.679" x2="748.237" y2="592.679" stroke="#F6F6EB" stroke-width="8"/>
<line x1="648.039" y1="606.218" x2="748.237" y2="606.218" stroke="#F6F6EB" stroke-width="8"/>
<line x1="648.039" y1="619.757" x2="748.237" y2="619.757" stroke="#F6F6EB" stroke-width="8"/>
<line x1="648.039" y1="633.295" x2="748.237" y2="633.295" stroke="#F6F6EB" stroke-width="8"/>
<line x1="648.039" y1="646.834" x2="748.237" y2="646.834" stroke="#F6F6EB" stroke-width="8"/>
<rect x="218.5" y="771.016" width="3.74331" height="24.1235" fill="#A06F42"/>
<path d="M220.302 687L242.214 778.243H198.39L220.302 687Z" fill="#207B4F"/>
<path d="M220.302 687L242.214 778.243H220.302V687Z" fill="#3AA349"/>
<rect x="312.614" y="781.249" width="2.32792" height="15.0022" fill="#A06F42"/>
<path d="M313.735 729L327.362 785.743H300.108L313.735 729Z" fill="#207B4F"/>
<path d="M313.735 729L327.362 785.743H313.735V729Z" fill="#3AA349"/>
<path d="M128.399 872.191C104.808 889.898 79.8945 881.643 65.2264 871.721C62.326 869.759 58.5506 871.738 59.8716 874.981C63.666 884.297 73.9436 894.591 97 894C119.48 893.424 129.639 883.814 133.5 875.121C134.931 871.897 131.22 870.073 128.399 872.191Z" fill="#3EA58B"/>
<path d="M536.399 948.191C512.808 965.898 487.895 957.643 473.226 947.721C470.326 945.759 466.551 947.738 467.872 950.981C471.666 960.297 481.944 970.591 505 970C527.48 969.424 537.639 959.814 541.5 951.121C542.931 947.897 539.22 946.073 536.399 948.191Z" fill="#3EA58B"/>
<path d="M922.399 886.191C898.808 903.898 873.895 895.643 859.226 885.721C856.326 883.759 852.551 885.738 853.872 888.981C857.666 898.297 867.944 908.591 891 908C913.48 907.424 923.639 897.814 927.5 889.121C928.931 885.897 925.22 884.073 922.399 886.191Z" fill="#3EA58B"/>
<path d="M1291.4 934.191C1267.81 951.898 1242.89 943.643 1228.23 933.721C1225.33 931.759 1221.55 933.738 1222.87 936.981C1226.67 946.297 1236.94 956.591 1260 956C1282.48 955.424 1292.64 945.814 1296.5 937.121C1297.93 933.897 1294.22 932.073 1291.4 934.191Z" fill="#3EA58B"/>
<path d="M202.399 872.191C178.808 889.898 153.895 881.643 139.226 871.721C136.326 869.759 132.551 871.738 133.872 874.981C137.666 884.297 147.944 894.591 171 894C193.48 893.424 203.639 883.814 207.5 875.121C208.931 871.897 205.22 870.073 202.399 872.191Z" fill="#3EA58B"/>
<path d="M610.399 948.191C586.808 965.898 561.895 957.643 547.226 947.721C544.326 945.759 540.551 947.738 541.872 950.981C545.666 960.297 555.944 970.591 579 970C601.48 969.424 611.639 959.814 615.5 951.121C616.931 947.897 613.22 946.073 610.399 948.191Z" fill="#3EA58B"/>
<path d="M996.399 886.191C972.808 903.898 947.895 895.643 933.226 885.721C930.326 883.759 926.551 885.738 927.872 888.981C931.666 898.297 941.944 908.591 965 908C987.48 907.424 997.639 897.814 1001.5 889.121C1002.93 885.897 999.22 884.073 996.399 886.191Z" fill="#3EA58B"/>
<path d="M1365.4 934.191C1341.81 951.898 1316.89 943.643 1302.23 933.721C1299.33 931.759 1295.55 933.738 1296.87 936.981C1300.67 946.297 1310.94 956.591 1334 956C1356.48 955.424 1366.64 945.814 1370.5 937.121C1371.93 933.897 1368.22 932.073 1365.4 934.191Z" fill="#3EA58B"/>
</svg>
