<svg width="257" height="105" viewBox="0 0 257 105" fill="none" xmlns="http://www.w3.org/2000/svg">
<path fill-rule="evenodd" clip-rule="evenodd" d="M229.809 76.1481C226.626 56.7124 209.754 41.8815 189.419 41.8815C186.823 41.8815 184.284 42.1231 181.822 42.585C178.288 27.9805 165.131 17.1333 149.441 17.1333C146.575 17.1333 143.793 17.4953 141.139 18.1759C133.588 7.19801 120.938 0 106.607 0C87.4203 0 71.2467 12.9025 66.2897 30.5044C65.7723 30.4745 65.2509 30.4593 64.7259 30.4593C50.0065 30.4593 38.0741 42.3917 38.0741 57.1111C27.5602 57.1111 19.037 65.6343 19.037 76.1481L14.2778 76.1481C6.39238 76.1481 0 82.5405 0 90.4259C0 98.3113 6.39237 104.704 14.2778 104.704H242.722C250.608 104.704 257 98.3113 257 90.4259C257 82.5405 250.608 76.1481 242.722 76.1481H229.809Z" fill="#E9E9DD"/>
<mask id="mask0" mask-type="alpha" maskUnits="userSpaceOnUse" x="0" y="0" width="257" height="105">
<path fill-rule="evenodd" clip-rule="evenodd" d="M229.809 76.1481C226.626 56.7124 209.754 41.8815 189.419 41.8815C186.823 41.8815 184.284 42.1231 181.822 42.585C178.288 27.9805 165.131 17.1333 149.441 17.1333C146.575 17.1333 143.793 17.4953 141.139 18.1759C133.588 7.19801 120.938 0 106.607 0C87.4203 0 71.2467 12.9025 66.2897 30.5044C65.7723 30.4745 65.2509 30.4593 64.7259 30.4593C50.0065 30.4593 38.0741 42.3917 38.0741 57.1111C27.5602 57.1111 19.037 65.6343 19.037 76.1481L14.2778 76.1481C6.39238 76.1481 0 82.5405 0 90.4259C0 98.3113 6.39237 104.704 14.2778 104.704H242.722C250.608 104.704 257 98.3113 257 90.4259C257 82.5405 250.608 76.1481 242.722 76.1481H229.809Z" fill="#F6F6EB"/>
</mask>
<g mask="url(#mask0)">
<ellipse cx="-69" cy="-293.5" rx="482" ry="424.5" fill="#F6F6EB"/>
</g>
</svg>
