<svg width="200" height="200" viewBox="0 0 200 200" fill="none" xmlns="http://www.w3.org/2000/svg">
<path d="M115.524 172.988L70.4817 53.9233L70.9592 28.5873L75.3604 26.9223L91.7928 45.8613L136.835 164.926C131.27 173.174 120.309 173.737 115.524 172.988Z" fill="#E180DB"/>
<rect x="72.8477" y="60.1777" width="22.7851" height="110.458" transform="rotate(-20.7217 72.8477 60.1777)" fill="#E0BBE4"/>
<rect x="75.3013" y="66.6636" width="22.7851" height="4.45795" transform="rotate(-20.7217 75.3013 66.6636)" fill="#383838"/>
<rect x="109.478" y="157.004" width="22.7851" height="6.9346" transform="rotate(-20.7217 109.478 157.004)" fill="#383838"/>
<rect x="77.5796" y="72.6863" width="22.7851" height="2.47664" transform="rotate(-20.7217 77.5796 72.6863)" fill="#383838"/>
<path d="M63.7953 166.722L109.509 47.914L126.741 29.3349L131.133 31.0247L130.774 56.0963L85.0605 174.904C75.4156 177.35 66.865 170.469 63.7953 166.722Z" fill="#33BFCA"/>
<rect x="107.106" y="54.1545" width="22.7851" height="110.458" transform="rotate(21.0452 107.106 54.1545)" fill="#83D9DC"/>
<rect x="104.616" y="60.6265" width="22.7851" height="4.45795" transform="rotate(21.0452 104.616 60.6265)" fill="#383838"/>
<rect x="69.9312" y="150.773" width="22.7851" height="6.93459" transform="rotate(21.0452 69.9312 150.773)" fill="#383838"/>
<rect x="102.304" y="66.6362" width="22.7851" height="2.47664" transform="rotate(21.0452 102.304 66.6362)" fill="#383838"/>
</svg>
