<svg width="200" height="200" viewBox="0 0 200 200" fill="none" xmlns="http://www.w3.org/2000/svg">
<path d="M67.8968 115.856H37.2273H31.4365V126.151L41.5167 139.019H62.9639L73.0441 126.151V109.207H67.8968V115.856Z" fill="#A5A4A4"/>
<path fill-rule="evenodd" clip-rule="evenodd" d="M24.1449 111.46V42.5615C24.7883 39.2729 27.748 33.2534 34.4395 35.4839C41.1311 37.7144 44.2337 41.1317 44.9487 42.5615V50.9259C62.1779 55.4298 97.8803 66.4966 102.856 74.7323C107.832 82.968 104.929 99.0391 102.856 106.045C88.9154 92.5335 57.817 64.9524 44.9487 62.7219C43.3505 67.7941 39.1457 84.4818 34.8152 111.407C36.1732 112.765 37.013 114.641 37.013 116.714C37.013 120.86 33.6523 124.22 29.5065 124.22C25.3608 124.22 22 120.86 22 116.714C22 114.668 22.8181 112.814 24.1449 111.46Z" fill="#FBCB41"/>
<path fill-rule="evenodd" clip-rule="evenodd" d="M107.066 72.7471C101.543 72.7471 97.0655 77.2242 97.0655 82.7471V112.303C97.0655 112.316 97.0654 112.33 97.0654 112.344L97.0654 122.37C97.0654 125.132 98.1848 127.632 99.9945 129.441C101.316 130.763 103.007 131.717 104.898 132.135C105.596 132.289 106.321 132.37 107.066 132.37H132.963C132.973 132.37 132.984 132.37 132.994 132.37H168.994C174.517 132.37 178.994 127.893 178.994 122.37V112.344C178.994 106.821 174.517 102.344 168.994 102.344L142.963 102.344V82.7471C142.963 77.2242 138.485 72.7471 132.963 72.7471H107.066Z" fill="#FBCB41"/>
<path d="M97.0649 82.7471C97.0649 77.2242 101.542 72.7471 107.065 72.7471H132.962C138.485 72.7471 142.962 77.2242 142.962 82.7471V96.7655C142.962 99.8766 141.514 102.81 139.045 104.703L113.148 124.549C106.569 129.591 97.0649 124.9 97.0649 116.612V82.7471Z" fill="#2C2C2C"/>
<path d="M105.644 89.6101C105.644 84.0873 110.121 79.6101 115.644 79.6101H123.525C129.048 79.6101 133.525 84.0873 133.525 89.6101V94.5925C133.525 97.5977 132.174 100.444 129.845 102.343L121.963 108.769C115.431 114.095 105.644 109.447 105.644 101.019V89.6101Z" fill="white"/>
<path d="M145.965 109.207H168.913" stroke="#2C2C2C" stroke-width="3"/>
<path d="M145.965 115.642H168.913" stroke="#2C2C2C" stroke-width="3"/>
<path d="M145.965 122.076H168.913" stroke="#2C2C2C" stroke-width="3"/>
<rect x="120.228" y="132.37" width="37.3181" height="6.8631" fill="#FBCB41"/>
<rect x="97.0649" y="139.233" width="81.9283" height="26.1656" rx="13.0828" fill="#2C2C2C"/>
<rect x="101.354" y="143.094" width="73.3494" height="18.4446" rx="9.2223" fill="#A5A4A4"/>
<circle cx="110.148" cy="152.316" r="4.50391" fill="#2C2C2C"/>
<circle cx="124.303" cy="152.316" r="4.50391" fill="#2C2C2C"/>
<circle cx="138.458" cy="152.316" r="4.50391" fill="#2C2C2C"/>
<circle cx="152.613" cy="152.316" r="4.50391" fill="#2C2C2C"/>
<circle cx="166.769" cy="152.316" r="4.50391" fill="#2C2C2C"/>
</svg>
