<svg width="568" height="255" viewBox="0 0 568 255" fill="none" xmlns="http://www.w3.org/2000/svg">
<rect width="568" height="255" rx="10" fill="white"/>
<path d="M0 10C0 4.47715 4.47715 0 10 0H558C563.523 0 568 4.47715 568 10V48H0V10Z" fill="#1795FF"/>
<path d="M25.584 15.56H28.2L32.352 35H29.784L28.896 30.104H24.936L24 35H21.456L25.584 15.56ZM28.536 28.16L26.904 19.4L25.296 28.16H28.536ZM34.4685 15.56H37.1325V35H34.4685V15.56ZM40.2776 15.56H44.1896C46.1576 15.56 47.5976 15.968 48.5096 16.784C49.4376 17.584 49.9016 18.896 49.9016 20.72C49.9016 23.216 49.1016 24.728 47.5016 25.256L50.2616 35H47.6456L45.1016 25.88H42.9896V35H40.2776V15.56ZM44.0216 23.936C45.1896 23.936 46.0216 23.704 46.5176 23.24C47.0296 22.776 47.2856 21.936 47.2856 20.72C47.2856 19.92 47.1976 19.296 47.0216 18.848C46.8456 18.384 46.5336 18.048 46.0856 17.84C45.6376 17.616 45.0056 17.504 44.1896 17.504H42.9896V23.936H44.0216ZM60.3433 17.576H57.0553V15.56H66.2473V17.576H63.0553V35H60.3433V17.576ZM68.2654 15.56H70.9294V35H68.2654V15.56ZM78.9465 35.216C77.0265 35.216 75.6745 34.648 74.8905 33.512C74.1065 32.36 73.7145 30.776 73.7145 28.76V21.896C73.7145 19.768 74.0985 18.152 74.8665 17.048C75.6345 15.944 76.9945 15.392 78.9465 15.392C80.6905 15.392 81.9385 15.864 82.6905 16.808C83.4585 17.752 83.8425 19.144 83.8425 20.984V22.52H81.2745V21.152C81.2745 20.256 81.2345 19.568 81.1545 19.088C81.0745 18.608 80.8665 18.224 80.5305 17.936C80.2105 17.648 79.6905 17.504 78.9705 17.504C78.2345 17.504 77.6825 17.664 77.3145 17.984C76.9625 18.288 76.7305 18.72 76.6185 19.28C76.5065 19.824 76.4505 20.56 76.4505 21.488V29.192C76.4505 30.184 76.5305 30.96 76.6905 31.52C76.8505 32.08 77.1065 32.48 77.4585 32.72C77.8265 32.96 78.3305 33.08 78.9705 33.08C79.6585 33.08 80.1705 32.928 80.5065 32.624C80.8425 32.32 81.0505 31.904 81.1305 31.376C81.2265 30.848 81.2745 30.128 81.2745 29.216V27.776H83.8425V29.216C83.8425 31.152 83.4745 32.64 82.7385 33.68C82.0185 34.704 80.7545 35.216 78.9465 35.216ZM86.4261 15.56H89.1381V24.728L93.6021 15.56H96.1221L92.2821 24.128L96.7461 35H94.1061L90.3861 25.88L89.1381 28.136V35H86.4261V15.56ZM98.3089 15.56H105.845V17.576H101.021V24.008H104.933V25.928H101.021V33.056H105.893V35H98.3089V15.56ZM110.218 17.576H106.93V15.56H116.122V17.576H112.93V35H110.218V17.576Z" fill="white"/>
<path d="M55.624 84.24H66.28V162H55.624V84.24ZM98.3485 162.864C90.6685 162.864 85.2605 160.592 82.1245 156.048C78.9885 151.44 77.4205 145.104 77.4205 137.04V109.584C77.4205 101.072 78.9565 94.608 82.0285 90.192C85.1005 85.776 90.5405 83.568 98.3485 83.568C105.325 83.568 110.317 85.456 113.325 89.232C116.397 93.008 117.933 98.576 117.933 105.936V112.08H107.661V106.608C107.661 103.024 107.501 100.272 107.181 98.352C106.861 96.432 106.029 94.896 104.685 93.744C103.405 92.592 101.325 92.016 98.4445 92.016C95.5005 92.016 93.2925 92.656 91.8205 93.936C90.4125 95.152 89.4845 96.88 89.0365 99.12C88.5885 101.296 88.3645 104.24 88.3645 107.952V138.768C88.3645 142.736 88.6845 145.84 89.3245 148.08C89.9645 150.32 90.9885 151.92 92.3965 152.88C93.8685 153.84 95.8845 154.32 98.4445 154.32C101.197 154.32 103.245 153.712 104.589 152.496C105.933 151.28 106.765 149.616 107.085 147.504C107.469 145.392 107.661 142.512 107.661 138.864V133.104H117.933V138.864C117.933 146.608 116.461 152.56 113.517 156.72C110.637 160.816 105.581 162.864 98.3485 162.864ZM128.267 84.24H135.659L157.739 135.888V84.24H166.763V162H159.851L137.483 108.912V162H128.267V84.24Z" fill="#4D4D4D"/>
<path d="M275.384 162.864C268.856 162.864 263.864 160.848 260.408 156.816C257.016 152.784 255.128 147.248 254.744 140.208L264.344 137.616C264.664 142.608 265.624 146.64 267.224 149.712C268.888 152.784 271.608 154.32 275.384 154.32C278.2 154.32 280.312 153.552 281.72 152.016C283.192 150.416 283.928 148.144 283.928 145.2C283.928 142 283.256 139.344 281.912 137.232C280.568 135.12 278.424 132.784 275.48 130.224L262.424 118.704C259.8 116.4 257.88 113.936 256.664 111.312C255.512 108.624 254.936 105.36 254.936 101.52C254.936 95.824 256.568 91.408 259.832 88.272C263.096 85.136 267.544 83.568 273.176 83.568C279.32 83.568 283.96 85.2 287.096 88.464C290.232 91.728 292.12 96.784 292.76 103.632L283.544 106.128C283.224 101.584 282.328 98.096 280.856 95.664C279.448 93.168 276.888 91.92 273.176 91.92C270.424 91.92 268.312 92.656 266.84 94.128C265.368 95.536 264.632 97.648 264.632 100.464C264.632 102.768 265.016 104.72 265.784 106.32C266.552 107.856 267.864 109.424 269.72 111.024L282.872 122.544C286.264 125.552 288.952 128.816 290.936 132.336C292.984 135.856 294.008 139.856 294.008 144.336C294.008 150.032 292.28 154.544 288.824 157.872C285.368 161.2 280.888 162.864 275.384 162.864ZM302.423 84.24H332.567V92.304H313.271V118.032H328.919V125.712H313.271V154.224H332.759V162H302.423V84.24ZM353.805 84.24H364.269L380.877 162H370.605L367.053 142.416H351.213L347.469 162H337.293L353.805 84.24ZM365.613 134.64L359.085 99.6L352.653 134.64H365.613Z" fill="#4D4D4D"/>
<line x1="420" x2="420" y2="255" stroke="#CCCCCC" stroke-width="2" stroke-dasharray="3 2"/>
<path d="M51.882 195.66H54.696C55.676 195.66 56.3853 195.926 56.824 196.458C57.272 196.99 57.496 197.769 57.496 198.796C57.496 199.72 57.258 200.439 56.782 200.952C56.306 201.465 55.6153 201.722 54.71 201.722H53.464V207H51.882V195.66ZM54.192 200.588C54.6587 200.588 55.018 200.537 55.27 200.434C55.5313 200.331 55.718 200.154 55.83 199.902C55.942 199.65 55.998 199.286 55.998 198.81C55.998 198.231 55.956 197.807 55.872 197.536C55.788 197.265 55.62 197.074 55.368 196.962C55.1253 196.85 54.738 196.794 54.206 196.794H53.464V200.588H54.192ZM59.8674 195.66H61.3934L63.8154 207H62.3174L61.7994 204.144H59.4894L58.9434 207H57.4594L59.8674 195.66ZM61.5894 203.01L60.6374 197.9L59.6994 203.01H61.5894ZM67.64 207.126C66.688 207.126 65.96 206.832 65.456 206.244C64.9613 205.656 64.686 204.849 64.63 203.822L66.03 203.444C66.0767 204.172 66.2167 204.76 66.45 205.208C66.6927 205.656 67.0893 205.88 67.64 205.88C68.0507 205.88 68.3587 205.768 68.564 205.544C68.7787 205.311 68.886 204.979 68.886 204.55C68.886 204.083 68.788 203.696 68.592 203.388C68.396 203.08 68.0833 202.739 67.654 202.366L65.75 200.686C65.3673 200.35 65.0873 199.991 64.91 199.608C64.742 199.216 64.658 198.74 64.658 198.18C64.658 197.349 64.896 196.705 65.372 196.248C65.848 195.791 66.4967 195.562 67.318 195.562C68.214 195.562 68.8907 195.8 69.348 196.276C69.8053 196.752 70.0807 197.489 70.174 198.488L68.83 198.852C68.7833 198.189 68.6527 197.681 68.438 197.326C68.2327 196.962 67.8593 196.78 67.318 196.78C66.9167 196.78 66.6087 196.887 66.394 197.102C66.1793 197.307 66.072 197.615 66.072 198.026C66.072 198.362 66.128 198.647 66.24 198.88C66.352 199.104 66.5433 199.333 66.814 199.566L68.732 201.246C69.2267 201.685 69.6187 202.161 69.908 202.674C70.2067 203.187 70.356 203.771 70.356 204.424C70.356 205.255 70.104 205.913 69.6 206.398C69.096 206.883 68.4427 207.126 67.64 207.126ZM74.2572 207.126C73.3052 207.126 72.5772 206.832 72.0732 206.244C71.5785 205.656 71.3032 204.849 71.2472 203.822L72.6472 203.444C72.6938 204.172 72.8338 204.76 73.0672 205.208C73.3098 205.656 73.7065 205.88 74.2572 205.88C74.6678 205.88 74.9758 205.768 75.1812 205.544C75.3958 205.311 75.5032 204.979 75.5032 204.55C75.5032 204.083 75.4052 203.696 75.2092 203.388C75.0132 203.08 74.7005 202.739 74.2712 202.366L72.3672 200.686C71.9845 200.35 71.7045 199.991 71.5272 199.608C71.3592 199.216 71.2752 198.74 71.2752 198.18C71.2752 197.349 71.5132 196.705 71.9892 196.248C72.4652 195.791 73.1138 195.562 73.9352 195.562C74.8312 195.562 75.5078 195.8 75.9652 196.276C76.4225 196.752 76.6978 197.489 76.7912 198.488L75.4472 198.852C75.4005 198.189 75.2698 197.681 75.0552 197.326C74.8498 196.962 74.4765 196.78 73.9352 196.78C73.5338 196.78 73.2258 196.887 73.0112 197.102C72.7965 197.307 72.6892 197.615 72.6892 198.026C72.6892 198.362 72.7452 198.647 72.8572 198.88C72.9692 199.104 73.1605 199.333 73.4312 199.566L75.3492 201.246C75.8438 201.685 76.2358 202.161 76.5252 202.674C76.8238 203.187 76.9732 203.771 76.9732 204.424C76.9732 205.255 76.7212 205.913 76.2172 206.398C75.7132 206.883 75.0598 207.126 74.2572 207.126ZM78.2004 195.66H82.5964V196.836H79.7824V200.588H82.0644V201.708H79.7824V205.866H82.6244V207H78.2004V195.66ZM83.9015 195.66H84.9795L88.1995 203.192V195.66H89.5155V207H88.5075L85.2455 199.258V207H83.9015V195.66ZM94 207.14C92.9733 207.14 92.2313 206.818 91.774 206.174C91.3167 205.521 91.088 204.555 91.088 203.276V199.482C91.088 198.605 91.1767 197.886 91.354 197.326C91.5407 196.757 91.8533 196.323 92.292 196.024C92.74 195.716 93.3513 195.562 94.126 195.562C95.1713 195.562 95.9227 195.828 96.38 196.36C96.8467 196.892 97.08 197.727 97.08 198.866V199.286H95.596V198.936C95.596 198.395 95.5633 197.979 95.498 197.69C95.4327 197.391 95.2927 197.167 95.078 197.018C94.8727 196.869 94.5647 196.794 94.154 196.794C93.7153 196.794 93.3887 196.897 93.174 197.102C92.9593 197.298 92.8193 197.564 92.754 197.9C92.698 198.236 92.67 198.684 92.67 199.244V203.444C92.67 204.312 92.7727 204.937 92.978 205.32C93.1927 205.693 93.5987 205.88 94.196 205.88C94.784 205.88 95.1853 205.675 95.4 205.264C95.624 204.853 95.736 204.195 95.736 203.29V202.506H94.294V201.386H97.164V207H96.17L96.016 205.698C95.6613 206.659 94.9893 207.14 94 207.14ZM98.7902 195.66H103.186V196.836H100.372V200.588H102.654V201.708H100.372V205.866H103.214V207H98.7902V195.66ZM104.491 195.66H106.773C107.921 195.66 108.761 195.898 109.293 196.374C109.835 196.841 110.105 197.606 110.105 198.67C110.105 200.126 109.639 201.008 108.705 201.316L110.315 207H108.789L107.305 201.68H106.073V207H104.491V195.66ZM106.675 200.546C107.357 200.546 107.842 200.411 108.131 200.14C108.43 199.869 108.579 199.379 108.579 198.67C108.579 198.203 108.528 197.839 108.425 197.578C108.323 197.307 108.141 197.111 107.879 196.99C107.618 196.859 107.249 196.794 106.773 196.794H106.073V200.546H106.675Z" fill="#1794FB"/>
<path d="M138.584 207.14C137.557 207.14 136.815 206.818 136.358 206.174C135.901 205.521 135.672 204.555 135.672 203.276V199.482C135.672 198.605 135.761 197.886 135.938 197.326C136.125 196.757 136.437 196.323 136.876 196.024C137.324 195.716 137.935 195.562 138.71 195.562C139.755 195.562 140.507 195.828 140.964 196.36C141.431 196.892 141.664 197.727 141.664 198.866V199.286H140.18V198.936C140.18 198.395 140.147 197.979 140.082 197.69C140.017 197.391 139.877 197.167 139.662 197.018C139.457 196.869 139.149 196.794 138.738 196.794C138.299 196.794 137.973 196.897 137.758 197.102C137.543 197.298 137.403 197.564 137.338 197.9C137.282 198.236 137.254 198.684 137.254 199.244V203.444C137.254 204.312 137.357 204.937 137.562 205.32C137.777 205.693 138.183 205.88 138.78 205.88C139.368 205.88 139.769 205.675 139.984 205.264C140.208 204.853 140.32 204.195 140.32 203.29V202.506H138.878V201.386H141.748V207H140.754L140.6 205.698C140.245 206.659 139.573 207.14 138.584 207.14ZM145.166 195.66H146.692L149.114 207H147.616L147.098 204.144H144.788L144.242 207H142.758L145.166 195.66ZM146.888 203.01L145.936 197.9L144.998 203.01H146.888ZM151.06 196.836H149.142V195.66H154.504V196.836H152.642V207H151.06V196.836ZM155.597 195.66H159.993V196.836H157.179V200.588H159.461V201.708H157.179V205.866H160.021V207H155.597V195.66Z" fill="#1794FB"/>
<path d="M453.14 92.416C453.14 93.4427 452.818 94.1847 452.174 94.642C451.521 95.0993 450.555 95.328 449.276 95.328L445.482 95.328C444.605 95.328 443.886 95.2393 443.326 95.062C442.757 94.8753 442.323 94.5627 442.024 94.124C441.716 93.676 441.562 93.0647 441.562 92.29C441.562 91.2447 441.828 90.4933 442.36 90.036C442.892 89.5693 443.727 89.336 444.866 89.336L445.286 89.336L445.286 90.82L444.936 90.82C444.395 90.82 443.979 90.8527 443.69 90.918C443.391 90.9833 443.167 91.1233 443.018 91.338C442.869 91.5433 442.794 91.8513 442.794 92.262C442.794 92.7007 442.897 93.0273 443.102 93.242C443.298 93.4567 443.564 93.5967 443.9 93.662C444.236 93.718 444.684 93.746 445.244 93.746L449.444 93.746C450.312 93.746 450.937 93.6433 451.32 93.438C451.693 93.2233 451.88 92.8173 451.88 92.22C451.88 91.632 451.675 91.2307 451.264 91.016C450.853 90.792 450.195 90.68 449.29 90.68L448.506 90.68L448.506 92.122L447.386 92.122L447.386 89.252L453 89.252L453 90.246L451.698 90.4C452.659 90.7547 453.14 91.4267 453.14 92.416ZM441.66 85.8338L441.66 84.3078L453 81.8858L453 83.3838L450.144 83.9018L450.144 86.2118L453 86.7578L453 88.2418L441.66 85.8338ZM449.01 84.1118L443.9 85.0638L449.01 86.0018L449.01 84.1118ZM442.836 79.9404L442.836 81.8584L441.66 81.8584L441.66 76.4964L442.836 76.4964L442.836 78.3584L453 78.3584L453 79.9404L442.836 79.9404ZM441.66 75.4032L441.66 71.0072L442.836 71.0072L442.836 73.8212L446.588 73.8212L446.588 71.5392L447.708 71.5392L447.708 73.8212L451.866 73.8212L451.866 70.9792L453 70.9792L453 75.4032L441.66 75.4032Z" fill="#1794FB"/>
<path d="M185.882 195.66H188.346C189.569 195.66 190.432 195.94 190.936 196.5C191.449 197.06 191.706 197.933 191.706 199.118V203.29C191.706 204.541 191.454 205.474 190.95 206.09C190.455 206.697 189.629 207 188.472 207H185.882V195.66ZM188.36 205.866C188.911 205.866 189.307 205.759 189.55 205.544C189.802 205.329 189.956 205.04 190.012 204.676C190.077 204.303 190.11 203.743 190.11 202.996V199.314C190.11 198.67 190.068 198.18 189.984 197.844C189.909 197.499 189.746 197.247 189.494 197.088C189.242 196.92 188.85 196.836 188.318 196.836H187.464V205.866H188.36ZM193.265 195.66H197.661V196.836H194.847V200.588H197.129V201.708H194.847V205.866H197.689V207H193.265V195.66ZM198.966 195.66H201.78C202.76 195.66 203.469 195.926 203.908 196.458C204.356 196.99 204.58 197.769 204.58 198.796C204.58 199.72 204.342 200.439 203.866 200.952C203.39 201.465 202.699 201.722 201.794 201.722H200.548V207H198.966V195.66ZM201.276 200.588C201.743 200.588 202.102 200.537 202.354 200.434C202.615 200.331 202.802 200.154 202.914 199.902C203.026 199.65 203.082 199.286 203.082 198.81C203.082 198.231 203.04 197.807 202.956 197.536C202.872 197.265 202.704 197.074 202.452 196.962C202.209 196.85 201.822 196.794 201.29 196.794H200.548V200.588H201.276ZM206.951 195.66H208.477L210.899 207H209.401L208.883 204.144H206.573L206.027 207H204.543L206.951 195.66ZM208.673 203.01L207.721 197.9L206.783 203.01H208.673ZM212.05 195.66H214.332C215.48 195.66 216.32 195.898 216.852 196.374C217.393 196.841 217.664 197.606 217.664 198.67C217.664 200.126 217.197 201.008 216.264 201.316L217.874 207H216.348L214.864 201.68H213.632V207H212.05V195.66ZM214.234 200.546C214.915 200.546 215.401 200.411 215.69 200.14C215.989 199.869 216.138 199.379 216.138 198.67C216.138 198.203 216.087 197.839 215.984 197.578C215.881 197.307 215.699 197.111 215.438 196.99C215.177 196.859 214.808 196.794 214.332 196.794H213.632V200.546H214.234ZM220.556 196.836H218.638V195.66H224V196.836H222.138V207H220.556V196.836ZM228.019 207.126C227.226 207.126 226.605 206.967 226.157 206.65C225.718 206.333 225.415 205.889 225.247 205.32C225.079 204.751 224.995 204.037 224.995 203.178V195.66H226.507V203.248C226.507 204.107 226.605 204.76 226.801 205.208C227.006 205.656 227.412 205.88 228.019 205.88C228.626 205.88 229.027 205.656 229.223 205.208C229.428 204.76 229.531 204.107 229.531 203.248V195.66H231.029V203.178C231.029 204.037 230.945 204.751 230.777 205.32C230.609 205.889 230.306 206.333 229.867 206.65C229.428 206.967 228.812 207.126 228.019 207.126ZM232.695 195.66H234.977C236.125 195.66 236.965 195.898 237.497 196.374C238.038 196.841 238.309 197.606 238.309 198.67C238.309 200.126 237.842 201.008 236.909 201.316L238.519 207H236.993L235.508 201.68H234.277V207H232.695V195.66ZM234.879 200.546C235.56 200.546 236.045 200.411 236.335 200.14C236.633 199.869 236.783 199.379 236.783 198.67C236.783 198.203 236.731 197.839 236.629 197.578C236.526 197.307 236.344 197.111 236.083 196.99C235.821 196.859 235.453 196.794 234.977 196.794H234.277V200.546H234.879ZM239.954 195.66H244.35V196.836H241.536V200.588H243.818V201.708H241.536V205.866H244.378V207H239.954V195.66Z" fill="#1794FB"/>
<path d="M505.66 158.118L505.66 155.654C505.66 154.431 505.94 153.568 506.5 153.064C507.06 152.551 507.933 152.294 509.118 152.294L513.29 152.294C514.541 152.294 515.474 152.546 516.09 153.05C516.697 153.545 517 154.371 517 155.528L517 158.118L505.66 158.118ZM515.866 155.64C515.866 155.089 515.759 154.693 515.544 154.45C515.329 154.198 515.04 154.044 514.676 153.988C514.303 153.923 513.743 153.89 512.996 153.89L509.314 153.89C508.67 153.89 508.18 153.932 507.844 154.016C507.499 154.091 507.247 154.254 507.088 154.506C506.92 154.758 506.836 155.15 506.836 155.682L506.836 156.536L515.866 156.536L515.866 155.64ZM505.66 150.735L505.66 146.339L506.836 146.339L506.836 149.153L510.588 149.153L510.588 146.871L511.708 146.871L511.708 149.153L515.866 149.153L515.866 146.311L517 146.311L517 150.735L505.66 150.735ZM505.66 145.034L505.66 142.22C505.66 141.24 505.926 140.531 506.458 140.092C506.99 139.644 507.769 139.42 508.796 139.42C509.72 139.42 510.439 139.658 510.952 140.134C511.465 140.61 511.722 141.301 511.722 142.206L511.722 143.452L517 143.452L517 145.034L505.66 145.034ZM510.588 142.724C510.588 142.257 510.537 141.898 510.434 141.646C510.331 141.385 510.154 141.198 509.902 141.086C509.65 140.974 509.286 140.918 508.81 140.918C508.231 140.918 507.807 140.96 507.536 141.044C507.265 141.128 507.074 141.296 506.962 141.548C506.85 141.791 506.794 142.178 506.794 142.71L506.794 143.452L510.588 143.452L510.588 142.724ZM505.66 137.049L505.66 135.523L517 133.101L517 134.599L514.144 135.117L514.144 137.427L517 137.973L517 139.457L505.66 137.049ZM513.01 135.327L507.9 136.279L513.01 137.217L513.01 135.327ZM505.66 131.95L505.66 129.668C505.66 128.52 505.898 127.68 506.374 127.148C506.841 126.607 507.606 126.336 508.67 126.336C510.126 126.336 511.008 126.803 511.316 127.736L517 126.126L517 127.652L511.68 129.136L511.68 130.368L517 130.368L517 131.95L505.66 131.95ZM510.546 129.766C510.546 129.085 510.411 128.599 510.14 128.31C509.869 128.011 509.379 127.862 508.67 127.862C508.203 127.862 507.839 127.913 507.578 128.016C507.307 128.119 507.111 128.301 506.99 128.562C506.859 128.823 506.794 129.192 506.794 129.668L506.794 130.368L510.546 130.368L510.546 129.766ZM506.836 123.444L506.836 125.362L505.66 125.362L505.66 120L506.836 120L506.836 121.862L517 121.862L517 123.444L506.836 123.444ZM517.126 115.981C517.126 116.774 516.967 117.395 516.65 117.843C516.333 118.282 515.889 118.585 515.32 118.753C514.751 118.921 514.037 119.005 513.178 119.005L505.66 119.005L505.66 117.493L513.248 117.493C514.107 117.493 514.76 117.395 515.208 117.199C515.656 116.994 515.88 116.588 515.88 115.981C515.88 115.374 515.656 114.973 515.208 114.777C514.76 114.572 514.107 114.469 513.248 114.469L505.66 114.469L505.66 112.971L513.178 112.971C514.037 112.971 514.751 113.055 515.32 113.223C515.889 113.391 516.333 113.694 516.65 114.133C516.967 114.572 517.126 115.188 517.126 115.981ZM505.66 111.305L505.66 109.023C505.66 107.875 505.898 107.035 506.374 106.503C506.841 105.962 507.606 105.691 508.67 105.691C510.126 105.691 511.008 106.158 511.316 107.091L517 105.481L517 107.007L511.68 108.491L511.68 109.723L517 109.723L517 111.305L505.66 111.305ZM510.546 109.121C510.546 108.44 510.411 107.955 510.14 107.665C509.869 107.367 509.379 107.217 508.67 107.217C508.203 107.217 507.839 107.269 507.578 107.371C507.307 107.474 507.111 107.656 506.99 107.917C506.859 108.179 506.794 108.547 506.794 109.023L506.794 109.723L510.546 109.723L510.546 109.121ZM505.66 104.046L505.66 99.6497L506.836 99.6497L506.836 102.464L510.588 102.464L510.588 100.182L511.708 100.182L511.708 102.464L515.866 102.464L515.866 99.6217L517 99.6217L517 104.046L505.66 104.046Z" fill="#1794FB"/>
<path d="M44.098 227.132C44.574 227.132 44.924 227.09 45.148 227.006C45.3813 226.913 45.54 226.749 45.624 226.516C45.708 226.273 45.75 225.905 45.75 225.41V216.66H47.318V225.438C47.318 226.119 47.248 226.665 47.108 227.076C46.968 227.477 46.716 227.776 46.352 227.972C45.9973 228.168 45.498 228.266 44.854 228.266H44.098V227.132ZM49.1769 216.66H50.7309V228H49.1769V216.66ZM52.5656 216.66H54.1476V221.56H57.0596V216.66H58.6416V228H57.0596V222.694H54.1476V228H52.5656V216.66ZM63.3113 228.126C62.2006 228.126 61.4026 227.813 60.9173 227.188C60.4413 226.553 60.2033 225.639 60.2033 224.444V220.146C60.2033 218.97 60.4459 218.079 60.9313 217.472C61.4166 216.865 62.2099 216.562 63.3113 216.562C64.4126 216.562 65.2013 216.87 65.6773 217.486C66.1626 218.093 66.4053 218.979 66.4053 220.146V224.458C66.4053 225.634 66.1626 226.539 65.6773 227.174C65.1919 227.809 64.4033 228.126 63.3113 228.126ZM63.3113 226.88C63.8993 226.88 64.2959 226.707 64.5013 226.362C64.7066 226.017 64.8093 225.494 64.8093 224.794V219.824C64.8093 219.133 64.7066 218.625 64.5013 218.298C64.2959 217.962 63.8993 217.794 63.3113 217.794C62.7139 217.794 62.3126 217.962 62.1073 218.298C61.9019 218.625 61.7993 219.133 61.7993 219.824V224.794C61.7993 225.494 61.9019 226.017 62.1073 226.362C62.3126 226.707 62.7139 226.88 63.3113 226.88ZM70.8581 228.126C69.7475 228.126 68.9495 227.813 68.4641 227.188C67.9881 226.553 67.7501 225.639 67.7501 224.444V220.146C67.7501 218.97 67.9928 218.079 68.4781 217.472C68.9635 216.865 69.7568 216.562 70.8581 216.562C71.9595 216.562 72.7481 216.87 73.2241 217.486C73.7095 218.093 73.9521 218.979 73.9521 220.146V224.458C73.9521 225.634 73.7095 226.539 73.2241 227.174C72.7388 227.809 71.9501 228.126 70.8581 228.126ZM70.8581 226.88C71.4461 226.88 71.8428 226.707 72.0481 226.362C72.2535 226.017 72.3561 225.494 72.3561 224.794V219.824C72.3561 219.133 72.2535 218.625 72.0481 218.298C71.8428 217.962 71.4461 217.794 70.8581 217.794C70.2608 217.794 69.8595 217.962 69.6541 218.298C69.4488 218.625 69.3461 219.133 69.3461 219.824V224.794C69.3461 225.494 69.4488 226.017 69.6541 226.362C69.8595 226.707 70.2608 226.88 70.8581 226.88ZM75.507 216.66H76.585L79.805 224.192V216.66H81.121V228H80.113L76.851 220.258V228H75.507V216.66ZM86.2847 216.66H87.8387L89.8407 225.858L91.8567 216.66H93.3967L93.6067 228H92.3327L92.2067 219.768L90.2887 228H89.3927L87.4887 219.768L87.3627 228H86.0747L86.2847 216.66ZM98.2429 228.126C97.1322 228.126 96.3342 227.813 95.8489 227.188C95.3729 226.553 95.1349 225.639 95.1349 224.444V220.146C95.1349 218.97 95.3776 218.079 95.8629 217.472C96.3482 216.865 97.1416 216.562 98.2429 216.562C99.3442 216.562 100.133 216.87 100.609 217.486C101.094 218.093 101.337 218.979 101.337 220.146V224.458C101.337 225.634 101.094 226.539 100.609 227.174C100.124 227.809 99.3349 228.126 98.2429 228.126ZM98.2429 226.88C98.8309 226.88 99.2276 226.707 99.4329 226.362C99.6382 226.017 99.7409 225.494 99.7409 224.794V219.824C99.7409 219.133 99.6382 218.625 99.4329 218.298C99.2276 217.962 98.8309 217.794 98.2429 217.794C97.6456 217.794 97.2442 217.962 97.0389 218.298C96.8336 218.625 96.7309 219.133 96.7309 219.824V224.794C96.7309 225.494 96.8336 226.017 97.0389 226.362C97.2442 226.707 97.6456 226.88 98.2429 226.88ZM105.79 228.126C104.679 228.126 103.881 227.813 103.396 227.188C102.92 226.553 102.682 225.639 102.682 224.444V220.146C102.682 218.97 102.924 218.079 103.41 217.472C103.895 216.865 104.688 216.562 105.79 216.562C106.891 216.562 107.68 216.87 108.156 217.486C108.641 218.093 108.884 218.979 108.884 220.146V224.458C108.884 225.634 108.641 226.539 108.156 227.174C107.67 227.809 106.882 228.126 105.79 228.126ZM105.79 226.88C106.378 226.88 106.774 226.707 106.98 226.362C107.185 226.017 107.288 225.494 107.288 224.794V219.824C107.288 219.133 107.185 218.625 106.98 218.298C106.774 217.962 106.378 217.794 105.79 217.794C105.192 217.794 104.791 217.962 104.586 218.298C104.38 218.625 104.278 219.133 104.278 219.824V224.794C104.278 225.494 104.38 226.017 104.586 226.362C104.791 226.707 105.192 226.88 105.79 226.88ZM110.439 216.66H111.517L114.737 224.192V216.66H116.053V228H115.045L111.783 220.258V228H110.439V216.66Z" fill="black"/>
<path d="M442.66 183.145V180.331C442.66 179.351 442.926 178.642 443.458 178.203C443.99 177.755 444.769 177.531 445.796 177.531C446.72 177.531 447.439 177.769 447.952 178.245C448.465 178.721 448.722 179.412 448.722 180.317V181.563H454V183.145H442.66ZM447.588 180.835C447.588 180.368 447.537 180.009 447.434 179.757C447.331 179.496 447.154 179.309 446.902 179.197C446.65 179.085 446.286 179.029 445.81 179.029C445.231 179.029 444.807 179.071 444.536 179.155C444.265 179.239 444.074 179.407 443.962 179.659C443.85 179.902 443.794 180.289 443.794 180.821V181.563H447.588V180.835ZM442.66 175.159V173.633L454 171.211V172.709L451.144 173.227V175.537L454 176.083V177.567L442.66 175.159ZM450.01 173.437L444.9 174.389L450.01 175.327V173.437ZM454.126 167.387C454.126 168.339 453.832 169.067 453.244 169.571C452.656 170.066 451.849 170.341 450.822 170.397L450.444 168.997C451.172 168.95 451.76 168.81 452.208 168.577C452.656 168.334 452.88 167.938 452.88 167.387C452.88 166.976 452.768 166.668 452.544 166.463C452.311 166.248 451.979 166.141 451.55 166.141C451.083 166.141 450.696 166.239 450.388 166.435C450.08 166.631 449.739 166.944 449.366 167.373L447.686 169.277C447.35 169.66 446.991 169.94 446.608 170.117C446.216 170.285 445.74 170.369 445.18 170.369C444.349 170.369 443.705 170.131 443.248 169.655C442.791 169.179 442.562 168.53 442.562 167.709C442.562 166.813 442.8 166.136 443.276 165.679C443.752 165.222 444.489 164.946 445.488 164.853L445.852 166.197C445.189 166.244 444.681 166.374 444.326 166.589C443.962 166.794 443.78 167.168 443.78 167.709C443.78 168.11 443.887 168.418 444.102 168.633C444.307 168.848 444.615 168.955 445.026 168.955C445.362 168.955 445.647 168.899 445.88 168.787C446.104 168.675 446.333 168.484 446.566 168.213L448.246 166.295C448.685 165.8 449.161 165.408 449.674 165.119C450.187 164.82 450.771 164.671 451.424 164.671C452.255 164.671 452.913 164.923 453.398 165.427C453.883 165.931 454.126 166.584 454.126 167.387ZM454.126 160.77C454.126 161.722 453.832 162.45 453.244 162.954C452.656 163.448 451.849 163.724 450.822 163.78L450.444 162.38C451.172 162.333 451.76 162.193 452.208 161.96C452.656 161.717 452.88 161.32 452.88 160.77C452.88 160.359 452.768 160.051 452.544 159.846C452.311 159.631 451.979 159.524 451.55 159.524C451.083 159.524 450.696 159.622 450.388 159.818C450.08 160.014 449.739 160.326 449.366 160.756L447.686 162.66C447.35 163.042 446.991 163.322 446.608 163.5C446.216 163.668 445.74 163.752 445.18 163.752C444.349 163.752 443.705 163.514 443.248 163.038C442.791 162.562 442.562 161.913 442.562 161.092C442.562 160.196 442.8 159.519 443.276 159.062C443.752 158.604 444.489 158.329 445.488 158.236L445.852 159.58C445.189 159.626 444.681 159.757 444.326 159.972C443.962 160.177 443.78 160.55 443.78 161.092C443.78 161.493 443.887 161.801 444.102 162.016C444.307 162.23 444.615 162.338 445.026 162.338C445.362 162.338 445.647 162.282 445.88 162.17C446.104 162.058 446.333 161.866 446.566 161.596L448.246 159.678C448.685 159.183 449.161 158.791 449.674 158.502C450.187 158.203 450.771 158.054 451.424 158.054C452.255 158.054 452.913 158.306 453.398 158.81C453.883 159.314 454.126 159.967 454.126 160.77ZM442.66 156.826V152.43H443.836V155.244H447.588V152.962H448.708V155.244H452.866V152.402H454V156.826H442.66ZM442.66 151.125V150.047L450.192 146.827H442.66V145.511H454V146.519L446.258 149.781H454V151.125H442.66ZM454.14 141.027C454.14 142.054 453.818 142.796 453.174 143.253C452.521 143.71 451.555 143.939 450.276 143.939H446.482C445.605 143.939 444.886 143.85 444.326 143.673C443.757 143.486 443.323 143.174 443.024 142.735C442.716 142.287 442.562 141.676 442.562 140.901C442.562 139.856 442.828 139.104 443.36 138.647C443.892 138.18 444.727 137.947 445.866 137.947H446.286V139.431H445.936C445.395 139.431 444.979 139.464 444.69 139.529C444.391 139.594 444.167 139.734 444.018 139.949C443.869 140.154 443.794 140.462 443.794 140.873C443.794 141.312 443.897 141.638 444.102 141.853C444.298 142.068 444.564 142.208 444.9 142.273C445.236 142.329 445.684 142.357 446.244 142.357H450.444C451.312 142.357 451.937 142.254 452.32 142.049C452.693 141.834 452.88 141.428 452.88 140.831C452.88 140.243 452.675 139.842 452.264 139.627C451.853 139.403 451.195 139.291 450.29 139.291H449.506V140.733H448.386V137.863H454V138.857L452.698 139.011C453.659 139.366 454.14 140.038 454.14 141.027ZM442.66 136.237V131.841H443.836V134.655H447.588V132.373H448.708V134.655H452.866V131.813H454V136.237H442.66ZM442.66 130.535V128.253C442.66 127.105 442.898 126.265 443.374 125.733C443.841 125.192 444.606 124.921 445.67 124.921C447.126 124.921 448.008 125.388 448.316 126.321L454 124.711V126.237L448.68 127.721V128.953H454V130.535H442.66ZM447.546 128.351C447.546 127.67 447.411 127.185 447.14 126.895C446.869 126.597 446.379 126.447 445.67 126.447C445.203 126.447 444.839 126.499 444.578 126.601C444.307 126.704 444.111 126.886 443.99 127.147C443.859 127.409 443.794 127.777 443.794 128.253V128.953H447.546V128.351Z" fill="#1794FB"/>
<path d="M474.087 191.902C474.087 191.426 474.045 191.076 473.961 190.852C473.867 190.619 473.704 190.46 473.471 190.376C473.228 190.292 472.859 190.25 472.365 190.25H463.615V188.682H472.393C473.074 188.682 473.62 188.752 474.031 188.892C474.432 189.032 474.731 189.284 474.927 189.648C475.123 190.003 475.221 190.502 475.221 191.146V191.902H474.087ZM463.615 186.823V185.269H474.955V186.823H463.615ZM463.615 183.434V181.852H468.515V178.94H463.615V177.358H474.955V178.94H469.649V181.852H474.955V183.434H463.615ZM475.081 172.689C475.081 173.799 474.768 174.597 474.143 175.083C473.508 175.559 472.593 175.797 471.399 175.797H467.101C465.925 175.797 465.033 175.554 464.427 175.069C463.82 174.583 463.517 173.79 463.517 172.689C463.517 171.587 463.825 170.799 464.441 170.323C465.047 169.837 465.934 169.595 467.101 169.595H471.413C472.589 169.595 473.494 169.837 474.129 170.323C474.763 170.808 475.081 171.597 475.081 172.689ZM473.835 172.689C473.835 172.101 473.662 171.704 473.317 171.499C472.971 171.293 472.449 171.191 471.749 171.191H466.779C466.088 171.191 465.579 171.293 465.253 171.499C464.917 171.704 464.749 172.101 464.749 172.689C464.749 173.286 464.917 173.687 465.253 173.893C465.579 174.098 466.088 174.201 466.779 174.201H471.749C472.449 174.201 472.971 174.098 473.317 173.893C473.662 173.687 473.835 173.286 473.835 172.689ZM475.081 165.142C475.081 166.253 474.768 167.051 474.143 167.536C473.508 168.012 472.593 168.25 471.399 168.25H467.101C465.925 168.25 465.033 168.007 464.427 167.522C463.82 167.037 463.517 166.243 463.517 165.142C463.517 164.041 463.825 163.252 464.441 162.776C465.047 162.291 465.934 162.048 467.101 162.048H471.413C472.589 162.048 473.494 162.291 474.129 162.776C474.763 163.261 475.081 164.05 475.081 165.142ZM473.835 165.142C473.835 164.554 473.662 164.157 473.317 163.952C472.971 163.747 472.449 163.644 471.749 163.644H466.779C466.088 163.644 465.579 163.747 465.253 163.952C464.917 164.157 464.749 164.554 464.749 165.142C464.749 165.739 464.917 166.141 465.253 166.346C465.579 166.551 466.088 166.654 466.779 166.654H471.749C472.449 166.654 472.971 166.551 473.317 166.346C473.662 166.141 473.835 165.739 473.835 165.142ZM463.615 160.493V159.415L471.147 156.195H463.615V154.879H474.955V155.887L467.213 159.149H474.955V160.493H463.615ZM463.615 149.715V148.161L472.813 146.159L463.615 144.143V142.603L474.955 142.393V143.667L466.723 143.793L474.955 145.711V146.607L466.723 148.511L474.955 148.637V149.925L463.615 149.715ZM475.081 137.757C475.081 138.868 474.768 139.666 474.143 140.151C473.508 140.627 472.593 140.865 471.399 140.865H467.101C465.925 140.865 465.033 140.622 464.427 140.137C463.82 139.652 463.517 138.858 463.517 137.757C463.517 136.656 463.825 135.867 464.441 135.391C465.047 134.906 465.934 134.663 467.101 134.663H471.413C472.589 134.663 473.494 134.906 474.129 135.391C474.763 135.876 475.081 136.665 475.081 137.757ZM473.835 137.757C473.835 137.169 473.662 136.772 473.317 136.567C472.971 136.362 472.449 136.259 471.749 136.259H466.779C466.088 136.259 465.579 136.362 465.253 136.567C464.917 136.772 464.749 137.169 464.749 137.757C464.749 138.354 464.917 138.756 465.253 138.961C465.579 139.166 466.088 139.269 466.779 139.269H471.749C472.449 139.269 472.971 139.166 473.317 138.961C473.662 138.756 473.835 138.354 473.835 137.757ZM475.081 130.21C475.081 131.321 474.768 132.119 474.143 132.604C473.508 133.08 472.593 133.318 471.399 133.318H467.101C465.925 133.318 465.033 133.076 464.427 132.59C463.82 132.105 463.517 131.312 463.517 130.21C463.517 129.109 463.825 128.32 464.441 127.844C465.047 127.359 465.934 127.116 467.101 127.116H471.413C472.589 127.116 473.494 127.359 474.129 127.844C474.763 128.33 475.081 129.118 475.081 130.21ZM473.835 130.21C473.835 129.622 473.662 129.226 473.317 129.02C472.971 128.815 472.449 128.712 471.749 128.712H466.779C466.088 128.712 465.579 128.815 465.253 129.02C464.917 129.226 464.749 129.622 464.749 130.21C464.749 130.808 464.917 131.209 465.253 131.414C465.579 131.62 466.088 131.722 466.779 131.722H471.749C472.449 131.722 472.971 131.62 473.317 131.414C473.662 131.209 473.835 130.808 473.835 130.21ZM463.615 125.561V124.483L471.147 121.263H463.615V119.947H474.955V120.955L467.213 124.217H474.955V125.561H463.615Z" fill="black"/>
<path d="M140.394 218.62C140.375 218.648 140.091 218.713 139.54 218.816C138.999 218.919 138.625 218.989 138.42 219.026V217.892C139.559 217.621 140.338 217.211 140.758 216.66H141.892V228H140.394V218.62ZM147.149 228.126C146.215 228.126 145.515 227.785 145.049 227.104C144.591 226.413 144.363 225.513 144.363 224.402V220.58C144.363 219.357 144.577 218.382 145.007 217.654C145.436 216.926 146.15 216.562 147.149 216.562C148.026 216.562 148.703 216.8 149.179 217.276C149.655 217.752 149.902 218.433 149.921 219.32L149.935 219.488H148.423C148.423 218.909 148.329 218.485 148.143 218.214C147.956 217.934 147.625 217.794 147.149 217.794C146.29 217.794 145.861 218.601 145.861 220.216V221.938C146.01 221.695 146.225 221.504 146.505 221.364C146.794 221.224 147.13 221.154 147.513 221.154C148.399 221.154 149.029 221.439 149.403 222.008C149.776 222.568 149.963 223.375 149.963 224.43C149.963 225.541 149.734 226.437 149.277 227.118C148.819 227.79 148.11 228.126 147.149 228.126ZM147.149 226.88C147.615 226.88 147.947 226.689 148.143 226.306C148.348 225.923 148.451 225.419 148.451 224.794C148.451 224.225 148.427 223.772 148.381 223.436C148.334 223.1 148.217 222.825 148.031 222.61C147.844 222.395 147.55 222.288 147.149 222.288C146.859 222.288 146.603 222.363 146.379 222.512C146.164 222.661 145.991 222.843 145.861 223.058V224.752C145.861 225.396 145.959 225.914 146.155 226.306C146.36 226.689 146.691 226.88 147.149 226.88ZM151.474 216.66H154.078C155.104 216.66 155.865 216.893 156.36 217.36C156.854 217.817 157.102 218.531 157.102 219.502C157.102 220.949 156.56 221.747 155.478 221.896C156.15 222.055 156.64 222.372 156.948 222.848C157.256 223.315 157.41 223.954 157.41 224.766C157.41 225.783 157.167 226.577 156.682 227.146C156.206 227.715 155.478 228 154.498 228H151.474V216.66ZM153.994 221.392C154.647 221.392 155.1 221.252 155.352 220.972C155.604 220.683 155.73 220.193 155.73 219.502C155.73 218.998 155.65 218.629 155.492 218.396C155.342 218.153 155.114 217.999 154.806 217.934C154.498 217.869 154.04 217.836 153.434 217.836H153.056V221.392H153.994ZM154.12 226.866C154.586 226.866 154.946 226.796 155.198 226.656C155.459 226.507 155.641 226.283 155.744 225.984C155.846 225.685 155.898 225.279 155.898 224.766C155.898 224.038 155.748 223.497 155.45 223.142C155.151 222.778 154.666 222.596 153.994 222.596H153.056V226.866H154.12Z" fill="black"/>
<path d="M464.62 90.606C464.648 90.6247 464.713 90.9093 464.816 91.46C464.919 92.0013 464.989 92.3747 465.026 92.58L463.892 92.58C463.621 91.4413 463.211 90.662 462.66 90.242L462.66 89.108L474 89.108L474 90.606L464.62 90.606ZM474.126 83.8512C474.126 84.7846 473.785 85.4846 473.104 85.9512C472.413 86.4086 471.513 86.6372 470.402 86.6372L466.58 86.6372C465.357 86.6372 464.382 86.4226 463.654 85.9932C462.926 85.5639 462.562 84.8499 462.562 83.8512C462.562 82.9739 462.8 82.2972 463.276 81.8212C463.752 81.3452 464.433 81.0979 465.32 81.0792L465.488 81.0652L465.488 82.5772C464.909 82.5772 464.485 82.6706 464.214 82.8572C463.934 83.0439 463.794 83.3752 463.794 83.8512C463.794 84.7099 464.601 85.1392 466.216 85.1392L467.938 85.1392C467.695 84.9899 467.504 84.7752 467.364 84.4952C467.224 84.2059 467.154 83.8699 467.154 83.4872C467.154 82.6006 467.439 81.9706 468.008 81.5972C468.568 81.2239 469.375 81.0372 470.43 81.0372C471.541 81.0372 472.437 81.2659 473.118 81.7232C473.79 82.1806 474.126 82.8899 474.126 83.8512ZM472.88 83.8512C472.88 83.3846 472.689 83.0532 472.306 82.8572C471.923 82.6519 471.419 82.5492 470.794 82.5492C470.225 82.5492 469.772 82.5726 469.436 82.6192C469.1 82.6659 468.825 82.7826 468.61 82.9692C468.395 83.1559 468.288 83.4499 468.288 83.8512C468.288 84.1406 468.363 84.3972 468.512 84.6212C468.661 84.8359 468.843 85.0086 469.058 85.1392L470.752 85.1392C471.396 85.1392 471.914 85.0412 472.306 84.8452C472.689 84.6399 472.88 84.3086 472.88 83.8512ZM462.66 79.5262L462.66 76.9222C462.66 75.8955 462.893 75.1349 463.36 74.6402C463.817 74.1455 464.531 73.8982 465.502 73.8982C466.949 73.8982 467.747 74.4395 467.896 75.5222C468.055 74.8502 468.372 74.3602 468.848 74.0522C469.315 73.7442 469.954 73.5902 470.766 73.5902C471.783 73.5902 472.577 73.8329 473.146 74.3182C473.715 74.7942 474 75.5222 474 76.5022L474 79.5262L462.66 79.5262ZM467.392 77.0062C467.392 76.3529 467.252 75.9002 466.972 75.6482C466.683 75.3962 466.193 75.2702 465.502 75.2702C464.998 75.2702 464.629 75.3495 464.396 75.5082C464.153 75.6575 463.999 75.8862 463.934 76.1942C463.869 76.5022 463.836 76.9595 463.836 77.5662L463.836 77.9442L467.392 77.9442L467.392 77.0062ZM472.866 76.8802C472.866 76.4135 472.796 76.0542 472.656 75.8022C472.507 75.5409 472.283 75.3589 471.984 75.2562C471.685 75.1535 471.279 75.1022 470.766 75.1022C470.038 75.1022 469.497 75.2515 469.142 75.5502C468.778 75.8489 468.596 76.3342 468.596 77.0062L468.596 77.9442L472.866 77.9442L472.866 76.8802Z" fill="black"/>
<path d="M181.574 226.936L184.458 222.442C184.598 222.218 184.691 222.078 184.738 222.022C185.065 221.499 185.303 221.065 185.452 220.72C185.601 220.375 185.676 219.959 185.676 219.474C185.676 218.933 185.587 218.517 185.41 218.228C185.233 217.939 184.943 217.794 184.542 217.794C183.646 217.794 183.198 218.489 183.198 219.88V220.258H181.7V219.866C181.7 218.802 181.919 217.985 182.358 217.416C182.797 216.847 183.501 216.562 184.472 216.562C185.368 216.562 186.045 216.819 186.502 217.332C186.959 217.836 187.188 218.555 187.188 219.488C187.188 219.945 187.132 220.356 187.02 220.72C186.917 221.075 186.791 221.383 186.642 221.644C186.493 221.905 186.259 222.279 185.942 222.764L183.338 226.74H186.922V228H181.574V226.936ZM191.536 224.962H188.246V223.394L191.2 216.66H192.964V223.632H194.238V224.962H192.964V228H191.536V224.962ZM191.536 223.632V218.48L189.688 223.632H191.536ZM198.534 216.66H200.998C202.221 216.66 203.084 216.94 203.588 217.5C204.102 218.06 204.358 218.933 204.358 220.118V224.29C204.358 225.541 204.106 226.474 203.602 227.09C203.108 227.697 202.282 228 201.124 228H198.534V216.66ZM201.012 226.866C201.563 226.866 201.96 226.759 202.202 226.544C202.454 226.329 202.608 226.04 202.664 225.676C202.73 225.303 202.762 224.743 202.762 223.996V220.314C202.762 219.67 202.72 219.18 202.636 218.844C202.562 218.499 202.398 218.247 202.146 218.088C201.894 217.92 201.502 217.836 200.97 217.836H200.116V226.866H201.012ZM205.917 216.66H210.313V217.836H207.499V221.588H209.781V222.708H207.499V226.866H210.341V228H205.917V216.66ZM214.46 228.126C213.34 228.126 212.552 227.795 212.094 227.132C211.637 226.46 211.408 225.536 211.408 224.36V220.356C211.408 219.115 211.632 218.172 212.08 217.528C212.528 216.884 213.322 216.562 214.46 216.562C215.478 216.562 216.206 216.837 216.644 217.388C217.092 217.939 217.316 218.751 217.316 219.824V220.72H215.818V219.922C215.818 219.399 215.795 218.998 215.748 218.718C215.702 218.438 215.58 218.214 215.384 218.046C215.198 217.878 214.894 217.794 214.474 217.794C214.045 217.794 213.723 217.887 213.508 218.074C213.303 218.251 213.168 218.503 213.102 218.83C213.037 219.147 213.004 219.577 213.004 220.118V224.612C213.004 225.191 213.051 225.643 213.144 225.97C213.238 226.297 213.387 226.53 213.592 226.67C213.807 226.81 214.101 226.88 214.474 226.88C214.876 226.88 215.174 226.791 215.37 226.614C215.566 226.437 215.688 226.194 215.734 225.886C215.79 225.578 215.818 225.158 215.818 224.626V223.786H217.316V224.626C217.316 225.755 217.102 226.623 216.672 227.23C216.252 227.827 215.515 228.126 214.46 228.126ZM221.715 226.936L224.599 222.442C224.739 222.218 224.832 222.078 224.879 222.022C225.205 221.499 225.443 221.065 225.593 220.72C225.742 220.375 225.817 219.959 225.817 219.474C225.817 218.933 225.728 218.517 225.551 218.228C225.373 217.939 225.084 217.794 224.683 217.794C223.787 217.794 223.339 218.489 223.339 219.88V220.258H221.841V219.866C221.841 218.802 222.06 217.985 222.499 217.416C222.937 216.847 223.642 216.562 224.613 216.562C225.509 216.562 226.185 216.819 226.643 217.332C227.1 217.836 227.329 218.555 227.329 219.488C227.329 219.945 227.273 220.356 227.161 220.72C227.058 221.075 226.932 221.383 226.783 221.644C226.633 221.905 226.4 222.279 226.083 222.764L223.479 226.74H227.063V228H221.715V226.936ZM231.452 228.126C230.519 228.126 229.814 227.823 229.338 227.216C228.872 226.609 228.638 225.797 228.638 224.78V219.894C228.638 218.858 228.867 218.046 229.324 217.458C229.791 216.861 230.5 216.562 231.452 216.562C232.395 216.562 233.095 216.861 233.552 217.458C234.019 218.046 234.252 218.858 234.252 219.894V224.78C234.252 225.807 234.019 226.623 233.552 227.23C233.086 227.827 232.386 228.126 231.452 228.126ZM231.452 226.894C232.311 226.894 232.74 226.194 232.74 224.794V219.88C232.74 219.236 232.647 218.727 232.46 218.354C232.283 217.971 231.947 217.78 231.452 217.78C230.958 217.78 230.617 217.971 230.43 218.354C230.244 218.727 230.15 219.236 230.15 219.88V224.794C230.15 226.194 230.584 226.894 231.452 226.894ZM235.633 226.936L238.517 222.442C238.657 222.218 238.75 222.078 238.797 222.022C239.123 221.499 239.361 221.065 239.511 220.72C239.66 220.375 239.735 219.959 239.735 219.474C239.735 218.933 239.646 218.517 239.469 218.228C239.291 217.939 239.002 217.794 238.601 217.794C237.705 217.794 237.257 218.489 237.257 219.88V220.258H235.759V219.866C235.759 218.802 235.978 217.985 236.417 217.416C236.855 216.847 237.56 216.562 238.531 216.562C239.427 216.562 240.103 216.819 240.561 217.332C241.018 217.836 241.247 218.555 241.247 219.488C241.247 219.945 241.191 220.356 241.079 220.72C240.976 221.075 240.85 221.383 240.701 221.644C240.551 221.905 240.318 222.279 240.001 222.764L237.397 226.74H240.981V228H235.633V226.936ZM244.138 218.62C244.119 218.648 243.835 218.713 243.284 218.816C242.743 218.919 242.369 218.989 242.164 219.026V217.892C243.303 217.621 244.082 217.211 244.502 216.66H245.636V228H244.138V218.62Z" fill="black"/>
<path d="M536.936 162.426L532.442 159.542C532.218 159.402 532.078 159.309 532.022 159.262C531.499 158.935 531.065 158.697 530.72 158.548C530.375 158.399 529.959 158.324 529.474 158.324C528.933 158.324 528.517 158.413 528.228 158.59C527.939 158.767 527.794 159.057 527.794 159.458C527.794 160.354 528.489 160.802 529.88 160.802L530.258 160.802L530.258 162.3L529.866 162.3C528.802 162.3 527.985 162.081 527.416 161.642C526.847 161.203 526.562 160.499 526.562 159.528C526.562 158.632 526.819 157.955 527.332 157.498C527.836 157.041 528.555 156.812 529.488 156.812C529.945 156.812 530.356 156.868 530.72 156.98C531.075 157.083 531.383 157.209 531.644 157.358C531.905 157.507 532.279 157.741 532.764 158.058L536.74 160.662L536.74 157.078L538 157.078L538 162.426L536.936 162.426ZM534.962 152.464L534.962 155.754L533.394 155.754L526.66 152.8L526.66 151.036L533.632 151.036L533.632 149.762L534.962 149.762L534.962 151.036L538 151.036L538 152.464L534.962 152.464ZM533.632 152.464L528.48 152.464L533.632 154.312L533.632 152.464ZM526.66 145.466L526.66 143.002C526.66 141.779 526.94 140.916 527.5 140.412C528.06 139.898 528.933 139.642 530.118 139.642L534.29 139.642C535.541 139.642 536.474 139.894 537.09 140.398C537.697 140.892 538 141.718 538 142.876L538 145.466L526.66 145.466ZM536.866 142.988C536.866 142.437 536.759 142.04 536.544 141.798C536.329 141.546 536.04 141.392 535.676 141.336C535.303 141.27 534.743 141.238 533.996 141.238L530.314 141.238C529.67 141.238 529.18 141.28 528.844 141.364C528.499 141.438 528.247 141.602 528.088 141.854C527.92 142.106 527.836 142.498 527.836 143.03L527.836 143.884L536.866 143.884L536.866 142.988ZM526.66 138.083L526.66 133.687L527.836 133.687L527.836 136.501L531.588 136.501L531.588 134.219L532.708 134.219L532.708 136.501L536.866 136.501L536.866 133.659L538 133.659L538 138.083L526.66 138.083ZM538.126 129.54C538.126 130.66 537.795 131.448 537.132 131.906C536.46 132.363 535.536 132.592 534.36 132.592L530.356 132.592C529.115 132.592 528.172 132.368 527.528 131.92C526.884 131.472 526.562 130.678 526.562 129.54C526.562 128.522 526.837 127.794 527.388 127.356C527.939 126.908 528.751 126.684 529.824 126.684L530.72 126.684L530.72 128.182L529.922 128.182C529.399 128.182 528.998 128.205 528.718 128.252C528.438 128.298 528.214 128.42 528.046 128.616C527.878 128.802 527.794 129.106 527.794 129.526C527.794 129.955 527.887 130.277 528.074 130.492C528.251 130.697 528.503 130.832 528.83 130.898C529.147 130.963 529.577 130.996 530.118 130.996L534.612 130.996C535.191 130.996 535.643 130.949 535.97 130.856C536.297 130.762 536.53 130.613 536.67 130.408C536.81 130.193 536.88 129.899 536.88 129.526C536.88 129.124 536.791 128.826 536.614 128.63C536.437 128.434 536.194 128.312 535.886 128.266C535.578 128.21 535.158 128.182 534.626 128.182L533.786 128.182L533.786 126.684L534.626 126.684C535.755 126.684 536.623 126.898 537.23 127.328C537.827 127.748 538.126 128.485 538.126 129.54ZM536.936 122.285L532.442 119.401C532.218 119.261 532.078 119.168 532.022 119.121C531.499 118.795 531.065 118.557 530.72 118.407C530.375 118.258 529.959 118.183 529.474 118.183C528.933 118.183 528.517 118.272 528.228 118.449C527.939 118.627 527.794 118.916 527.794 119.317C527.794 120.213 528.489 120.661 529.88 120.661L530.258 120.661L530.258 122.159L529.866 122.159C528.802 122.159 527.985 121.94 527.416 121.501C526.847 121.063 526.562 120.358 526.562 119.387C526.562 118.491 526.819 117.815 527.332 117.357C527.836 116.9 528.555 116.671 529.488 116.671C529.945 116.671 530.356 116.727 530.72 116.839C531.075 116.942 531.383 117.068 531.644 117.217C531.905 117.367 532.279 117.6 532.764 117.917L536.74 120.521L536.74 116.937L538 116.937L538 122.285L536.936 122.285ZM538.126 112.548C538.126 113.481 537.823 114.186 537.216 114.662C536.609 115.128 535.797 115.362 534.78 115.362L529.894 115.362C528.858 115.362 528.046 115.133 527.458 114.676C526.861 114.209 526.562 113.5 526.562 112.548C526.562 111.605 526.861 110.905 527.458 110.448C528.046 109.981 528.858 109.748 529.894 109.748L534.78 109.748C535.807 109.748 536.623 109.981 537.23 110.448C537.827 110.914 538.126 111.614 538.126 112.548ZM536.894 112.548C536.894 111.689 536.194 111.26 534.794 111.26L529.88 111.26C529.236 111.26 528.727 111.353 528.354 111.54C527.971 111.717 527.78 112.053 527.78 112.548C527.78 113.042 527.971 113.383 528.354 113.57C528.727 113.756 529.236 113.85 529.88 113.85L534.794 113.85C536.194 113.85 536.894 113.416 536.894 112.548ZM536.936 108.367L532.442 105.483C532.218 105.343 532.078 105.25 532.022 105.203C531.499 104.877 531.065 104.639 530.72 104.489C530.375 104.34 529.959 104.265 529.474 104.265C528.933 104.265 528.517 104.354 528.228 104.531C527.939 104.709 527.794 104.998 527.794 105.399C527.794 106.295 528.489 106.743 529.88 106.743L530.258 106.743L530.258 108.241L529.866 108.241C528.802 108.241 527.985 108.022 527.416 107.583C526.847 107.145 526.562 106.44 526.562 105.469C526.562 104.573 526.819 103.897 527.332 103.439C527.836 102.982 528.555 102.753 529.488 102.753C529.945 102.753 530.356 102.809 530.72 102.921C531.075 103.024 531.383 103.15 531.644 103.299C531.905 103.449 532.279 103.682 532.764 103.999L536.74 106.603L536.74 103.019L538 103.019L538 108.367L536.936 108.367ZM528.62 99.8619C528.648 99.8805 528.713 100.165 528.816 100.716C528.919 101.257 528.989 101.631 529.026 101.836L527.892 101.836C527.621 100.697 527.211 99.9179 526.66 99.4979L526.66 98.3639L538 98.3639L538 99.8619L528.62 99.8619Z" fill="black"/>
<line x1="295.5" y1="194" x2="295.5" y2="227" stroke="black"/>
<line x1="340.5" y1="194" x2="340.5" y2="227" stroke="black"/>
<line x1="297.5" y1="194" x2="297.5" y2="227" stroke="black"/>
<line x1="342.5" y1="194" x2="342.5" y2="227" stroke="black"/>
<line x1="327.5" y1="194" x2="327.5" y2="227" stroke="black"/>
<line x1="372.5" y1="194" x2="372.5" y2="227" stroke="black"/>
<line x1="330.5" y1="194" x2="330.5" y2="227" stroke="black"/>
<line x1="375.5" y1="194" x2="375.5" y2="227" stroke="black"/>
<line x1="332.5" y1="194" x2="332.5" y2="227" stroke="black"/>
<line x1="377.5" y1="194" x2="377.5" y2="227" stroke="black"/>
<line x1="335.5" y1="194" x2="335.5" y2="227" stroke="black"/>
<line x1="380.5" y1="194" x2="380.5" y2="227" stroke="black"/>
<line x1="338.25" y1="194" x2="338.25" y2="227" stroke="black" stroke-width="0.5"/>
<line x1="383.25" y1="194" x2="383.25" y2="227" stroke="black" stroke-width="0.5"/>
<line x1="317.5" y1="194" x2="317.5" y2="227" stroke="black"/>
<line x1="362.5" y1="194" x2="362.5" y2="227" stroke="black"/>
<line x1="319.5" y1="194" x2="319.5" y2="227" stroke="black"/>
<line x1="364.5" y1="194" x2="364.5" y2="227" stroke="black"/>
<line x1="321.5" y1="194" x2="321.5" y2="227" stroke="black"/>
<line x1="366.5" y1="194" x2="366.5" y2="227" stroke="black"/>
<line x1="324.5" y1="194" x2="324.5" y2="227" stroke="black" stroke-width="3"/>
<line x1="369.5" y1="194" x2="369.5" y2="227" stroke="black" stroke-width="3"/>
<line x1="304.5" y1="194" x2="304.5" y2="227" stroke="black"/>
<line x1="349.5" y1="194" x2="349.5" y2="227" stroke="black"/>
<line x1="306.25" y1="194" x2="306.25" y2="227" stroke="black" stroke-width="0.5"/>
<line x1="351.25" y1="194" x2="351.25" y2="227" stroke="black" stroke-width="0.5"/>
<line x1="307.25" y1="194" x2="307.25" y2="227" stroke="black" stroke-width="0.5"/>
<line x1="352.25" y1="194" x2="352.25" y2="227" stroke="black" stroke-width="0.5"/>
<line x1="309.5" y1="194" x2="309.5" y2="227" stroke="black"/>
<line x1="354.5" y1="194" x2="354.5" y2="227" stroke="black"/>
<line x1="311.5" y1="194" x2="311.5" y2="227" stroke="black"/>
<line x1="356.5" y1="194" x2="356.5" y2="227" stroke="black"/>
<line x1="314.5" y1="194" x2="314.5" y2="227" stroke="black" stroke-width="3"/>
<line x1="359.5" y1="194" x2="359.5" y2="227" stroke="black" stroke-width="3"/>
<line x1="301.5" y1="194" x2="301.5" y2="227" stroke="black" stroke-width="3"/>
<line x1="346.5" y1="194" x2="346.5" y2="227" stroke="black" stroke-width="3"/>
<line x1="450.5" y1="210" x2="450.5" y2="243" stroke="black"/>
<line x1="495.5" y1="210" x2="495.5" y2="243" stroke="black"/>
<line x1="452.5" y1="210" x2="452.5" y2="243" stroke="black"/>
<line x1="497.5" y1="210" x2="497.5" y2="243" stroke="black"/>
<line x1="482.5" y1="210" x2="482.5" y2="243" stroke="black"/>
<line x1="527.5" y1="210" x2="527.5" y2="243" stroke="black"/>
<line x1="485.5" y1="210" x2="485.5" y2="243" stroke="black"/>
<line x1="530.5" y1="210" x2="530.5" y2="243" stroke="black"/>
<line x1="487.5" y1="210" x2="487.5" y2="243" stroke="black"/>
<line x1="532.5" y1="210" x2="532.5" y2="243" stroke="black"/>
<line x1="490.5" y1="210" x2="490.5" y2="243" stroke="black"/>
<line x1="535.5" y1="210" x2="535.5" y2="243" stroke="black"/>
<line x1="493.25" y1="210" x2="493.25" y2="243" stroke="black" stroke-width="0.5"/>
<line x1="538.25" y1="210" x2="538.25" y2="243" stroke="black" stroke-width="0.5"/>
<line x1="472.5" y1="210" x2="472.5" y2="243" stroke="black"/>
<line x1="517.5" y1="210" x2="517.5" y2="243" stroke="black"/>
<line x1="474.5" y1="210" x2="474.5" y2="243" stroke="black"/>
<line x1="519.5" y1="210" x2="519.5" y2="243" stroke="black"/>
<line x1="476.5" y1="210" x2="476.5" y2="243" stroke="black"/>
<line x1="521.5" y1="210" x2="521.5" y2="243" stroke="black"/>
<line x1="479.5" y1="210" x2="479.5" y2="243" stroke="black" stroke-width="3"/>
<line x1="524.5" y1="210" x2="524.5" y2="243" stroke="black" stroke-width="3"/>
<line x1="459.5" y1="210" x2="459.5" y2="243" stroke="black"/>
<line x1="504.5" y1="210" x2="504.5" y2="243" stroke="black"/>
<line x1="461.25" y1="210" x2="461.25" y2="243" stroke="black" stroke-width="0.5"/>
<line x1="506.25" y1="210" x2="506.25" y2="243" stroke="black" stroke-width="0.5"/>
<line x1="462.25" y1="210" x2="462.25" y2="243" stroke="black" stroke-width="0.5"/>
<line x1="507.25" y1="210" x2="507.25" y2="243" stroke="black" stroke-width="0.5"/>
<line x1="464.5" y1="210" x2="464.5" y2="243" stroke="black"/>
<line x1="509.5" y1="210" x2="509.5" y2="243" stroke="black"/>
<line x1="466.5" y1="210" x2="466.5" y2="243" stroke="black"/>
<line x1="511.5" y1="210" x2="511.5" y2="243" stroke="black"/>
<line x1="469.5" y1="210" x2="469.5" y2="243" stroke="black" stroke-width="3"/>
<line x1="514.5" y1="210" x2="514.5" y2="243" stroke="black" stroke-width="3"/>
<line x1="456.5" y1="210" x2="456.5" y2="243" stroke="black" stroke-width="3"/>
<line x1="501.5" y1="210" x2="501.5" y2="243" stroke="black" stroke-width="3"/>
<path d="M213.972 124.065C213.372 123.333 201.313 124.371 195.358 124.981L188.303 116.891H185L188.903 128.34L185 137.346H188.303L195.358 129.866C198.36 130.843 209.018 130.985 213.972 130.935L205.115 152H211.27L218.776 141.62H225.081C226.282 141.62 226.882 140.551 226.882 139.33C226.882 138.353 225.681 137.6 225.081 137.346H222.529L227.783 129.866H240.693C241.944 129.815 244.115 128.675 243.995 126.966C243.875 125.256 242.244 124.218 240.693 124.065H226.882L221.628 116.891C222.179 116.942 223.64 117.013 225.081 116.891C226.882 116.738 226.732 116.433 226.882 115.212C227.002 114.235 225.731 113.278 225.081 112.922H218.776L211.27 103H205.115C208.318 110.327 214.573 124.798 213.972 124.065Z" fill="#515151"/>
</svg>
