<svg width="516" height="757" viewBox="0 0 516 757" fill="none" xmlns="http://www.w3.org/2000/svg">
<g id="openBag">
<g id="Mask Group">
<mask id="mask0" mask-type="alpha" maskUnits="userSpaceOnUse" x="4" y="43" width="512" height="360">
<rect id="Rectangle 14" x="4" y="43" width="512" height="360" rx="20" fill="#C4C4C4"/>
</mask>
<g mask="url(#mask0)">
<ellipse id="Ellipse 9" cx="3.47949" cy="42.4706" rx="64" ry="65.1176" fill="#AF7136"/>
</g>
</g>
<g id="Mask Group_2">
<mask id="mask1" mask-type="alpha" maskUnits="userSpaceOnUse" x="0" y="43" width="512" height="360">
<rect id="Rectangle 14_2" width="512" height="360" rx="20" transform="matrix(-1 0 0 1 512 43)" fill="#C4C4C4"/>
</mask>
<g mask="url(#mask1)">
<ellipse id="Ellipse 9_2" rx="64" ry="65.1176" transform="matrix(-1 0 0 1 512.521 42.4706)" fill="#AF7136"/>
</g>
</g>
<g id="Mask Group_3">
<mask id="mask2" mask-type="alpha" maskUnits="userSpaceOnUse" x="0" y="37" width="512" height="360">
<rect id="Rectangle 14_3" x="512" y="397" width="512" height="360" rx="20" transform="rotate(-180 512 397)" fill="#C4C4C4"/>
</mask>
<g mask="url(#mask2)">
<ellipse id="Ellipse 9_3" cx="512.521" cy="397.529" rx="64" ry="65.1176" transform="rotate(-180 512.521 397.529)" fill="#AF7136"/>
</g>
</g>
<g id="Mask Group_4">
<mask id="mask3" mask-type="alpha" maskUnits="userSpaceOnUse" x="3" y="37" width="512" height="360">
<rect id="Rectangle 14_4" width="512" height="360" rx="20" transform="matrix(1 0 0 -1 3 397)" fill="#C4C4C4"/>
</mask>
<g mask="url(#mask3)">
<ellipse id="Ellipse 9_4" rx="64" ry="65.1176" transform="matrix(1 0 0 -1 2.47949 397.529)" fill="#AF7136"/>
</g>
</g>
<rect id="Rectangle 13" x="7" y="47" width="502" height="346.911" rx="20" fill="#FBCB41"/>
<g id="Mask Group_5">
<mask id="mask4" mask-type="alpha" maskUnits="userSpaceOnUse" x="4" y="391" width="512" height="360">
<rect id="Rectangle 14_5" width="512" height="360" rx="20" transform="matrix(1 0 0 -1 4 751)" fill="#C4C4C4"/>
</mask>
<g mask="url(#mask4)">
<ellipse id="Ellipse 9_5" rx="64" ry="65.1176" transform="matrix(1 0 0 -1 3.47949 751.529)" fill="#AF7136"/>
</g>
</g>
<g id="Mask Group_6">
<mask id="mask5" mask-type="alpha" maskUnits="userSpaceOnUse" x="0" y="391" width="512" height="360">
<rect id="Rectangle 14_6" x="512" y="751" width="512" height="360" rx="20" transform="rotate(-180 512 751)" fill="#C4C4C4"/>
</mask>
<g mask="url(#mask5)">
<ellipse id="Ellipse 9_6" cx="512.521" cy="751.529" rx="64" ry="65.1176" transform="rotate(-180 512.521 751.529)" fill="#AF7136"/>
</g>
</g>
<g id="Mask Group_7">
<mask id="mask6" mask-type="alpha" maskUnits="userSpaceOnUse" x="0" y="397" width="512" height="360">
<rect id="Rectangle 14_7" width="512" height="360" rx="20" transform="matrix(-1 0 0 1 512 397)" fill="#C4C4C4"/>
</mask>
<g mask="url(#mask6)">
<ellipse id="Ellipse 9_7" rx="64" ry="65.1176" transform="matrix(-1 0 0 1 512.521 396.471)" fill="#AF7136"/>
</g>
</g>
<g id="Mask Group_8">
<mask id="mask7" mask-type="alpha" maskUnits="userSpaceOnUse" x="3" y="397" width="512" height="360">
<rect id="Rectangle 14_8" x="3" y="397" width="512" height="360" rx="20" fill="#C4C4C4"/>
</mask>
<g mask="url(#mask7)">
<ellipse id="Ellipse 9_8" cx="2.47949" cy="396.471" rx="64" ry="65.1176" fill="#AF7136"/>
</g>
</g>
<rect id="Rectangle 20" x="7" y="401" width="502" height="346.911" rx="20" fill="#FBCB41"/>
<rect id="Rectangle 14_9" x="20" y="65" width="476" height="329" rx="20" fill="#855327"/>
<rect id="Rectangle 26" x="20" y="401" width="476" height="329" rx="20" fill="#855327"/>
<rect id="topLeft" x="30" y="72" width="456" height="315" rx="20" fill="#A06F42"/>
<rect id="bottomLeft" x="30" y="409" width="456" height="315" rx="20" fill="#A06F42"/>
<path id="Subtract" fill-rule="evenodd" clip-rule="evenodd" d="M206 0C200.477 0 196 4.47714 196 9.99999V46.8298H207.872V20.5532C207.872 15.0304 212.35 10.5532 217.872 10.5532H298.128C303.651 10.5532 308.128 15.0304 308.128 20.5532V46.8298H320V10C320 4.47715 315.523 0 310 0H206Z" fill="#A76D36"/>
<rect id="Rectangle 15" x="186" y="45" width="33" height="3" rx="1.5" fill="#858585"/>
<rect id="Rectangle 19" x="297" y="45" width="33" height="3" rx="1.5" fill="#858585"/>
<rect id="Rectangle 22" x="39" y="382" width="28" height="37" rx="5" fill="#858585"/>
<rect id="Rectangle 23" x="458" y="382" width="28" height="37" rx="5" fill="#858585"/>
</g>
</svg>
