<svg width="200" height="200" viewBox="0 0 200 200" fill="none" xmlns="http://www.w3.org/2000/svg">
<path d="M52.0597 125.281C52.0597 136.576 47.1185 147.634 44.6479 151.752L52.0597 168.34L103.471 183.647L159.588 164.235C164.647 153.294 166.766 114.34 163.942 95.9874C160.413 73.0462 160.06 34.9285 115.589 21.1638C71.1186 7.39913 70.0597 22.2227 44.6479 52.9285C19.2362 83.6344 52.0597 111.164 52.0597 125.281Z" fill="#C18E4D"/>
<path d="M65.7275 65.2172C54.8107 77.5127 54.8107 73.1891 47.645 92.3214C43.1667 104.279 17.788 157.292 54.8107 176.025C91.8334 194.759 103.776 176.025 119.7 165.263C135.624 154.502 127.662 104.954 119.7 101.765C111.738 98.5761 116.515 81.1609 103.776 65.2173C91.0372 49.2737 79.5214 49.6811 65.7275 65.2172Z" fill="#FBF8E0"/>
<path d="M43.9002 130.837C45.4843 121.194 53.8186 114.118 63.5905 114.118H70.1825C79.5658 114.118 87.5248 121.01 88.8662 130.297C90.1701 139.323 84.8344 147.991 76.1881 150.892L69.9386 152.989C55.6854 157.772 41.4629 145.673 43.9002 130.837Z" fill="#2C2C2C"/>
<rect x="84.0361" y="94.5835" width="4.23529" height="9.88235" rx="2.11765" transform="rotate(4.99026 84.0361 94.5835)" fill="#2C2C2C"/>
<rect x="56.9316" y="94.2957" width="3.72151" height="8.68352" rx="1.86075" transform="rotate(4.99026 56.9316 94.2957)" fill="#2C2C2C"/>
<path d="M63.5885 152.941C61.9415 161.412 65.7764 181.176 84.4117 184" stroke="#2C2C2C" stroke-width="2"/>
<path d="M84.4121 184C96.4121 180.353 119.424 168.118 115.471 148.353" stroke="#2C2C2C" stroke-width="2" stroke-linecap="round" stroke-linejoin="round"/>
<path d="M122.529 40.7058L122.871 41.6924C123.803 44.384 127.609 44.384 128.541 41.6924L128.882 40.7058" stroke="#AF7136" stroke-width="2"/>
<path d="M49.8232 56.9412L50.1648 57.9278C51.0964 60.6193 54.903 60.6193 55.8347 57.9278L56.1762 56.9412" stroke="#AF7136" stroke-width="2"/>
<path d="M76.6475 31.5293L76.989 32.5159C77.9207 35.2074 81.7272 35.2074 82.6589 32.5159L83.0004 31.5293" stroke="#AF7136" stroke-width="2"/>
<path d="M116.177 76.7058L116.518 77.6924C117.45 80.384 121.256 80.384 122.188 77.6924L122.53 76.7058" stroke="#AF7136" stroke-width="2"/>
<path d="M146.529 56.9412L146.871 57.9278C147.803 60.6193 151.609 60.6193 152.541 57.9278L152.882 56.9412" stroke="#AF7136" stroke-width="2"/>
<path d="M140.177 98.5881L140.518 99.5747C141.45 102.266 145.256 102.266 146.188 99.5747L146.53 98.5881" stroke="#AF7136" stroke-width="2"/>
<path d="M152.883 129.647L153.224 130.634C154.156 133.325 157.963 133.325 158.894 130.634L159.236 129.647" stroke="#AF7136" stroke-width="2"/>
<path d="M133.823 148.706L134.165 149.692C135.096 152.384 138.903 152.384 139.835 149.692L140.176 148.706" stroke="#AF7136" stroke-width="2"/>
</svg>
