<svg width="872" height="249" viewBox="0 0 872 249" fill="none" xmlns="http://www.w3.org/2000/svg">
<path d="M779.903 120.031H26.0711C15.8557 128.203 21.8147 131.949 26.0711 132.8C69.9121 153.018 161.042 195.369 174.833 203.031C188.623 210.692 221.44 215.162 236.125 216.438H782.01C793.836 216.438 820.54 212.057 838.621 207.86C841.391 207.217 844.086 206.318 846.576 204.945C855.858 199.828 872.515 187.892 870.756 175.577C868.202 157.7 859.369 152.592 840.215 138.546C825.469 127.732 801.853 124.132 784.069 120.462C782.697 120.179 781.304 120.031 779.903 120.031Z" fill="#3ED4DF" stroke="white"/>
<path d="M230.485 180.046L86.8311 149.4L104.708 169.192C127.905 178.556 162.042 197.54 174.3 203.669C186.559 209.798 234.528 216.864 247.723 216.438H780.2C799.354 216.438 830.639 211.969 848.516 206.223C864.592 201.056 870.011 188.346 870.223 180.046H230.485Z" fill="#F4F4F4"/>
<path d="M819.369 146.846H850.431L859.183 153.848C859.731 154.287 860.232 154.782 860.676 155.325L865.754 161.531L832.236 162.728C830.813 162.779 829.436 162.221 828.45 161.194L817.926 150.231C816.706 148.96 817.607 146.846 819.369 146.846Z" fill="#0B2759"/>
<rect x="236.23" y="151.954" width="10.2154" height="21.7077" rx="4" fill="#0B2759"/>
<rect x="257.938" y="151.954" width="10.2154" height="21.7077" rx="4" fill="#0B2759"/>
<rect x="279.646" y="151.954" width="10.2154" height="21.7077" rx="4" fill="#0B2759"/>
<rect x="301.354" y="151.954" width="10.2154" height="21.7077" rx="4" fill="#0B2759"/>
<rect x="323.062" y="151.954" width="10.2154" height="21.7077" rx="4" fill="#0B2759"/>
<rect x="344.77" y="151.954" width="10.2154" height="21.7077" rx="4" fill="#0B2759"/>
<rect x="366.477" y="151.954" width="10.2154" height="21.7077" rx="4" fill="#0B2759"/>
<rect x="388.185" y="151.954" width="10.2154" height="21.7077" rx="4" fill="#0B2759"/>
<rect x="409.893" y="151.954" width="10.2154" height="21.7077" rx="4" fill="#0B2759"/>
<rect x="431.6" y="151.954" width="10.2154" height="21.7077" rx="4" fill="#0B2759"/>
<rect x="453.308" y="151.954" width="10.2154" height="21.7077" rx="4" fill="#0B2759"/>
<rect x="475.016" y="151.954" width="10.2154" height="21.7077" rx="4" fill="#0B2759"/>
<rect x="496.723" y="151.954" width="10.2154" height="21.7077" rx="4" fill="#0B2759"/>
<rect x="518.431" y="151.954" width="10.2154" height="21.7077" rx="4" fill="#0B2759"/>
<rect x="540.139" y="151.954" width="10.2154" height="21.7077" rx="4" fill="#0B2759"/>
<rect x="561.846" y="151.954" width="10.2154" height="21.7077" rx="4" fill="#0B2759"/>
<rect x="583.554" y="151.954" width="10.2154" height="21.7077" rx="4" fill="#0B2759"/>
<rect x="605.262" y="151.954" width="10.2154" height="21.7077" rx="4" fill="#0B2759"/>
<rect x="626.969" y="151.954" width="10.2154" height="21.7077" rx="4" fill="#0B2759"/>
<rect x="648.677" y="151.954" width="10.2154" height="21.7077" rx="4" fill="#0B2759"/>
<rect x="670.385" y="151.954" width="10.2154" height="21.7077" rx="4" fill="#0B2759"/>
<rect x="692.092" y="151.954" width="10.2154" height="21.7077" rx="4" fill="#0B2759"/>
<rect x="713.8" y="151.954" width="10.2154" height="21.7077" rx="4" fill="#0B2759"/>
<rect x="735.508" y="151.954" width="10.2154" height="21.7077" rx="4" fill="#0B2759"/>
<rect x="757.216" y="151.954" width="10.2154" height="21.7077" rx="4" fill="#0B2759"/>
<rect x="344.77" y="213.246" width="26.8154" height="10.2154" fill="#DFDFDF"/>
<rect x="730.4" y="213.246" width="26.8154" height="10.2154" fill="#DFDFDF"/>
<rect x="356.262" y="223.461" width="3.83077" height="12.7692" fill="#C4C4C4"/>
<rect x="741.893" y="223.461" width="3.83077" height="12.7692" fill="#C4C4C4"/>
<rect x="366.477" y="234.954" width="3.83077" height="16.6" transform="rotate(90 366.477 234.954)" fill="#C4C4C4"/>
<path d="M203.031 121.308H80.4462L0 0H64.4846L203.031 121.308Z" fill="#3ED4DF"/>
<circle cx="373.5" cy="239.423" r="9.57692" fill="#404041"/>
<circle cx="344.131" cy="239.423" r="9.57692" fill="#404041"/>
<circle cx="743.807" cy="239.423" r="9.57692" fill="#404041"/>
<circle cx="373.5" cy="239.423" r="5.74615" fill="#242424"/>
<circle cx="344.131" cy="239.423" r="5.74615" fill="#242424"/>
<circle cx="743.808" cy="239.423" r="5.74615" fill="#242424"/>
<path d="M80.4459 120.669H202.392L64.4844 96.4077L80.4459 120.669Z" fill="#02B1BE"/>
<path d="M70.2311 128.331L102.793 167.915L3.83105 128.331H70.2311Z" fill="#CFD0D1"/>
<path d="M386.269 58.7384L566.954 180.046H452.669L305.185 58.7384H386.269Z" fill="#E3E7EB"/>
<path d="M365.2 118.538C365.2 113.016 369.677 108.538 375.2 108.538H431.816C437.338 108.538 441.816 113.016 441.816 118.538V133.015C441.816 138.538 437.338 143.015 431.816 143.015H375.2C369.677 143.015 365.2 138.538 365.2 133.015V118.538Z" fill="#CFD0D1"/>
<path d="M415 165.785C415 160.262 419.477 155.785 425 155.785H481.615C487.138 155.785 491.615 160.262 491.615 165.785V180.262C491.615 185.784 487.138 190.262 481.615 190.262H425C419.477 190.262 415 185.784 415 180.262V165.785Z" fill="#CFD0D1"/>
<rect x="420.107" y="108.538" width="3.83077" height="34.4769" fill="#5B5D5E"/>
<rect x="471.185" y="155.785" width="3.83077" height="34.4769" fill="#5B5D5E"/>
</svg>
