<svg width="545" height="660" viewBox="0 0 545 660" fill="none" xmlns="http://www.w3.org/2000/svg">
<path d="M330 621.348L330.867 596.999H356V619.076C349.5 640.045 334.767 634.393 330 621.348Z" fill="#F1AF92"/>
<path d="M435.99 621.348L435.124 596.999H409.99V619.076C416.49 640.045 431.224 634.393 435.99 621.348Z" fill="#F1AF92"/>
<path d="M375 134.999L387 109.999H407L418 131.499C416.667 138.332 411.3 152.099 400.5 152.499C389.7 152.899 379 140.999 375 134.999Z" fill="#ECAD91"/>
<path d="M447.858 288.056L333.211 282.999C333.211 282.999 328.521 305.076 328.521 313.847C321.847 329.719 326.145 514.256 328.517 603.499C343.788 603.499 353.518 605.999 358.5 605.999C364.727 605.999 385.505 370.362 385.505 364.499C385.505 352.556 386.615 355.581 387.505 355.999C392.991 431.597 404.73 603.499 409 603.499H437C449.81 593.141 453.195 385.095 447.858 288.056Z" fill="#849295"/>
<path d="M500.668 105.311C501.247 108.945 494.109 112.079 490.467 113.192L500.152 137.286C508.912 129.165 526.899 112.337 528.771 109.996C531.11 107.069 520.896 97.2591 520.234 94.569C519.572 91.879 486.516 45.831 488.015 43.5013C489.515 41.1717 483.438 24.3123 483.078 24.2522C482.718 24.1921 480.907 10.6235 478.745 10.2631C476.583 9.90271 478.21 17.9129 478.512 20.5429C478.754 22.6469 477.933 22.5347 477.493 22.2155C475.548 16.8548 471.405 5.87018 470.394 4.8173C469.131 3.5012 468.353 3.73999 467.873 4.39703C467.394 5.05408 472.147 18.7447 472.388 19.5218C472.628 20.299 471.909 22.3902 471.008 21.1344C470.106 19.8785 462.287 0.148904 460.305 0.924064C458.323 1.69922 465.122 18.6791 466.144 21.4291C466.962 23.6291 466.166 24.258 465.666 24.2975C462.779 17.1828 456.453 3.59852 454.245 6.17864C451.486 9.40379 463.028 29.0169 464.411 31.8271C465.517 34.0753 465.274 36.2704 465.015 37.087C462.37 33.698 456.794 27.3143 455.642 28.8912C454.203 30.8623 462.074 39.1764 464.058 42.8238C465.645 45.7418 473.289 48.9078 476.912 50.126C480.999 56.7038 499.944 100.768 500.668 105.311Z" fill="#F1AF92"/>
<path fill-rule="evenodd" clip-rule="evenodd" d="M371.171 70.2075L370.139 56.7689C369.144 50.2306 373.022 37.3283 396.488 38.0257C419.954 38.7231 423.501 50.8118 422.341 56.7689C422.518 60.0349 422.232 64.5111 421.736 69.3459C422.297 68.4602 423.377 67.7133 425.273 68.1057C428.424 68.7578 428.062 72.7655 427.895 74.6127C427.867 74.9193 427.845 75.1664 427.845 75.3287C427.845 75.3766 427.846 75.438 427.846 75.5116V75.512C427.864 77.1911 427.95 85.2449 421.967 85.9732C420.924 86.1001 420.205 85.7435 419.736 85.0513C419.657 85.6069 419.58 86.1547 419.504 86.6929L419.504 86.6931L419.503 86.6933C419.114 89.4397 418.76 91.9401 418.499 93.9985C417.008 105.768 407.923 112.999 393.008 112.999C381.076 112.999 373.854 100.51 372.999 93.9985L372.445 86.782C372.06 86.97 371.593 87.0414 371.033 86.9732C365.051 86.2449 365.136 78.1911 365.154 76.512C365.154 76.4382 365.155 76.3767 365.155 76.3287C365.155 76.1664 365.133 75.9193 365.105 75.6127C364.938 73.7655 364.576 69.7578 367.727 69.1057C369.523 68.7339 370.587 69.3848 371.171 70.2075Z" fill="#F1AF92"/>
<path d="M380.931 30.2094C396.966 20.9938 408.993 29.0279 413.002 34.1969C417.308 31.5385 426.632 30.3865 429.483 47.0454C433.047 67.869 430.374 70.9704 421.02 70.9704C413.537 70.9704 407.579 58.0643 405.5 49.4985C390.801 48.6124 388.949 58.5648 388.503 62.5523C388.058 66.5398 373.359 71.4134 368.013 70.9704C362.668 70.5273 360.886 66.0968 362.668 54.1343C364.45 42.1718 360.886 41.7288 380.931 30.2094Z" fill="#41231F"/>
<rect x="381" y="70.9985" width="4" height="7" rx="2" fill="#41231F"/>
<rect x="408" y="70.9985" width="4" height="7" rx="2" fill="#41231F"/>
<rect x="375" y="63.9985" width="16" height="3" rx="1.5" fill="#41231F"/>
<rect x="404" y="63.9985" width="16" height="3" rx="1.5" fill="#41231F"/>
<path d="M396.499 74.9985C393.166 80.3319 387.799 90.9985 392.999 90.9985C398.199 90.9985 398.166 89.9985 397.5 89.4985" stroke="#B9846D"/>
<path d="M385 97.4985C389.167 100.832 399.2 105.499 406 97.4985" stroke="#C47756"/>
<path d="M398.125 144.933C383.247 144.933 378.798 132.863 378.433 126.828C369.682 126.828 349.99 132.621 341.238 135.518C327.259 144.812 298.863 165.717 297.113 174.987C295.363 184.257 314.374 202.989 324.098 211.197L341.238 200.334C342.988 215.976 333.458 265.512 328.474 288.324C351.229 316.712 419.641 300.152 451.002 288.324V180.78C470.086 170.521 508.4 148.988 508.984 144.933C509.567 140.877 494.397 118.62 486.739 107.999L445.167 126.828H414.535C415.265 132.863 413.004 144.933 398.125 144.933Z" fill="#524A55"/>
<path d="M271.952 228.544L300.336 185.999C307.978 193.514 322.606 208.689 319.986 209.271C317.366 209.853 305.794 227.211 300.336 235.817C300.336 249.199 326.779 286.241 340 303.089L329.447 317.999C315.619 298.605 285.926 257.999 277.775 250.726C269.624 243.453 270.497 232.908 271.952 228.544Z" fill="#F1AF92"/>
<path d="M341.5 299.499C338.333 305.499 331.5 317.899 329.5 319.499" stroke="#2A5A64" stroke-opacity="0.4"/>
<path d="M433.5 296.999C435.833 304.165 441.3 318.799 444.5 319.999" stroke="#2A5A64" stroke-opacity="0.4"/>
<path d="M387.5 303.999C389.833 310.832 393.1 330.299 387.5 353.499" stroke="#2A5A64" stroke-opacity="0.4"/>
<path d="M396 303.499C398 310.999 400.4 330.999 398 334.999L391 337.499" stroke="#607C81"/>
<path d="M341.5 211.999H451V236.999H338L341.5 211.999Z" fill="#ED4B34"/>
<path d="M336.5 246.999H451V257.999H334.5L336.5 246.999Z" fill="#ED4B34"/>
<path d="M356.99 608.999L343.919 612.499C337 613.499 272.999 620.499 288.001 634.499H359.99L356.99 608.999Z" fill="#434445"/>
<path d="M409 608.999L422.071 612.499C428.99 613.499 492.991 620.499 477.99 634.499H406L409 608.999Z" fill="#434445"/>
<path d="M209.998 303H231.729C233.202 304.816 232.343 355.971 231.729 381.321V393.807C234.307 396.078 232.097 410.834 232.466 416.509C232.76 421.05 231.361 420.419 230.624 419.536C230.747 420.167 230.919 421.806 230.624 423.32C230.329 424.833 229.519 423.95 229.151 423.32C229.151 425.212 228.782 425.59 228.046 425.968C227.456 426.271 227.309 424.329 227.309 423.32C226.425 425.439 225.713 422.941 225.468 421.428C225.468 420.167 225.32 417.871 224.731 418.779C224.142 419.687 223.749 419.158 223.626 418.779C223.503 416.005 223.331 410.077 223.626 408.564C223.921 407.05 223.258 405.411 222.889 404.78C222.644 404.402 222.153 404.099 222.153 405.915C222.153 407.731 221.17 409.951 220.679 410.834C220.188 410.834 219.059 410.228 218.469 407.807C217.88 405.385 219.697 389.645 220.679 382.078L209.998 303Z" fill="#F9B090"/>
<path d="M31.5663 234.793L58.9258 272.462C76.3239 272.83 74.3352 263.3 71.1661 258.489C61.1569 247.639 40.9736 225.676 40.3132 224.627C39.4877 223.316 40.4955 216.005 40.532 214.28C40.5684 212.556 33.1755 199.03 29.8098 196.802C27.1172 195.02 26.97 196.598 27.2331 197.61C28.8932 199.802 32.3732 204.706 33.0114 206.79C33.6497 208.873 32.1221 208.496 31.2784 208.047C25.5662 202.463 13.298 190.846 9.92316 189.05C6.54828 187.253 6.78698 189.415 7.32818 190.72C11.3773 194.256 19.7204 201.85 20.7 203.941C21.6797 206.032 19.947 205.938 18.9582 205.63C14.9242 201.375 6.25925 192.854 3.87153 192.803C1.48381 192.753 1.70914 194.195 2.12028 194.923C6.86783 199.048 16.6115 207.65 17.6057 209.051C18.5999 210.453 17.1428 210.767 16.29 210.749C12.3709 207.791 4.44918 201.786 4.11534 201.434C3.69804 200.994 2.84548 200.976 1.98352 201.389C1.29396 201.72 1.66582 202.964 1.93794 203.545C6.55256 207.236 15.9469 214.882 16.6073 215.931C17.2677 216.98 16.2896 217.506 15.718 217.637C12.7695 215.85 6.53331 212.181 5.17606 211.808C3.47951 211.34 3.46128 212.203 3.43393 213.496C3.41205 214.531 13.519 220.754 18.5753 223.736C20.5127 228.952 28.0432 233.281 31.5663 234.793Z" fill="#F9B090"/>
<path d="M101.998 646.644L102.798 625H125.998V644.624C119.998 663.264 106.398 658.239 101.998 646.644Z" fill="#F1AF92"/>
<path d="M198.998 646.644L198.198 625H174.998V644.624C180.998 663.264 194.598 658.239 198.998 646.644Z" fill="#F1AF92"/>
<path d="M205.473 314L108.312 326.646C108.312 326.646 104.491 357.621 104.491 365.684C98.4461 380.273 99.566 549.669 101.715 631.702C115.549 631.702 124.363 634 128.876 634C134.517 634 153.339 417.399 153.339 412.009C153.339 401.031 154.345 403.812 155.151 404.196C160.12 473.687 170.754 631.702 174.622 631.702H199.987C211.591 622.18 210.308 403.2 205.473 314Z" fill="#524A55"/>
<path d="M127.251 636L115.281 639.294C108.946 640.235 50.3399 646.824 64.0768 660H129.998L127.251 636Z" fill="#41231F"/>
<path d="M173.786 636L185.931 639.294C192.36 640.235 251.828 646.824 237.889 660H170.998L173.786 636Z" fill="#41231F"/>
<path d="M182.97 120.806C181.644 99.631 168.057 94.3373 161.429 94.8888C163.639 92.6829 158.839 85.5143 156.998 80C175.556 81.3234 193.104 89.9258 196.777 103.16C202.287 123.012 202.521 162.936 196.777 172.641C191.033 182.346 172.292 176.685 163.639 172.641L161.429 166.575C169.162 160.142 184.295 141.981 182.97 120.806Z" fill="#2C2C2C"/>
<path fill-rule="evenodd" clip-rule="evenodd" d="M125.923 120.856C126.704 116.252 127.618 112.044 128.38 109.009C133.008 101.945 144.818 87.7163 155.036 87.3127C165.254 86.909 175.179 97.563 180.917 104.963C182.148 107.293 185.22 113.52 187.488 121.631C188.505 120.556 189.942 119.884 191.816 120.59C195.568 122.004 194.52 131.559 194.13 135.112L194.13 135.112C194.063 135.725 194.016 136.159 194.016 136.342C194.016 137.452 192.701 141.866 190.071 143.095C190.056 143.338 190.04 143.58 190.022 143.823C188.356 166.023 166.143 173.087 155.036 173.087C143.929 173.087 130.046 158.96 125.603 148.364C125.009 146.947 124.624 145.172 124.406 143.154C121.688 142.014 120.329 137.471 120.329 136.342C120.329 136.159 120.282 135.725 120.214 135.112C119.825 131.559 118.777 122.004 122.529 120.59C123.888 120.078 125.017 120.29 125.923 120.856Z" fill="#F9B090"/>
<path d="M151.581 79.0532C161.669 78.1749 173.863 88.3849 172.95 94.4234C165.932 94.4234 152.847 104.487 149.375 106.5C122.511 114.734 137.875 167.983 134.585 176.766C131.954 183.792 121.793 182.255 117.042 180.609C95.1118 96.6194 138.971 80.1511 151.581 79.0532Z" fill="#2C2C2C"/>
<rect x="141.998" y="128" width="4" height="7" rx="2" fill="#2C2C2C"/>
<rect x="168.998" y="128" width="5" height="7" rx="2.5" fill="#2C2C2C"/>
<rect x="133.998" y="117" width="17" height="3" rx="1.5" fill="#2C2C2C"/>
<rect x="164.998" y="117" width="16" height="3" rx="1.5" fill="#2C2C2C"/>
<path d="M158.998 136C161.262 140.169 164.431 148.402 158.998 147.985" stroke="#C67C6B"/>
<path d="M140.998 191.509L151.248 168.224C156.015 167.3 165.548 166.007 165.548 168.224C165.548 170.442 170.515 184.671 173.998 191.509L165.548 222H151.248L140.998 191.509Z" fill="#F9B090"/>
<path d="M147.998 155C152.346 158.773 163.433 164.055 172.998 155" stroke="#C67C6B"/>
<path d="M153.361 215.204C152.328 211.101 144.04 192.692 140.025 184C115.074 189.129 111.632 198.961 103.889 202.381C96.1456 205.8 87.9716 272.484 87.9716 270.774C87.9716 269.064 72.0546 250.256 73.3452 255.385C74.3777 259.489 62.8773 270.204 56.998 275.048C65.1716 284.737 82.8093 304.799 87.9716 307.535C93.1339 310.271 100.734 308.675 103.889 307.535C101.738 311.81 101.495 326.077 108.378 334.199C113.884 340.696 181.323 339.31 209.285 337.457V319.932L234.666 316.939C241.979 277.186 217.028 201.953 211.866 195.969C206.704 189.984 180.032 184 177.021 184C174.01 184 154.651 220.334 153.361 215.204Z" fill="#FEBE02"/>
<path d="M104.998 307C111.351 292.85 120.88 255.299 122.998 227" stroke="#FEA802"/>
<path d="M198.998 228C202.674 242.29 209.805 276.696 208.923 300" stroke="#FEA802"/>
<path d="M192.998 340C193.165 349.167 195.398 368 202.998 370" stroke="#373438"/>
<path d="M122.998 339.5C122.165 348.167 113.598 368.1 105.998 368.5" stroke="#373438"/>
<path d="M154.998 340C156.507 357.971 158.62 395.53 154.998 402" stroke="#373438"/>
</svg>
