<svg width="44" height="35" viewBox="0 0 44 35" fill="none" xmlns="http://www.w3.org/2000/svg">
<path id="sm-plane2" d="M21.2607 19.0285C21.5889 19.608 30.3228 20.4723 34.6487 20.8319L38.5758 27.2871L40.929 27.7182L39.7048 19.3774L43.7105 13.7263L41.3573 13.2952L35.3129 17.4906C33.3065 16.4304 25.7315 14.9416 22.1948 14.3297L31.3701 1.07628L26.9847 0.272815L20.225 6.39337L15.7325 5.57031C14.8768 5.41353 14.3036 6.06607 14.1376 6.90141C14.0047 7.56968 14.758 8.24158 15.1513 8.49399L16.9697 8.82714L12.2088 13.2577L3.00999 11.5724C2.11171 11.4439 0.409313 11.94 0.262398 13.1252C0.115482 14.3104 1.13667 15.2333 2.2212 15.5402L12.0618 17.3431L14.8299 22.9366C14.4447 22.83 13.4132 22.5905 12.3698 22.4859C11.0655 22.3552 11.1309 22.5836 10.8579 23.3994C10.6395 24.052 11.415 24.8722 11.8301 25.2008L16.3225 26.0238L20.3215 33.7908L24.707 34.5943C23.4214 29.1642 20.9325 18.4489 21.2607 19.0285Z" fill="#3ED4DF"/>
</svg>
