<svg width="656" height="561" viewBox="0 0 656 561" fill="none" xmlns="http://www.w3.org/2000/svg">
<g id="letter-2">
<g id="letter2">
<path id="Polygon-1" d="M353.887 14.3998C338.662 5.49947 319.827 5.46819 304.572 14.3178L0.000138768 191L656 191L353.887 14.3998Z" fill="#819BD4"/>
<path id="Polygon-2" d="M351.869 364.147C337.886 372.321 320.589 372.349 306.579 364.222L14.8671 195L641.231 195L351.869 364.147Z" fill="#7286B4" stroke="#819BD4" stroke-width="8"/>
<g id="flight ticket">
<rect id="Rectangle 11" x="54.7903" y="216" width="568" height="255" rx="10" fill="white"/>
<path id="Rectangle 12" d="M54.7903 226C54.7903 220.477 59.2674 216 64.7903 216H612.79C618.313 216 622.79 220.477 622.79 226V264H54.7903V226Z" fill="#1795FF"/>
<path id="AIR TICKET" d="M80.3743 231.56H82.9903L87.1423 251H84.5743L83.6863 246.104H79.7263L78.7903 251H76.2463L80.3743 231.56ZM83.3263 244.16L81.6943 235.4L80.0863 244.16H83.3263ZM89.2588 231.56H91.9228V251H89.2588V231.56ZM95.0679 231.56H98.9799C100.948 231.56 102.388 231.968 103.3 232.784C104.228 233.584 104.692 234.896 104.692 236.72C104.692 239.216 103.892 240.728 102.292 241.256L105.052 251H102.436L99.8919 241.88H97.7799V251H95.0679V231.56ZM98.8119 239.936C99.9799 239.936 100.812 239.704 101.308 239.24C101.82 238.776 102.076 237.936 102.076 236.72C102.076 235.92 101.988 235.296 101.812 234.848C101.636 234.384 101.324 234.048 100.876 233.84C100.428 233.616 99.7959 233.504 98.9799 233.504H97.7799V239.936H98.8119ZM115.134 233.576H111.846V231.56H121.038V233.576H117.846V251H115.134V233.576ZM123.056 231.56H125.72V251H123.056V231.56ZM133.737 251.216C131.817 251.216 130.465 250.648 129.681 249.512C128.897 248.36 128.505 246.776 128.505 244.76V237.896C128.505 235.768 128.889 234.152 129.657 233.048C130.425 231.944 131.785 231.392 133.737 231.392C135.481 231.392 136.729 231.864 137.481 232.808C138.249 233.752 138.633 235.144 138.633 236.984V238.52H136.065V237.152C136.065 236.256 136.025 235.568 135.945 235.088C135.865 234.608 135.657 234.224 135.321 233.936C135.001 233.648 134.481 233.504 133.761 233.504C133.025 233.504 132.473 233.664 132.105 233.984C131.753 234.288 131.521 234.72 131.409 235.28C131.297 235.824 131.241 236.56 131.241 237.488V245.192C131.241 246.184 131.321 246.96 131.481 247.52C131.641 248.08 131.897 248.48 132.249 248.72C132.617 248.96 133.121 249.08 133.761 249.08C134.449 249.08 134.961 248.928 135.297 248.624C135.633 248.32 135.841 247.904 135.921 247.376C136.017 246.848 136.065 246.128 136.065 245.216V243.776H138.633V245.216C138.633 247.152 138.265 248.64 137.529 249.68C136.809 250.704 135.545 251.216 133.737 251.216ZM141.216 231.56H143.928V240.728L148.392 231.56H150.912L147.072 240.128L151.536 251H148.896L145.176 241.88L143.928 244.136V251H141.216V231.56ZM153.099 231.56H160.635V233.576H155.811V240.008H159.723V241.928H155.811V249.056H160.683V251H153.099V231.56ZM165.009 233.576H161.721V231.56H170.913V233.576H167.721V251H165.009V233.576Z" fill="white"/>
<path id="ICN" d="M110.414 300.24H121.07V378H110.414V300.24ZM153.139 378.864C145.459 378.864 140.051 376.592 136.915 372.048C133.779 367.44 132.211 361.104 132.211 353.04V325.584C132.211 317.072 133.747 310.608 136.819 306.192C139.891 301.776 145.331 299.568 153.139 299.568C160.115 299.568 165.107 301.456 168.115 305.232C171.187 309.008 172.723 314.576 172.723 321.936V328.08H162.451V322.608C162.451 319.024 162.291 316.272 161.971 314.352C161.651 312.432 160.819 310.896 159.475 309.744C158.195 308.592 156.115 308.016 153.235 308.016C150.291 308.016 148.083 308.656 146.611 309.936C145.203 311.152 144.275 312.88 143.827 315.12C143.379 317.296 143.155 320.24 143.155 323.952V354.768C143.155 358.736 143.475 361.84 144.115 364.08C144.755 366.32 145.779 367.92 147.187 368.88C148.659 369.84 150.675 370.32 153.235 370.32C155.987 370.32 158.035 369.712 159.379 368.496C160.723 367.28 161.555 365.616 161.875 363.504C162.259 361.392 162.451 358.512 162.451 354.864V349.104H172.723V354.864C172.723 362.608 171.251 368.56 168.307 372.72C165.427 376.816 160.371 378.864 153.139 378.864ZM183.057 300.24H190.449L212.529 351.888V300.24H221.553V378H214.641L192.273 324.912V378H183.057V300.24Z" fill="#4D4D4D"/>
<path id="SEA" d="M330.174 378.864C323.646 378.864 318.654 376.848 315.198 372.816C311.806 368.784 309.918 363.248 309.534 356.208L319.134 353.616C319.454 358.608 320.414 362.64 322.014 365.712C323.678 368.784 326.398 370.32 330.174 370.32C332.99 370.32 335.102 369.552 336.51 368.016C337.982 366.416 338.718 364.144 338.718 361.2C338.718 358 338.046 355.344 336.702 353.232C335.358 351.12 333.214 348.784 330.27 346.224L317.214 334.704C314.59 332.4 312.67 329.936 311.454 327.312C310.302 324.624 309.726 321.36 309.726 317.52C309.726 311.824 311.358 307.408 314.622 304.272C317.886 301.136 322.334 299.568 327.966 299.568C334.11 299.568 338.75 301.2 341.886 304.464C345.022 307.728 346.91 312.784 347.55 319.632L338.334 322.128C338.014 317.584 337.118 314.096 335.646 311.664C334.238 309.168 331.678 307.92 327.966 307.92C325.214 307.92 323.102 308.656 321.63 310.128C320.158 311.536 319.422 313.648 319.422 316.464C319.422 318.768 319.806 320.72 320.574 322.32C321.342 323.856 322.654 325.424 324.51 327.024L337.662 338.544C341.054 341.552 343.742 344.816 345.726 348.336C347.774 351.856 348.798 355.856 348.798 360.336C348.798 366.032 347.07 370.544 343.614 373.872C340.158 377.2 335.678 378.864 330.174 378.864ZM357.213 300.24H387.357V308.304H368.061V334.032H383.709V341.712H368.061V370.224H387.549V378H357.213V300.24ZM408.595 300.24H419.059L435.667 378H425.395L421.843 358.416H406.003L402.259 378H392.083L408.595 300.24ZM420.403 350.64L413.875 315.6L407.443 350.64H420.403Z" fill="#4D4D4D"/>
<line id="Line 4" x1="474.79" y1="216" x2="474.79" y2="471" stroke="#CCCCCC" stroke-width="2" stroke-dasharray="3 2"/>
<path id="PASSENGER" d="M106.672 411.66H109.486C110.466 411.66 111.176 411.926 111.614 412.458C112.062 412.99 112.286 413.769 112.286 414.796C112.286 415.72 112.048 416.439 111.572 416.952C111.096 417.465 110.406 417.722 109.5 417.722H108.254V423H106.672V411.66ZM108.982 416.588C109.449 416.588 109.808 416.537 110.06 416.434C110.322 416.331 110.508 416.154 110.62 415.902C110.732 415.65 110.788 415.286 110.788 414.81C110.788 414.231 110.746 413.807 110.662 413.536C110.578 413.265 110.41 413.074 110.158 412.962C109.916 412.85 109.528 412.794 108.996 412.794H108.254V416.588H108.982ZM114.658 411.66H116.184L118.606 423H117.108L116.59 420.144H114.28L113.734 423H112.25L114.658 411.66ZM116.38 419.01L115.428 413.9L114.49 419.01H116.38ZM122.43 423.126C121.478 423.126 120.75 422.832 120.246 422.244C119.752 421.656 119.476 420.849 119.42 419.822L120.82 419.444C120.867 420.172 121.007 420.76 121.24 421.208C121.483 421.656 121.88 421.88 122.43 421.88C122.841 421.88 123.149 421.768 123.354 421.544C123.569 421.311 123.676 420.979 123.676 420.55C123.676 420.083 123.578 419.696 123.382 419.388C123.186 419.08 122.874 418.739 122.444 418.366L120.54 416.686C120.158 416.35 119.878 415.991 119.7 415.608C119.532 415.216 119.448 414.74 119.448 414.18C119.448 413.349 119.686 412.705 120.162 412.248C120.638 411.791 121.287 411.562 122.108 411.562C123.004 411.562 123.681 411.8 124.138 412.276C124.596 412.752 124.871 413.489 124.964 414.488L123.62 414.852C123.574 414.189 123.443 413.681 123.228 413.326C123.023 412.962 122.65 412.78 122.108 412.78C121.707 412.78 121.399 412.887 121.184 413.102C120.97 413.307 120.862 413.615 120.862 414.026C120.862 414.362 120.918 414.647 121.03 414.88C121.142 415.104 121.334 415.333 121.604 415.566L123.522 417.246C124.017 417.685 124.409 418.161 124.698 418.674C124.997 419.187 125.146 419.771 125.146 420.424C125.146 421.255 124.894 421.913 124.39 422.398C123.886 422.883 123.233 423.126 122.43 423.126ZM129.047 423.126C128.095 423.126 127.367 422.832 126.863 422.244C126.369 421.656 126.093 420.849 126.037 419.822L127.437 419.444C127.484 420.172 127.624 420.76 127.857 421.208C128.1 421.656 128.497 421.88 129.047 421.88C129.458 421.88 129.766 421.768 129.971 421.544C130.186 421.311 130.293 420.979 130.293 420.55C130.293 420.083 130.195 419.696 129.999 419.388C129.803 419.08 129.491 418.739 129.061 418.366L127.157 416.686C126.775 416.35 126.495 415.991 126.317 415.608C126.149 415.216 126.065 414.74 126.065 414.18C126.065 413.349 126.303 412.705 126.779 412.248C127.255 411.791 127.904 411.562 128.725 411.562C129.621 411.562 130.298 411.8 130.755 412.276C131.213 412.752 131.488 413.489 131.581 414.488L130.237 414.852C130.191 414.189 130.06 413.681 129.845 413.326C129.64 412.962 129.267 412.78 128.725 412.78C128.324 412.78 128.016 412.887 127.801 413.102C127.587 413.307 127.479 413.615 127.479 414.026C127.479 414.362 127.535 414.647 127.647 414.88C127.759 415.104 127.951 415.333 128.221 415.566L130.139 417.246C130.634 417.685 131.026 418.161 131.315 418.674C131.614 419.187 131.763 419.771 131.763 420.424C131.763 421.255 131.511 421.913 131.007 422.398C130.503 422.883 129.85 423.126 129.047 423.126ZM132.991 411.66H137.387V412.836H134.573V416.588H136.855V417.708H134.573V421.866H137.415V423H132.991V411.66ZM138.692 411.66H139.77L142.99 419.192V411.66H144.306V423H143.298L140.036 415.258V423H138.692V411.66ZM148.79 423.14C147.764 423.14 147.022 422.818 146.564 422.174C146.107 421.521 145.878 420.555 145.878 419.276V415.482C145.878 414.605 145.967 413.886 146.144 413.326C146.331 412.757 146.644 412.323 147.082 412.024C147.53 411.716 148.142 411.562 148.916 411.562C149.962 411.562 150.713 411.828 151.17 412.36C151.637 412.892 151.87 413.727 151.87 414.866V415.286H150.386V414.936C150.386 414.395 150.354 413.979 150.288 413.69C150.223 413.391 150.083 413.167 149.868 413.018C149.663 412.869 149.355 412.794 148.944 412.794C148.506 412.794 148.179 412.897 147.964 413.102C147.75 413.298 147.61 413.564 147.544 413.9C147.488 414.236 147.46 414.684 147.46 415.244V419.444C147.46 420.312 147.563 420.937 147.768 421.32C147.983 421.693 148.389 421.88 148.986 421.88C149.574 421.88 149.976 421.675 150.19 421.264C150.414 420.853 150.526 420.195 150.526 419.29V418.506H149.084V417.386H151.954V423H150.96L150.806 421.698C150.452 422.659 149.78 423.14 148.79 423.14ZM153.58 411.66H157.976V412.836H155.162V416.588H157.444V417.708H155.162V421.866H158.004V423H153.58V411.66ZM159.282 411.66H161.564C162.712 411.66 163.552 411.898 164.084 412.374C164.625 412.841 164.896 413.606 164.896 414.67C164.896 416.126 164.429 417.008 163.496 417.316L165.106 423H163.58L162.096 417.68H160.864V423H159.282V411.66ZM161.466 416.546C162.147 416.546 162.632 416.411 162.922 416.14C163.22 415.869 163.37 415.379 163.37 414.67C163.37 414.203 163.318 413.839 163.216 413.578C163.113 413.307 162.931 413.111 162.67 412.99C162.408 412.859 162.04 412.794 161.564 412.794H160.864V416.546H161.466Z" fill="#1794FB"/>
<path id="GATE" d="M193.374 423.14C192.348 423.14 191.606 422.818 191.148 422.174C190.691 421.521 190.462 420.555 190.462 419.276V415.482C190.462 414.605 190.551 413.886 190.728 413.326C190.915 412.757 191.228 412.323 191.666 412.024C192.114 411.716 192.726 411.562 193.5 411.562C194.546 411.562 195.297 411.828 195.754 412.36C196.221 412.892 196.454 413.727 196.454 414.866V415.286H194.97V414.936C194.97 414.395 194.938 413.979 194.872 413.69C194.807 413.391 194.667 413.167 194.452 413.018C194.247 412.869 193.939 412.794 193.528 412.794C193.09 412.794 192.763 412.897 192.548 413.102C192.334 413.298 192.194 413.564 192.128 413.9C192.072 414.236 192.044 414.684 192.044 415.244V419.444C192.044 420.312 192.147 420.937 192.352 421.32C192.567 421.693 192.973 421.88 193.57 421.88C194.158 421.88 194.56 421.675 194.774 421.264C194.998 420.853 195.11 420.195 195.11 419.29V418.506H193.668V417.386H196.538V423H195.544L195.39 421.698C195.036 422.659 194.364 423.14 193.374 423.14ZM199.956 411.66H201.482L203.904 423H202.406L201.888 420.144H199.578L199.032 423H197.548L199.956 411.66ZM201.678 419.01L200.726 413.9L199.788 419.01H201.678ZM205.85 412.836H203.932V411.66H209.294V412.836H207.432V423H205.85V412.836ZM210.387 411.66H214.783V412.836H211.969V416.588H214.251V417.708H211.969V421.866H214.811V423H210.387V411.66Z" fill="#1794FB"/>
<path id="GATE_2" d="M507.93 308.416C507.93 309.443 507.608 310.185 506.964 310.642C506.311 311.099 505.345 311.328 504.066 311.328L500.272 311.328C499.395 311.328 498.676 311.239 498.116 311.062C497.547 310.875 497.113 310.563 496.814 310.124C496.506 309.676 496.352 309.065 496.352 308.29C496.352 307.245 496.618 306.493 497.15 306.036C497.682 305.569 498.518 305.336 499.656 305.336L500.076 305.336L500.076 306.82L499.726 306.82C499.185 306.82 498.77 306.853 498.48 306.918C498.182 306.983 497.958 307.123 497.808 307.338C497.659 307.543 497.584 307.851 497.584 308.262C497.584 308.701 497.687 309.027 497.892 309.242C498.088 309.457 498.354 309.597 498.69 309.662C499.026 309.718 499.474 309.746 500.034 309.746L504.234 309.746C505.102 309.746 505.728 309.643 506.11 309.438C506.484 309.223 506.67 308.817 506.67 308.22C506.67 307.632 506.465 307.231 506.054 307.016C505.644 306.792 504.986 306.68 504.08 306.68L503.296 306.68L503.296 308.122L502.176 308.122L502.176 305.252L507.79 305.252L507.79 306.246L506.488 306.4C507.45 306.755 507.93 307.427 507.93 308.416ZM496.45 301.834L496.45 300.308L507.79 297.886L507.79 299.384L504.934 299.902L504.934 302.212L507.79 302.758L507.79 304.242L496.45 301.834ZM503.8 300.112L498.69 301.064L503.8 302.002L503.8 300.112ZM497.626 295.94L497.626 297.858L496.45 297.858L496.45 292.496L497.626 292.496L497.626 294.358L507.79 294.358L507.79 295.94L497.626 295.94ZM496.45 291.403L496.45 287.007L497.626 287.007L497.626 289.821L501.378 289.821L501.378 287.539L502.498 287.539L502.498 289.821L506.656 289.821L506.656 286.979L507.79 286.979L507.79 291.403L496.45 291.403Z" fill="#1794FB"/>
<path id="DEPARTURE" d="M240.672 411.66H243.136C244.359 411.66 245.222 411.94 245.726 412.5C246.24 413.06 246.496 413.933 246.496 415.118V419.29C246.496 420.541 246.244 421.474 245.74 422.09C245.246 422.697 244.42 423 243.262 423H240.672V411.66ZM243.15 421.866C243.701 421.866 244.098 421.759 244.34 421.544C244.592 421.329 244.746 421.04 244.802 420.676C244.868 420.303 244.9 419.743 244.9 418.996V415.314C244.9 414.67 244.858 414.18 244.774 413.844C244.7 413.499 244.536 413.247 244.284 413.088C244.032 412.92 243.64 412.836 243.108 412.836H242.254V421.866H243.15ZM248.055 411.66H252.451V412.836H249.637V416.588H251.919V417.708H249.637V421.866H252.479V423H248.055V411.66ZM253.756 411.66H256.57C257.55 411.66 258.26 411.926 258.698 412.458C259.146 412.99 259.37 413.769 259.37 414.796C259.37 415.72 259.132 416.439 258.656 416.952C258.18 417.465 257.49 417.722 256.584 417.722H255.338V423H253.756V411.66ZM256.066 416.588C256.533 416.588 256.892 416.537 257.144 416.434C257.406 416.331 257.592 416.154 257.704 415.902C257.816 415.65 257.872 415.286 257.872 414.81C257.872 414.231 257.83 413.807 257.746 413.536C257.662 413.265 257.494 413.074 257.242 412.962C257 412.85 256.612 412.794 256.08 412.794H255.338V416.588H256.066ZM261.742 411.66H263.268L265.69 423H264.192L263.674 420.144H261.364L260.818 423H259.334L261.742 411.66ZM263.464 419.01L262.512 413.9L261.574 419.01H263.464ZM266.84 411.66H269.122C270.27 411.66 271.11 411.898 271.642 412.374C272.184 412.841 272.454 413.606 272.454 414.67C272.454 416.126 271.988 417.008 271.054 417.316L272.664 423H271.138L269.654 417.68H268.422V423H266.84V411.66ZM269.024 416.546C269.706 416.546 270.191 416.411 270.48 416.14C270.779 415.869 270.928 415.379 270.928 414.67C270.928 414.203 270.877 413.839 270.774 413.578C270.672 413.307 270.49 413.111 270.228 412.99C269.967 412.859 269.598 412.794 269.122 412.794H268.422V416.546H269.024ZM275.346 412.836H273.428V411.66H278.79V412.836H276.928V423H275.346V412.836ZM282.809 423.126C282.016 423.126 281.395 422.967 280.947 422.65C280.509 422.333 280.205 421.889 280.037 421.32C279.869 420.751 279.785 420.037 279.785 419.178V411.66H281.297V419.248C281.297 420.107 281.395 420.76 281.591 421.208C281.797 421.656 282.203 421.88 282.809 421.88C283.416 421.88 283.817 421.656 284.013 421.208C284.219 420.76 284.321 420.107 284.321 419.248V411.66H285.819V419.178C285.819 420.037 285.735 420.751 285.567 421.32C285.399 421.889 285.096 422.333 284.657 422.65C284.219 422.967 283.603 423.126 282.809 423.126ZM287.485 411.66H289.767C290.915 411.66 291.755 411.898 292.287 412.374C292.828 412.841 293.099 413.606 293.099 414.67C293.099 416.126 292.632 417.008 291.699 417.316L293.309 423H291.783L290.299 417.68H289.067V423H287.485V411.66ZM289.669 416.546C290.35 416.546 290.835 416.411 291.125 416.14C291.423 415.869 291.573 415.379 291.573 414.67C291.573 414.203 291.521 413.839 291.419 413.578C291.316 413.307 291.134 413.111 290.873 412.99C290.611 412.859 290.243 412.794 289.767 412.794H289.067V416.546H289.669ZM294.745 411.66H299.141V412.836H296.327V416.588H298.609V417.708H296.327V421.866H299.169V423H294.745V411.66Z" fill="#1794FB"/>
<path id="DEPARTURE_2" d="M560.45 374.118L560.45 371.654C560.45 370.431 560.73 369.568 561.29 369.064C561.85 368.551 562.723 368.294 563.908 368.294L568.08 368.294C569.331 368.294 570.264 368.546 570.88 369.05C571.487 369.545 571.79 370.371 571.79 371.528L571.79 374.118L560.45 374.118ZM570.656 371.64C570.656 371.089 570.549 370.693 570.334 370.45C570.12 370.198 569.83 370.044 569.466 369.988C569.093 369.923 568.533 369.89 567.786 369.89L564.104 369.89C563.46 369.89 562.97 369.932 562.634 370.016C562.289 370.091 562.037 370.254 561.878 370.506C561.71 370.758 561.626 371.15 561.626 371.682L561.626 372.536L570.656 372.536L570.656 371.64ZM560.45 366.735L560.45 362.339L561.626 362.339L561.626 365.153L565.378 365.153L565.378 362.871L566.498 362.871L566.498 365.153L570.656 365.153L570.656 362.311L571.79 362.311L571.79 366.735L560.45 366.735ZM560.45 361.034L560.45 358.22C560.45 357.24 560.716 356.531 561.248 356.092C561.78 355.644 562.56 355.42 563.586 355.42C564.51 355.42 565.229 355.658 565.742 356.134C566.256 356.61 566.512 357.301 566.512 358.206L566.512 359.452L571.79 359.452L571.79 361.034L560.45 361.034ZM565.378 358.724C565.378 358.257 565.327 357.898 565.224 357.646C565.122 357.385 564.944 357.198 564.692 357.086C564.44 356.974 564.076 356.918 563.6 356.918C563.022 356.918 562.597 356.96 562.326 357.044C562.056 357.128 561.864 357.296 561.752 357.548C561.64 357.791 561.584 358.178 561.584 358.71L561.584 359.452L565.378 359.452L565.378 358.724ZM560.45 353.049L560.45 351.523L571.79 349.101L571.79 350.599L568.934 351.117L568.934 353.427L571.79 353.973L571.79 355.457L560.45 353.049ZM567.8 351.327L562.69 352.279L567.8 353.217L567.8 351.327ZM560.45 347.95L560.45 345.668C560.45 344.52 560.688 343.68 561.164 343.148C561.631 342.607 562.396 342.336 563.46 342.336C564.916 342.336 565.798 342.803 566.106 343.736L571.79 342.126L571.79 343.652L566.47 345.136L566.47 346.368L571.79 346.368L571.79 347.95L560.45 347.95ZM565.336 345.766C565.336 345.085 565.201 344.599 564.93 344.31C564.66 344.011 564.17 343.862 563.46 343.862C562.994 343.862 562.63 343.913 562.368 344.016C562.098 344.119 561.902 344.301 561.78 344.562C561.65 344.823 561.584 345.192 561.584 345.668L561.584 346.368L565.336 346.368L565.336 345.766ZM561.626 339.444L561.626 341.362L560.45 341.362L560.45 336L561.626 336L561.626 337.862L571.79 337.862L571.79 339.444L561.626 339.444ZM571.916 331.981C571.916 332.774 571.758 333.395 571.44 333.843C571.123 334.282 570.68 334.585 570.11 334.753C569.541 334.921 568.827 335.005 567.968 335.005L560.45 335.005L560.45 333.493L568.038 333.493C568.897 333.493 569.55 333.395 569.998 333.199C570.446 332.994 570.67 332.588 570.67 331.981C570.67 331.374 570.446 330.973 569.998 330.777C569.55 330.572 568.897 330.469 568.038 330.469L560.45 330.469L560.45 328.971L567.968 328.971C568.827 328.971 569.541 329.055 570.11 329.223C570.68 329.391 571.123 329.694 571.44 330.133C571.758 330.572 571.916 331.188 571.916 331.981ZM560.45 327.305L560.45 325.023C560.45 323.875 560.688 323.035 561.164 322.503C561.631 321.962 562.396 321.691 563.46 321.691C564.916 321.691 565.798 322.158 566.106 323.091L571.79 321.481L571.79 323.007L566.47 324.491L566.47 325.723L571.79 325.723L571.79 327.305L560.45 327.305ZM565.336 325.121C565.336 324.44 565.201 323.955 564.93 323.665C564.66 323.367 564.17 323.217 563.46 323.217C562.994 323.217 562.63 323.269 562.368 323.371C562.098 323.474 561.902 323.656 561.78 323.917C561.65 324.179 561.584 324.547 561.584 325.023L561.584 325.723L565.336 325.723L565.336 325.121ZM560.45 320.046L560.45 315.65L561.626 315.65L561.626 318.464L565.378 318.464L565.378 316.182L566.498 316.182L566.498 318.464L570.656 318.464L570.656 315.622L571.79 315.622L571.79 320.046L560.45 320.046Z" fill="#1794FB"/>
<path id="JIHOON MOON" d="M98.8883 443.132C99.3643 443.132 99.7143 443.09 99.9383 443.006C100.172 442.913 100.33 442.749 100.414 442.516C100.498 442.273 100.54 441.905 100.54 441.41V432.66H102.108V441.438C102.108 442.119 102.038 442.665 101.898 443.076C101.758 443.477 101.506 443.776 101.142 443.972C100.788 444.168 100.288 444.266 99.6443 444.266H98.8883V443.132ZM103.967 432.66H105.521V444H103.967V432.66ZM107.356 432.66H108.938V437.56H111.85V432.66H113.432V444H111.85V438.694H108.938V444H107.356V432.66ZM118.102 444.126C116.991 444.126 116.193 443.813 115.708 443.188C115.232 442.553 114.994 441.639 114.994 440.444V436.146C114.994 434.97 115.236 434.079 115.722 433.472C116.207 432.865 117 432.562 118.102 432.562C119.203 432.562 119.992 432.87 120.468 433.486C120.953 434.093 121.196 434.979 121.196 436.146V440.458C121.196 441.634 120.953 442.539 120.468 443.174C119.982 443.809 119.194 444.126 118.102 444.126ZM118.102 442.88C118.69 442.88 119.086 442.707 119.292 442.362C119.497 442.017 119.6 441.494 119.6 440.794V435.824C119.6 435.133 119.497 434.625 119.292 434.298C119.086 433.962 118.69 433.794 118.102 433.794C117.504 433.794 117.103 433.962 116.898 434.298C116.692 434.625 116.59 435.133 116.59 435.824V440.794C116.59 441.494 116.692 442.017 116.898 442.362C117.103 442.707 117.504 442.88 118.102 442.88ZM125.648 444.126C124.538 444.126 123.74 443.813 123.254 443.188C122.778 442.553 122.54 441.639 122.54 440.444V436.146C122.54 434.97 122.783 434.079 123.268 433.472C123.754 432.865 124.547 432.562 125.648 432.562C126.75 432.562 127.538 432.87 128.014 433.486C128.5 434.093 128.742 434.979 128.742 436.146V440.458C128.742 441.634 128.5 442.539 128.014 443.174C127.529 443.809 126.74 444.126 125.648 444.126ZM125.648 442.88C126.236 442.88 126.633 442.707 126.838 442.362C127.044 442.017 127.146 441.494 127.146 440.794V435.824C127.146 435.133 127.044 434.625 126.838 434.298C126.633 433.962 126.236 433.794 125.648 433.794C125.051 433.794 124.65 433.962 124.444 434.298C124.239 434.625 124.136 435.133 124.136 435.824V440.794C124.136 441.494 124.239 442.017 124.444 442.362C124.65 442.707 125.051 442.88 125.648 442.88ZM130.297 432.66H131.375L134.595 440.192V432.66H135.911V444H134.903L131.641 436.258V444H130.297V432.66ZM141.075 432.66H142.629L144.631 441.858L146.647 432.66H148.187L148.397 444H147.123L146.997 435.768L145.079 444H144.183L142.279 435.768L142.153 444H140.865L141.075 432.66ZM153.033 444.126C151.923 444.126 151.125 443.813 150.639 443.188C150.163 442.553 149.925 441.639 149.925 440.444V436.146C149.925 434.97 150.168 434.079 150.653 433.472C151.139 432.865 151.932 432.562 153.033 432.562C154.135 432.562 154.923 432.87 155.399 433.486C155.885 434.093 156.127 434.979 156.127 436.146V440.458C156.127 441.634 155.885 442.539 155.399 443.174C154.914 443.809 154.125 444.126 153.033 444.126ZM153.033 442.88C153.621 442.88 154.018 442.707 154.223 442.362C154.429 442.017 154.531 441.494 154.531 440.794V435.824C154.531 435.133 154.429 434.625 154.223 434.298C154.018 433.962 153.621 433.794 153.033 433.794C152.436 433.794 152.035 433.962 151.829 434.298C151.624 434.625 151.521 435.133 151.521 435.824V440.794C151.521 441.494 151.624 442.017 151.829 442.362C152.035 442.707 152.436 442.88 153.033 442.88ZM160.58 444.126C159.469 444.126 158.671 443.813 158.186 443.188C157.71 442.553 157.472 441.639 157.472 440.444V436.146C157.472 434.97 157.715 434.079 158.2 433.472C158.685 432.865 159.479 432.562 160.58 432.562C161.681 432.562 162.47 432.87 162.946 433.486C163.431 434.093 163.674 434.979 163.674 436.146V440.458C163.674 441.634 163.431 442.539 162.946 443.174C162.461 443.809 161.672 444.126 160.58 444.126ZM160.58 442.88C161.168 442.88 161.565 442.707 161.77 442.362C161.975 442.017 162.078 441.494 162.078 440.794V435.824C162.078 435.133 161.975 434.625 161.77 434.298C161.565 433.962 161.168 433.794 160.58 433.794C159.983 433.794 159.581 433.962 159.376 434.298C159.171 434.625 159.068 435.133 159.068 435.824V440.794C159.068 441.494 159.171 442.017 159.376 442.362C159.581 442.707 159.983 442.88 160.58 442.88ZM165.229 432.66H166.307L169.527 440.192V432.66H170.843V444H169.835L166.573 436.258V444H165.229V432.66Z" fill="black"/>
<path id="PASSENGER_2" d="M497.45 399.145V396.331C497.45 395.351 497.716 394.642 498.248 394.203C498.78 393.755 499.56 393.531 500.586 393.531C501.51 393.531 502.229 393.769 502.742 394.245C503.256 394.721 503.512 395.412 503.512 396.317V397.563H508.79V399.145H497.45ZM502.378 396.835C502.378 396.368 502.327 396.009 502.224 395.757C502.122 395.496 501.944 395.309 501.692 395.197C501.44 395.085 501.076 395.029 500.6 395.029C500.022 395.029 499.597 395.071 499.326 395.155C499.056 395.239 498.864 395.407 498.752 395.659C498.64 395.902 498.584 396.289 498.584 396.821V397.563H502.378V396.835ZM497.45 391.159V389.633L508.79 387.211V388.709L505.934 389.227V391.537L508.79 392.083V393.567L497.45 391.159ZM504.8 389.437L499.69 390.389L504.8 391.327V389.437ZM508.916 383.387C508.916 384.339 508.622 385.067 508.034 385.571C507.446 386.066 506.639 386.341 505.612 386.397L505.234 384.997C505.962 384.95 506.55 384.81 506.998 384.577C507.446 384.334 507.67 383.938 507.67 383.387C507.67 382.976 507.558 382.668 507.334 382.463C507.101 382.248 506.77 382.141 506.34 382.141C505.874 382.141 505.486 382.239 505.178 382.435C504.87 382.631 504.53 382.944 504.156 383.373L502.476 385.277C502.14 385.66 501.781 385.94 501.398 386.117C501.006 386.285 500.53 386.369 499.97 386.369C499.14 386.369 498.496 386.131 498.038 385.655C497.581 385.179 497.352 384.53 497.352 383.709C497.352 382.813 497.59 382.136 498.066 381.679C498.542 381.222 499.28 380.946 500.278 380.853L500.642 382.197C499.98 382.244 499.471 382.374 499.116 382.589C498.752 382.794 498.57 383.168 498.57 383.709C498.57 384.11 498.678 384.418 498.892 384.633C499.098 384.848 499.406 384.955 499.816 384.955C500.152 384.955 500.437 384.899 500.67 384.787C500.894 384.675 501.123 384.484 501.356 384.213L503.036 382.295C503.475 381.8 503.951 381.408 504.464 381.119C504.978 380.82 505.561 380.671 506.214 380.671C507.045 380.671 507.703 380.923 508.188 381.427C508.674 381.931 508.916 382.584 508.916 383.387ZM508.916 376.77C508.916 377.722 508.622 378.45 508.034 378.954C507.446 379.448 506.639 379.724 505.612 379.78L505.234 378.38C505.962 378.333 506.55 378.193 506.998 377.96C507.446 377.717 507.67 377.32 507.67 376.77C507.67 376.359 507.558 376.051 507.334 375.846C507.101 375.631 506.77 375.524 506.34 375.524C505.874 375.524 505.486 375.622 505.178 375.818C504.87 376.014 504.53 376.326 504.156 376.756L502.476 378.66C502.14 379.042 501.781 379.322 501.398 379.5C501.006 379.668 500.53 379.752 499.97 379.752C499.14 379.752 498.496 379.514 498.038 379.038C497.581 378.562 497.352 377.913 497.352 377.092C497.352 376.196 497.59 375.519 498.066 375.062C498.542 374.604 499.28 374.329 500.278 374.236L500.642 375.58C499.98 375.626 499.471 375.757 499.116 375.972C498.752 376.177 498.57 376.55 498.57 377.092C498.57 377.493 498.678 377.801 498.892 378.016C499.098 378.23 499.406 378.338 499.816 378.338C500.152 378.338 500.437 378.282 500.67 378.17C500.894 378.058 501.123 377.866 501.356 377.596L503.036 375.678C503.475 375.183 503.951 374.791 504.464 374.502C504.978 374.203 505.561 374.054 506.214 374.054C507.045 374.054 507.703 374.306 508.188 374.81C508.674 375.314 508.916 375.967 508.916 376.77ZM497.45 372.826V368.43H498.626V371.244H502.378V368.962H503.498V371.244H507.656V368.402H508.79V372.826H497.45ZM497.45 367.125V366.047L504.982 362.827H497.45V361.511H508.79V362.519L501.048 365.781H508.79V367.125H497.45ZM508.93 357.027C508.93 358.054 508.608 358.796 507.964 359.253C507.311 359.71 506.345 359.939 505.066 359.939H501.272C500.395 359.939 499.676 359.85 499.116 359.673C498.547 359.486 498.113 359.174 497.814 358.735C497.506 358.287 497.352 357.676 497.352 356.901C497.352 355.856 497.618 355.104 498.15 354.647C498.682 354.18 499.518 353.947 500.656 353.947H501.076V355.431H500.726C500.185 355.431 499.77 355.464 499.48 355.529C499.182 355.594 498.958 355.734 498.808 355.949C498.659 356.154 498.584 356.462 498.584 356.873C498.584 357.312 498.687 357.638 498.892 357.853C499.088 358.068 499.354 358.208 499.69 358.273C500.026 358.329 500.474 358.357 501.034 358.357H505.234C506.102 358.357 506.728 358.254 507.11 358.049C507.484 357.834 507.67 357.428 507.67 356.831C507.67 356.243 507.465 355.842 507.054 355.627C506.644 355.403 505.986 355.291 505.08 355.291H504.296V356.733H503.176V353.863H508.79V354.857L507.488 355.011C508.45 355.366 508.93 356.038 508.93 357.027ZM497.45 352.237V347.841H498.626V350.655H502.378V348.373H503.498V350.655H507.656V347.813H508.79V352.237H497.45ZM497.45 346.535V344.253C497.45 343.105 497.688 342.265 498.164 341.733C498.631 341.192 499.396 340.921 500.46 340.921C501.916 340.921 502.798 341.388 503.106 342.321L508.79 340.711V342.237L503.47 343.721V344.953H508.79V346.535H497.45ZM502.336 344.351C502.336 343.67 502.201 343.185 501.93 342.895C501.66 342.597 501.17 342.447 500.46 342.447C499.994 342.447 499.63 342.499 499.368 342.601C499.098 342.704 498.902 342.886 498.78 343.147C498.65 343.409 498.584 343.777 498.584 344.253V344.953H502.336V344.351Z" fill="#1794FB"/>
<path id="JIHOON MOON_2" d="M528.877 407.902C528.877 407.426 528.835 407.076 528.751 406.852C528.658 406.619 528.494 406.46 528.261 406.376C528.018 406.292 527.65 406.25 527.155 406.25H518.405V404.682H527.183C527.864 404.682 528.41 404.752 528.821 404.892C529.222 405.032 529.521 405.284 529.717 405.648C529.913 406.003 530.011 406.502 530.011 407.146V407.902H528.877ZM518.405 402.823V401.269H529.745V402.823H518.405ZM518.405 399.434V397.852H523.305V394.94H518.405V393.358H529.745V394.94H524.439V397.852H529.745V399.434H518.405ZM529.871 388.689C529.871 389.799 529.558 390.597 528.933 391.083C528.298 391.559 527.384 391.797 526.189 391.797H521.891C520.715 391.797 519.824 391.554 519.217 391.069C518.61 390.583 518.307 389.79 518.307 388.689C518.307 387.587 518.615 386.799 519.231 386.323C519.838 385.837 520.724 385.595 521.891 385.595H526.203C527.379 385.595 528.284 385.837 528.919 386.323C529.554 386.808 529.871 387.597 529.871 388.689ZM528.625 388.689C528.625 388.101 528.452 387.704 528.107 387.499C527.762 387.293 527.239 387.191 526.539 387.191H521.569C520.878 387.191 520.37 387.293 520.043 387.499C519.707 387.704 519.539 388.101 519.539 388.689C519.539 389.286 519.707 389.687 520.043 389.893C520.37 390.098 520.878 390.201 521.569 390.201H526.539C527.239 390.201 527.762 390.098 528.107 389.893C528.452 389.687 528.625 389.286 528.625 388.689ZM529.871 381.142C529.871 382.253 529.558 383.051 528.933 383.536C528.298 384.012 527.384 384.25 526.189 384.25H521.891C520.715 384.25 519.824 384.007 519.217 383.522C518.61 383.037 518.307 382.243 518.307 381.142C518.307 380.041 518.615 379.252 519.231 378.776C519.838 378.291 520.724 378.048 521.891 378.048H526.203C527.379 378.048 528.284 378.291 528.919 378.776C529.554 379.261 529.871 380.05 529.871 381.142ZM528.625 381.142C528.625 380.554 528.452 380.157 528.107 379.952C527.762 379.747 527.239 379.644 526.539 379.644H521.569C520.878 379.644 520.37 379.747 520.043 379.952C519.707 380.157 519.539 380.554 519.539 381.142C519.539 381.739 519.707 382.141 520.043 382.346C520.37 382.551 520.878 382.654 521.569 382.654H526.539C527.239 382.654 527.762 382.551 528.107 382.346C528.452 382.141 528.625 381.739 528.625 381.142ZM518.405 376.493V375.415L525.937 372.195H518.405V370.879H529.745V371.887L522.003 375.149H529.745V376.493H518.405ZM518.405 365.715V364.161L527.603 362.159L518.405 360.143V358.603L529.745 358.393V359.667L521.513 359.793L529.745 361.711V362.607L521.513 364.511L529.745 364.637V365.925L518.405 365.715ZM529.871 353.757C529.871 354.868 529.558 355.666 528.933 356.151C528.298 356.627 527.384 356.865 526.189 356.865H521.891C520.715 356.865 519.824 356.622 519.217 356.137C518.61 355.652 518.307 354.858 518.307 353.757C518.307 352.656 518.615 351.867 519.231 351.391C519.838 350.906 520.724 350.663 521.891 350.663H526.203C527.379 350.663 528.284 350.906 528.919 351.391C529.554 351.876 529.871 352.665 529.871 353.757ZM528.625 353.757C528.625 353.169 528.452 352.772 528.107 352.567C527.762 352.362 527.239 352.259 526.539 352.259H521.569C520.878 352.259 520.37 352.362 520.043 352.567C519.707 352.772 519.539 353.169 519.539 353.757C519.539 354.354 519.707 354.756 520.043 354.961C520.37 355.166 520.878 355.269 521.569 355.269H526.539C527.239 355.269 527.762 355.166 528.107 354.961C528.452 354.756 528.625 354.354 528.625 353.757ZM529.871 346.21C529.871 347.321 529.558 348.119 528.933 348.604C528.298 349.08 527.384 349.318 526.189 349.318H521.891C520.715 349.318 519.824 349.076 519.217 348.59C518.61 348.105 518.307 347.312 518.307 346.21C518.307 345.109 518.615 344.32 519.231 343.844C519.838 343.359 520.724 343.116 521.891 343.116H526.203C527.379 343.116 528.284 343.359 528.919 343.844C529.554 344.33 529.871 345.118 529.871 346.21ZM528.625 346.21C528.625 345.622 528.452 345.226 528.107 345.02C527.762 344.815 527.239 344.712 526.539 344.712H521.569C520.878 344.712 520.37 344.815 520.043 345.02C519.707 345.226 519.539 345.622 519.539 346.21C519.539 346.808 519.707 347.209 520.043 347.414C520.37 347.62 520.878 347.722 521.569 347.722H526.539C527.239 347.722 527.762 347.62 528.107 347.414C528.452 347.209 528.625 346.808 528.625 346.21ZM518.405 341.561V340.483L525.937 337.263H518.405V335.947H529.745V336.955L522.003 340.217H529.745V341.561H518.405Z" fill="black"/>
<path id="16B" d="M195.184 434.62C195.166 434.648 194.881 434.713 194.33 434.816C193.789 434.919 193.416 434.989 193.21 435.026V433.892C194.349 433.621 195.128 433.211 195.548 432.66H196.682V444H195.184V434.62ZM201.939 444.126C201.006 444.126 200.306 443.785 199.839 443.104C199.382 442.413 199.153 441.513 199.153 440.402V436.58C199.153 435.357 199.368 434.382 199.797 433.654C200.226 432.926 200.94 432.562 201.939 432.562C202.816 432.562 203.493 432.8 203.969 433.276C204.445 433.752 204.692 434.433 204.711 435.32L204.725 435.488H203.213C203.213 434.909 203.12 434.485 202.933 434.214C202.746 433.934 202.415 433.794 201.939 433.794C201.08 433.794 200.651 434.601 200.651 436.216V437.938C200.8 437.695 201.015 437.504 201.295 437.364C201.584 437.224 201.92 437.154 202.303 437.154C203.19 437.154 203.82 437.439 204.193 438.008C204.566 438.568 204.753 439.375 204.753 440.43C204.753 441.541 204.524 442.437 204.067 443.118C203.61 443.79 202.9 444.126 201.939 444.126ZM201.939 442.88C202.406 442.88 202.737 442.689 202.933 442.306C203.138 441.923 203.241 441.419 203.241 440.794C203.241 440.225 203.218 439.772 203.171 439.436C203.124 439.1 203.008 438.825 202.821 438.61C202.634 438.395 202.34 438.288 201.939 438.288C201.65 438.288 201.393 438.363 201.169 438.512C200.954 438.661 200.782 438.843 200.651 439.058V440.752C200.651 441.396 200.749 441.914 200.945 442.306C201.15 442.689 201.482 442.88 201.939 442.88ZM206.264 432.66H208.868C209.895 432.66 210.655 432.893 211.15 433.36C211.645 433.817 211.892 434.531 211.892 435.502C211.892 436.949 211.351 437.747 210.268 437.896C210.94 438.055 211.43 438.372 211.738 438.848C212.046 439.315 212.2 439.954 212.2 440.766C212.2 441.783 211.957 442.577 211.472 443.146C210.996 443.715 210.268 444 209.288 444H206.264V432.66ZM208.784 437.392C209.437 437.392 209.89 437.252 210.142 436.972C210.394 436.683 210.52 436.193 210.52 435.502C210.52 434.998 210.441 434.629 210.282 434.396C210.133 434.153 209.904 433.999 209.596 433.934C209.288 433.869 208.831 433.836 208.224 433.836H207.846V437.392H208.784ZM208.91 442.866C209.377 442.866 209.736 442.796 209.988 442.656C210.249 442.507 210.431 442.283 210.534 441.984C210.637 441.685 210.688 441.279 210.688 440.766C210.688 440.038 210.539 439.497 210.24 439.142C209.941 438.778 209.456 438.596 208.784 438.596H207.846V442.866H208.91Z" fill="black"/>
<path id="16B_2" d="M519.41 306.606C519.438 306.625 519.504 306.909 519.606 307.46C519.709 308.001 519.779 308.375 519.816 308.58L518.682 308.58C518.412 307.441 518.001 306.662 517.45 306.242L517.45 305.108L528.79 305.108L528.79 306.606L519.41 306.606ZM528.916 299.851C528.916 300.785 528.576 301.485 527.894 301.951C527.204 302.409 526.303 302.637 525.192 302.637L521.37 302.637C520.148 302.637 519.172 302.423 518.444 301.993C517.716 301.564 517.352 300.85 517.352 299.851C517.352 298.974 517.59 298.297 518.066 297.821C518.542 297.345 519.224 297.098 520.11 297.079L520.278 297.065L520.278 298.577C519.7 298.577 519.275 298.671 519.004 298.857C518.724 299.044 518.584 299.375 518.584 299.851C518.584 300.71 519.392 301.139 521.006 301.139L522.728 301.139C522.486 300.99 522.294 300.775 522.154 300.495C522.014 300.206 521.944 299.87 521.944 299.487C521.944 298.601 522.229 297.971 522.798 297.597C523.358 297.224 524.166 297.037 525.22 297.037C526.331 297.037 527.227 297.266 527.908 297.723C528.58 298.181 528.916 298.89 528.916 299.851ZM527.67 299.851C527.67 299.385 527.479 299.053 527.096 298.857C526.714 298.652 526.21 298.549 525.584 298.549C525.015 298.549 524.562 298.573 524.226 298.619C523.89 298.666 523.615 298.783 523.4 298.969C523.186 299.156 523.078 299.45 523.078 299.851C523.078 300.141 523.153 300.397 523.302 300.621C523.452 300.836 523.634 301.009 523.848 301.139L525.542 301.139C526.186 301.139 526.704 301.041 527.096 300.845C527.479 300.64 527.67 300.309 527.67 299.851ZM517.45 295.526L517.45 292.922C517.45 291.896 517.684 291.135 518.15 290.64C518.608 290.146 519.322 289.898 520.292 289.898C521.739 289.898 522.537 290.44 522.686 291.522C522.845 290.85 523.162 290.36 523.638 290.052C524.105 289.744 524.744 289.59 525.556 289.59C526.574 289.59 527.367 289.833 527.936 290.318C528.506 290.794 528.79 291.522 528.79 292.502L528.79 295.526L517.45 295.526ZM522.182 293.006C522.182 292.353 522.042 291.9 521.762 291.648C521.473 291.396 520.983 291.27 520.292 291.27C519.788 291.27 519.42 291.35 519.186 291.508C518.944 291.658 518.79 291.886 518.724 292.194C518.659 292.502 518.626 292.96 518.626 293.566L518.626 293.944L522.182 293.944L522.182 293.006ZM527.656 292.88C527.656 292.414 527.586 292.054 527.446 291.802C527.297 291.541 527.073 291.359 526.774 291.256C526.476 291.154 526.07 291.102 525.556 291.102C524.828 291.102 524.287 291.252 523.932 291.55C523.568 291.849 523.386 292.334 523.386 293.006L523.386 293.944L527.656 293.944L527.656 292.88Z" fill="black"/>
<path id="24 DEC 2021" d="M236.364 442.936L239.248 438.442C239.388 438.218 239.482 438.078 239.528 438.022C239.855 437.499 240.093 437.065 240.242 436.72C240.392 436.375 240.466 435.959 240.466 435.474C240.466 434.933 240.378 434.517 240.2 434.228C240.023 433.939 239.734 433.794 239.332 433.794C238.436 433.794 237.988 434.489 237.988 435.88V436.258H236.49V435.866C236.49 434.802 236.71 433.985 237.148 433.416C237.587 432.847 238.292 432.562 239.262 432.562C240.158 432.562 240.835 432.819 241.292 433.332C241.75 433.836 241.978 434.555 241.978 435.488C241.978 435.945 241.922 436.356 241.81 436.72C241.708 437.075 241.582 437.383 241.432 437.644C241.283 437.905 241.05 438.279 240.732 438.764L238.128 442.74H241.712V444H236.364V442.936ZM246.326 440.962H243.036V439.394L245.99 432.66H247.754V439.632H249.028V440.962H247.754V444H246.326V440.962ZM246.326 439.632V434.48L244.478 439.632H246.326ZM253.325 432.66H255.789C257.011 432.66 257.875 432.94 258.379 433.5C258.892 434.06 259.149 434.933 259.149 436.118V440.29C259.149 441.541 258.897 442.474 258.393 443.09C257.898 443.697 257.072 444 255.915 444H253.325V432.66ZM255.803 442.866C256.353 442.866 256.75 442.759 256.993 442.544C257.245 442.329 257.399 442.04 257.455 441.676C257.52 441.303 257.553 440.743 257.553 439.996V436.314C257.553 435.67 257.511 435.18 257.427 434.844C257.352 434.499 257.189 434.247 256.937 434.088C256.685 433.92 256.293 433.836 255.761 433.836H254.907V442.866H255.803ZM260.707 432.66H265.103V433.836H262.289V437.588H264.571V438.708H262.289V442.866H265.131V444H260.707V432.66ZM269.251 444.126C268.131 444.126 267.342 443.795 266.885 443.132C266.427 442.46 266.199 441.536 266.199 440.36V436.356C266.199 435.115 266.423 434.172 266.871 433.528C267.319 432.884 268.112 432.562 269.251 432.562C270.268 432.562 270.996 432.837 271.435 433.388C271.883 433.939 272.107 434.751 272.107 435.824V436.72H270.609V435.922C270.609 435.399 270.585 434.998 270.539 434.718C270.492 434.438 270.371 434.214 270.175 434.046C269.988 433.878 269.685 433.794 269.265 433.794C268.835 433.794 268.513 433.887 268.299 434.074C268.093 434.251 267.958 434.503 267.893 434.83C267.827 435.147 267.795 435.577 267.795 436.118V440.612C267.795 441.191 267.841 441.643 267.935 441.97C268.028 442.297 268.177 442.53 268.383 442.67C268.597 442.81 268.891 442.88 269.265 442.88C269.666 442.88 269.965 442.791 270.161 442.614C270.357 442.437 270.478 442.194 270.525 441.886C270.581 441.578 270.609 441.158 270.609 440.626V439.786H272.107V440.626C272.107 441.755 271.892 442.623 271.463 443.23C271.043 443.827 270.305 444.126 269.251 444.126ZM276.505 442.936L279.389 438.442C279.529 438.218 279.622 438.078 279.669 438.022C279.996 437.499 280.234 437.065 280.383 436.72C280.532 436.375 280.607 435.959 280.607 435.474C280.607 434.933 280.518 434.517 280.341 434.228C280.164 433.939 279.874 433.794 279.473 433.794C278.577 433.794 278.129 434.489 278.129 435.88V436.258H276.631V435.866C276.631 434.802 276.85 433.985 277.289 433.416C277.728 432.847 278.432 432.562 279.403 432.562C280.299 432.562 280.976 432.819 281.433 433.332C281.89 433.836 282.119 434.555 282.119 435.488C282.119 435.945 282.063 436.356 281.951 436.72C281.848 437.075 281.722 437.383 281.573 437.644C281.424 437.905 281.19 438.279 280.873 438.764L278.269 442.74H281.853V444H276.505V442.936ZM286.242 444.126C285.309 444.126 284.604 443.823 284.128 443.216C283.662 442.609 283.428 441.797 283.428 440.78V435.894C283.428 434.858 283.657 434.046 284.114 433.458C284.581 432.861 285.29 432.562 286.242 432.562C287.185 432.562 287.885 432.861 288.342 433.458C288.809 434.046 289.042 434.858 289.042 435.894V440.78C289.042 441.807 288.809 442.623 288.342 443.23C287.876 443.827 287.176 444.126 286.242 444.126ZM286.242 442.894C287.101 442.894 287.53 442.194 287.53 440.794V435.88C287.53 435.236 287.437 434.727 287.25 434.354C287.073 433.971 286.737 433.78 286.242 433.78C285.748 433.78 285.407 433.971 285.22 434.354C285.034 434.727 284.94 435.236 284.94 435.88V440.794C284.94 442.194 285.374 442.894 286.242 442.894ZM290.423 442.936L293.307 438.442C293.447 438.218 293.54 438.078 293.587 438.022C293.914 437.499 294.152 437.065 294.301 436.72C294.45 436.375 294.525 435.959 294.525 435.474C294.525 434.933 294.436 434.517 294.259 434.228C294.082 433.939 293.792 433.794 293.391 433.794C292.495 433.794 292.047 434.489 292.047 435.88V436.258H290.549V435.866C290.549 434.802 290.768 433.985 291.207 433.416C291.646 432.847 292.35 432.562 293.321 432.562C294.217 432.562 294.894 432.819 295.351 433.332C295.808 433.836 296.037 434.555 296.037 435.488C296.037 435.945 295.981 436.356 295.869 436.72C295.766 437.075 295.64 437.383 295.491 437.644C295.342 437.905 295.108 438.279 294.791 438.764L292.187 442.74H295.771V444H290.423V442.936ZM298.928 434.62C298.91 434.648 298.625 434.713 298.074 434.816C297.533 434.919 297.16 434.989 296.954 435.026V433.892C298.093 433.621 298.872 433.211 299.292 432.66H300.426V444H298.928V434.62Z" fill="black"/>
<path id="24 DEC 2021_2" d="M591.726 378.426L587.232 375.542C587.008 375.402 586.868 375.309 586.812 375.262C586.29 374.935 585.856 374.697 585.51 374.548C585.165 374.399 584.75 374.324 584.264 374.324C583.723 374.324 583.308 374.413 583.018 374.59C582.729 374.767 582.584 375.057 582.584 375.458C582.584 376.354 583.28 376.802 584.67 376.802L585.048 376.802L585.048 378.3L584.656 378.3C583.592 378.3 582.776 378.081 582.206 377.642C581.637 377.203 581.352 376.499 581.352 375.528C581.352 374.632 581.609 373.955 582.122 373.498C582.626 373.041 583.345 372.812 584.278 372.812C584.736 372.812 585.146 372.868 585.51 372.98C585.865 373.083 586.173 373.209 586.434 373.358C586.696 373.507 587.069 373.741 587.554 374.058L591.53 376.662L591.53 373.078L592.79 373.078L592.79 378.426L591.726 378.426ZM589.752 368.464L589.752 371.754L588.184 371.754L581.45 368.8L581.45 367.036L588.422 367.036L588.422 365.762L589.752 365.762L589.752 367.036L592.79 367.036L592.79 368.464L589.752 368.464ZM588.422 368.464L583.27 368.464L588.422 370.312L588.422 368.464ZM581.45 361.466L581.45 359.002C581.45 357.779 581.73 356.916 582.29 356.412C582.85 355.898 583.723 355.642 584.908 355.642L589.08 355.642C590.331 355.642 591.264 355.894 591.88 356.398C592.487 356.892 592.79 357.718 592.79 358.876L592.79 361.466L581.45 361.466ZM591.656 358.988C591.656 358.437 591.549 358.04 591.334 357.798C591.12 357.546 590.83 357.392 590.466 357.336C590.093 357.27 589.533 357.238 588.786 357.238L585.104 357.238C584.46 357.238 583.97 357.28 583.634 357.364C583.289 357.438 583.037 357.602 582.878 357.854C582.71 358.106 582.626 358.498 582.626 359.03L582.626 359.884L591.656 359.884L591.656 358.988ZM581.45 354.083L581.45 349.687L582.626 349.687L582.626 352.501L586.378 352.501L586.378 350.219L587.498 350.219L587.498 352.501L591.656 352.501L591.656 349.659L592.79 349.659L592.79 354.083L581.45 354.083ZM592.916 345.54C592.916 346.66 592.585 347.448 591.922 347.906C591.25 348.363 590.326 348.592 589.15 348.592L585.146 348.592C583.905 348.592 582.962 348.368 582.318 347.92C581.674 347.472 581.352 346.678 581.352 345.54C581.352 344.522 581.628 343.794 582.178 343.356C582.729 342.908 583.541 342.684 584.614 342.684L585.51 342.684L585.51 344.182L584.712 344.182C584.19 344.182 583.788 344.205 583.508 344.252C583.228 344.298 583.004 344.42 582.836 344.616C582.668 344.802 582.584 345.106 582.584 345.526C582.584 345.955 582.678 346.277 582.864 346.492C583.042 346.697 583.294 346.832 583.62 346.898C583.938 346.963 584.367 346.996 584.908 346.996L589.402 346.996C589.981 346.996 590.434 346.949 590.76 346.856C591.087 346.762 591.32 346.613 591.46 346.408C591.6 346.193 591.67 345.899 591.67 345.526C591.67 345.124 591.582 344.826 591.404 344.63C591.227 344.434 590.984 344.312 590.676 344.266C590.368 344.21 589.948 344.182 589.416 344.182L588.576 344.182L588.576 342.684L589.416 342.684C590.546 342.684 591.414 342.898 592.02 343.328C592.618 343.748 592.916 344.485 592.916 345.54ZM591.726 338.285L587.232 335.401C587.008 335.261 586.868 335.168 586.812 335.121C586.29 334.795 585.856 334.557 585.51 334.407C585.165 334.258 584.75 334.183 584.264 334.183C583.723 334.183 583.308 334.272 583.018 334.449C582.729 334.627 582.584 334.916 582.584 335.317C582.584 336.213 583.28 336.661 584.67 336.661L585.048 336.661L585.048 338.159L584.656 338.159C583.592 338.159 582.776 337.94 582.206 337.501C581.637 337.063 581.352 336.358 581.352 335.387C581.352 334.491 581.609 333.815 582.122 333.357C582.626 332.9 583.345 332.671 584.278 332.671C584.736 332.671 585.146 332.727 585.51 332.839C585.865 332.942 586.173 333.068 586.434 333.217C586.696 333.367 587.069 333.6 587.554 333.917L591.53 336.521L591.53 332.937L592.79 332.937L592.79 338.285L591.726 338.285ZM592.916 328.548C592.916 329.481 592.613 330.186 592.006 330.662C591.4 331.128 590.588 331.362 589.57 331.362L584.684 331.362C583.648 331.362 582.836 331.133 582.248 330.676C581.651 330.209 581.352 329.5 581.352 328.548C581.352 327.605 581.651 326.905 582.248 326.448C582.836 325.981 583.648 325.748 584.684 325.748L589.57 325.748C590.597 325.748 591.414 325.981 592.02 326.448C592.618 326.914 592.916 327.614 592.916 328.548ZM591.684 328.548C591.684 327.689 590.984 327.26 589.584 327.26L584.67 327.26C584.026 327.26 583.518 327.353 583.144 327.54C582.762 327.717 582.57 328.053 582.57 328.548C582.57 329.042 582.762 329.383 583.144 329.57C583.518 329.756 584.026 329.85 584.67 329.85L589.584 329.85C590.984 329.85 591.684 329.416 591.684 328.548ZM591.726 324.367L587.232 321.483C587.008 321.343 586.868 321.25 586.812 321.203C586.29 320.877 585.856 320.639 585.51 320.489C585.165 320.34 584.75 320.265 584.264 320.265C583.723 320.265 583.308 320.354 583.018 320.531C582.729 320.709 582.584 320.998 582.584 321.399C582.584 322.295 583.28 322.743 584.67 322.743L585.048 322.743L585.048 324.241L584.656 324.241C583.592 324.241 582.776 324.022 582.206 323.583C581.637 323.145 581.352 322.44 581.352 321.469C581.352 320.573 581.609 319.897 582.122 319.439C582.626 318.982 583.345 318.753 584.278 318.753C584.736 318.753 585.146 318.809 585.51 318.921C585.865 319.024 586.173 319.15 586.434 319.299C586.696 319.449 587.069 319.682 587.554 319.999L591.53 322.603L591.53 319.019L592.79 319.019L592.79 324.367L591.726 324.367ZM583.41 315.862C583.438 315.881 583.504 316.165 583.606 316.716C583.709 317.257 583.779 317.631 583.816 317.836L582.682 317.836C582.412 316.697 582.001 315.918 581.45 315.498L581.45 314.364L592.79 314.364L592.79 315.862L583.41 315.862Z" fill="black"/>
<g id="Group-3">
<line id="Line 5" x1="350.29" y1="410" x2="350.29" y2="443" stroke="black"/>
<line id="Line 23" x1="395.29" y1="410" x2="395.29" y2="443" stroke="black"/>
<line id="Line 6" x1="352.29" y1="410" x2="352.29" y2="443" stroke="black"/>
<line id="Line 24" x1="397.29" y1="410" x2="397.29" y2="443" stroke="black"/>
<line id="Line 18" x1="382.29" y1="410" x2="382.29" y2="443" stroke="black"/>
<line id="Line 25" x1="427.29" y1="410" x2="427.29" y2="443" stroke="black"/>
<line id="Line 19" x1="385.29" y1="410" x2="385.29" y2="443" stroke="black"/>
<line id="Line 26" x1="430.29" y1="410" x2="430.29" y2="443" stroke="black"/>
<line id="Line 20" x1="387.29" y1="410" x2="387.29" y2="443" stroke="black"/>
<line id="Line 27" x1="432.29" y1="410" x2="432.29" y2="443" stroke="black"/>
<line id="Line 21" x1="390.29" y1="410" x2="390.29" y2="443" stroke="black"/>
<line id="Line 28" x1="435.29" y1="410" x2="435.29" y2="443" stroke="black"/>
<line id="Line 22" x1="393.04" y1="410" x2="393.04" y2="443" stroke="black" stroke-width="0.5"/>
<line id="Line 29" x1="438.04" y1="410" x2="438.04" y2="443" stroke="black" stroke-width="0.5"/>
<line id="Line 14" x1="372.29" y1="410" x2="372.29" y2="443" stroke="black"/>
<line id="Line 30" x1="417.29" y1="410" x2="417.29" y2="443" stroke="black"/>
<line id="Line 15" x1="374.29" y1="410" x2="374.29" y2="443" stroke="black"/>
<line id="Line 31" x1="419.29" y1="410" x2="419.29" y2="443" stroke="black"/>
<line id="Line 16" x1="376.29" y1="410" x2="376.29" y2="443" stroke="black"/>
<line id="Line 32" x1="421.29" y1="410" x2="421.29" y2="443" stroke="black"/>
<line id="Line 17" x1="379.29" y1="410" x2="379.29" y2="443" stroke="black" stroke-width="3"/>
<line id="Line 33" x1="424.29" y1="410" x2="424.29" y2="443" stroke="black" stroke-width="3"/>
<line id="Line 8" x1="359.29" y1="410" x2="359.29" y2="443" stroke="black"/>
<line id="Line 34" x1="404.29" y1="410" x2="404.29" y2="443" stroke="black"/>
<line id="Line 9" x1="361.04" y1="410" x2="361.04" y2="443" stroke="black" stroke-width="0.5"/>
<line id="Line 35" x1="406.04" y1="410" x2="406.04" y2="443" stroke="black" stroke-width="0.5"/>
<line id="Line 10" x1="362.04" y1="410" x2="362.04" y2="443" stroke="black" stroke-width="0.5"/>
<line id="Line 36" x1="407.04" y1="410" x2="407.04" y2="443" stroke="black" stroke-width="0.5"/>
<line id="Line 11" x1="364.29" y1="410" x2="364.29" y2="443" stroke="black"/>
<line id="Line 37" x1="409.29" y1="410" x2="409.29" y2="443" stroke="black"/>
<line id="Line 12" x1="366.29" y1="410" x2="366.29" y2="443" stroke="black"/>
<line id="Line 38" x1="411.29" y1="410" x2="411.29" y2="443" stroke="black"/>
<line id="Line 13" x1="369.29" y1="410" x2="369.29" y2="443" stroke="black" stroke-width="3"/>
<line id="Line 39" x1="414.29" y1="410" x2="414.29" y2="443" stroke="black" stroke-width="3"/>
<line id="Line 7" x1="356.29" y1="410" x2="356.29" y2="443" stroke="black" stroke-width="3"/>
<line id="Line 40" x1="401.29" y1="410" x2="401.29" y2="443" stroke="black" stroke-width="3"/>
</g>
<g id="Group 4">
<line id="Line 5_2" x1="505.29" y1="426" x2="505.29" y2="459" stroke="black"/>
<line id="Line 23_2" x1="550.29" y1="426" x2="550.29" y2="459" stroke="black"/>
<line id="Line 6_2" x1="507.29" y1="426" x2="507.29" y2="459" stroke="black"/>
<line id="Line 24_2" x1="552.29" y1="426" x2="552.29" y2="459" stroke="black"/>
<line id="Line 18_2" x1="537.29" y1="426" x2="537.29" y2="459" stroke="black"/>
<line id="Line 25_2" x1="582.29" y1="426" x2="582.29" y2="459" stroke="black"/>
<line id="Line 19_2" x1="540.29" y1="426" x2="540.29" y2="459" stroke="black"/>
<line id="Line 26_2" x1="585.29" y1="426" x2="585.29" y2="459" stroke="black"/>
<line id="Line 20_2" x1="542.29" y1="426" x2="542.29" y2="459" stroke="black"/>
<line id="Line 27_2" x1="587.29" y1="426" x2="587.29" y2="459" stroke="black"/>
<line id="Line 21_2" x1="545.29" y1="426" x2="545.29" y2="459" stroke="black"/>
<line id="Line 28_2" x1="590.29" y1="426" x2="590.29" y2="459" stroke="black"/>
<line id="Line 22_2" x1="548.04" y1="426" x2="548.04" y2="459" stroke="black" stroke-width="0.5"/>
<line id="Line 29_2" x1="593.04" y1="426" x2="593.04" y2="459" stroke="black" stroke-width="0.5"/>
<line id="Line 14_2" x1="527.29" y1="426" x2="527.29" y2="459" stroke="black"/>
<line id="Line 30_2" x1="572.29" y1="426" x2="572.29" y2="459" stroke="black"/>
<line id="Line 15_2" x1="529.29" y1="426" x2="529.29" y2="459" stroke="black"/>
<line id="Line 31_2" x1="574.29" y1="426" x2="574.29" y2="459" stroke="black"/>
<line id="Line 16_2" x1="531.29" y1="426" x2="531.29" y2="459" stroke="black"/>
<line id="Line 32_2" x1="576.29" y1="426" x2="576.29" y2="459" stroke="black"/>
<line id="Line 17_2" x1="534.29" y1="426" x2="534.29" y2="459" stroke="black" stroke-width="3"/>
<line id="Line 33_2" x1="579.29" y1="426" x2="579.29" y2="459" stroke="black" stroke-width="3"/>
<line id="Line 8_2" x1="514.29" y1="426" x2="514.29" y2="459" stroke="black"/>
<line id="Line 34_2" x1="559.29" y1="426" x2="559.29" y2="459" stroke="black"/>
<line id="Line 9_2" x1="516.04" y1="426" x2="516.04" y2="459" stroke="black" stroke-width="0.5"/>
<line id="Line 35_2" x1="561.04" y1="426" x2="561.04" y2="459" stroke="black" stroke-width="0.5"/>
<line id="Line 10_2" x1="517.04" y1="426" x2="517.04" y2="459" stroke="black" stroke-width="0.5"/>
<line id="Line 36_2" x1="562.04" y1="426" x2="562.04" y2="459" stroke="black" stroke-width="0.5"/>
<line id="Line 11_2" x1="519.29" y1="426" x2="519.29" y2="459" stroke="black"/>
<line id="Line 37_2" x1="564.29" y1="426" x2="564.29" y2="459" stroke="black"/>
<line id="Line 12_2" x1="521.29" y1="426" x2="521.29" y2="459" stroke="black"/>
<line id="Line 38_2" x1="566.29" y1="426" x2="566.29" y2="459" stroke="black"/>
<line id="Line 13_2" x1="524.29" y1="426" x2="524.29" y2="459" stroke="black" stroke-width="3"/>
<line id="Line 39_2" x1="569.29" y1="426" x2="569.29" y2="459" stroke="black" stroke-width="3"/>
<line id="Line 7_2" x1="511.29" y1="426" x2="511.29" y2="459" stroke="black" stroke-width="3"/>
<line id="Line 40_2" x1="556.29" y1="426" x2="556.29" y2="459" stroke="black" stroke-width="3"/>
</g>
<path id="Vector 1" d="M268.762 340.065C268.162 339.333 256.103 340.371 250.148 340.981L243.093 332.891H239.79L243.693 344.34L239.79 353.346H243.093L250.148 345.866C253.151 346.843 263.809 346.985 268.762 346.935L259.906 368H266.06L273.566 357.62H279.871C281.072 357.62 281.672 356.551 281.672 355.33C281.672 354.353 280.471 353.6 279.871 353.346H277.319L282.573 345.866H295.483C296.734 345.815 298.906 344.675 298.786 342.966C298.665 341.256 297.034 340.218 295.483 340.065H281.672L276.418 332.891C276.969 332.942 278.43 333.013 279.871 332.891C281.672 332.738 281.522 332.433 281.672 331.212C281.792 330.235 280.522 329.278 279.871 328.922H273.566L266.06 319H259.906C263.108 326.327 269.363 340.798 268.762 340.065Z" fill="#515151"/>
</g>
<path id="Subtract" fill-rule="evenodd" clip-rule="evenodd" d="M656 191H0V561H656V191ZM656 191L353.887 367.6C338.662 376.501 319.827 376.532 304.572 367.682L0.000138768 191L656 191Z" fill="#BCD1FF"/>
<path id="To. Jihoon" d="M41.296 493.152H34.72V489.12H53.104V493.152H46.72V528H41.296V493.152ZM63.4896 528.384C60.5456 528.384 58.4496 527.52 57.2016 525.792C55.9856 524.032 55.3776 521.488 55.3776 518.16V510.096C55.3776 506.768 55.9856 504.24 57.2016 502.512C58.4496 500.752 60.5456 499.872 63.4896 499.872C66.4016 499.872 68.4656 500.752 69.6816 502.512C70.9296 504.24 71.5536 506.768 71.5536 510.096V518.16C71.5536 521.488 70.9296 524.032 69.6816 525.792C68.4656 527.52 66.4016 528.384 63.4896 528.384ZM63.4896 524.592C64.4176 524.592 65.0896 524.32 65.5056 523.776C65.9216 523.232 66.1776 522.56 66.2736 521.76C66.3696 520.96 66.4176 519.872 66.4176 518.496V509.808C66.4176 508.432 66.3696 507.344 66.2736 506.544C66.1776 505.712 65.9216 505.024 65.5056 504.48C65.0896 503.936 64.4176 503.664 63.4896 503.664C62.5616 503.664 61.8736 503.936 61.4256 504.48C61.0096 505.024 60.7536 505.712 60.6576 506.544C60.5616 507.344 60.5136 508.432 60.5136 509.808V518.496C60.5136 519.872 60.5616 520.96 60.6576 521.76C60.7536 522.56 61.0096 523.232 61.4256 523.776C61.8736 524.32 62.5616 524.592 63.4896 524.592ZM76.0083 522.288H81.1443V528H76.0083V522.288ZM94.0079 525.024C95.6399 525.024 96.8399 524.88 97.6079 524.592C98.4079 524.272 98.9519 523.712 99.2399 522.912C99.5279 522.08 99.6719 520.816 99.6719 519.12V489.12H105.048V519.216C105.048 521.552 104.808 523.424 104.328 524.832C103.848 526.208 102.984 527.232 101.736 527.904C100.52 528.576 98.8079 528.912 96.5999 528.912H94.0079V525.024ZM111.037 490.752H116.173V496.128H111.037V490.752ZM111.037 500.256H116.173V528H111.037V500.256ZM121.814 489.12H126.95V503.136C129.254 500.96 131.574 499.872 133.91 499.872C135.414 499.872 136.47 500.416 137.078 501.504C137.718 502.592 138.038 503.936 138.038 505.536V528H132.902V507.024C132.902 505.968 132.742 505.184 132.422 504.672C132.102 504.16 131.526 503.904 130.694 503.904C129.574 503.904 128.326 504.512 126.95 505.728V528H121.814V489.12ZM150.677 528.384C147.733 528.384 145.637 527.52 144.389 525.792C143.173 524.032 142.565 521.488 142.565 518.16V510.096C142.565 506.768 143.173 504.24 144.389 502.512C145.637 500.752 147.733 499.872 150.677 499.872C153.589 499.872 155.653 500.752 156.869 502.512C158.117 504.24 158.741 506.768 158.741 510.096V518.16C158.741 521.488 158.117 524.032 156.869 525.792C155.653 527.52 153.589 528.384 150.677 528.384ZM150.677 524.592C151.605 524.592 152.277 524.32 152.693 523.776C153.109 523.232 153.365 522.56 153.461 521.76C153.557 520.96 153.605 519.872 153.605 518.496V509.808C153.605 508.432 153.557 507.344 153.461 506.544C153.365 505.712 153.109 505.024 152.693 504.48C152.277 503.936 151.605 503.664 150.677 503.664C149.749 503.664 149.061 503.936 148.613 504.48C148.197 505.024 147.941 505.712 147.845 506.544C147.749 507.344 147.701 508.432 147.701 509.808V518.496C147.701 519.872 147.749 520.96 147.845 521.76C147.941 522.56 148.197 523.232 148.613 523.776C149.061 524.32 149.749 524.592 150.677 524.592ZM171.068 528.384C168.124 528.384 166.028 527.52 164.78 525.792C163.564 524.032 162.956 521.488 162.956 518.16V510.096C162.956 506.768 163.564 504.24 164.78 502.512C166.028 500.752 168.124 499.872 171.068 499.872C173.98 499.872 176.044 500.752 177.26 502.512C178.508 504.24 179.132 506.768 179.132 510.096V518.16C179.132 521.488 178.508 524.032 177.26 525.792C176.044 527.52 173.98 528.384 171.068 528.384ZM171.068 524.592C171.996 524.592 172.668 524.32 173.084 523.776C173.5 523.232 173.756 522.56 173.852 521.76C173.948 520.96 173.996 519.872 173.996 518.496V509.808C173.996 508.432 173.948 507.344 173.852 506.544C173.756 505.712 173.5 505.024 173.084 504.48C172.668 503.936 171.996 503.664 171.068 503.664C170.14 503.664 169.452 503.936 169.004 504.48C168.588 505.024 168.332 505.712 168.236 506.544C168.14 507.344 168.092 508.432 168.092 509.808V518.496C168.092 519.872 168.14 520.96 168.236 521.76C168.332 522.56 168.588 523.232 169.004 523.776C169.452 524.32 170.14 524.592 171.068 524.592ZM183.826 500.256H188.962V502.992C191.17 500.912 193.426 499.872 195.73 499.872C197.234 499.872 198.306 500.416 198.946 501.504C199.586 502.592 199.906 503.936 199.906 505.536V528H194.77V507.024C194.77 505.968 194.61 505.184 194.29 504.672C193.97 504.16 193.394 503.904 192.562 503.904C191.538 503.904 190.338 504.48 188.962 505.632V528H183.826V500.256Z" fill="#2E509B"/>
</g>
</g>
</svg>
