<svg width="512" height="401" viewBox="0 0 512 401" fill="none" xmlns="http://www.w3.org/2000/svg">
<rect x="5" y="47" width="502" height="346.911" rx="20" fill="#FBCB41"/>
<rect x="18" y="56" width="476" height="329" rx="20" fill="#F8D24E"/>
<mask id="mask0" mask-type="alpha" maskUnits="userSpaceOnUse" x="0" y="41" width="512" height="360">
<rect y="41" width="512" height="360" rx="20" fill="#C4C4C4"/>
</mask>
<g mask="url(#mask0)">
<ellipse cx="-0.520508" cy="40.4706" rx="64" ry="65.1176" fill="#AF7136"/>
</g>
<mask id="mask1" mask-type="alpha" maskUnits="userSpaceOnUse" x="0" y="41" width="512" height="360">
<rect width="512" height="360" rx="20" transform="matrix(-1 0 0 1 512 41)" fill="#C4C4C4"/>
</mask>
<g mask="url(#mask1)">
<ellipse rx="64" ry="65.1176" transform="matrix(-1 0 0 1 512.521 40.4706)" fill="#AF7136"/>
</g>
<path fill-rule="evenodd" clip-rule="evenodd" d="M204 0C198.477 0 194 4.47714 194 9.99999V46.8298H205.872V20.5532C205.872 15.0304 210.35 10.5532 215.872 10.5532H296.128C301.651 10.5532 306.128 15.0304 306.128 20.5532V46.8298H318V10C318 4.47715 313.523 0 308 0H204Z" fill="#A76D36"/>
<mask id="mask2" mask-type="alpha" maskUnits="userSpaceOnUse" x="0" y="41" width="512" height="360">
<rect x="512" y="401" width="512" height="360" rx="20" transform="rotate(-180 512 401)" fill="#C4C4C4"/>
</mask>
<g mask="url(#mask2)">
<ellipse cx="512.521" cy="401.529" rx="64" ry="65.1176" transform="rotate(-180 512.521 401.529)" fill="#AF7136"/>
</g>
<mask id="mask3" mask-type="alpha" maskUnits="userSpaceOnUse" x="0" y="41" width="512" height="360">
<rect width="512" height="360" rx="20" transform="matrix(1 0 0 -1 0 401)" fill="#C4C4C4"/>
</mask>
<g mask="url(#mask3)">
<ellipse rx="64" ry="65.1176" transform="matrix(1 0 0 -1 -0.520508 401.529)" fill="#AF7136"/>
</g>
<rect x="184" y="45" width="33" height="3" rx="1.5" fill="#858585"/>
<rect x="295" y="45" width="33" height="3" rx="1.5" fill="#858585"/>
<rect x="120" y="46" width="24" height="347" fill="#AF7136"/>
<path d="M276.32 351.398C276.102 351.617 275.883 351.836 275.664 352.055C275.445 352.258 275.273 352.516 275.148 352.828C274.961 352.859 274.766 352.898 274.562 352.945C274.359 352.992 274.164 353.016 273.977 353.016C273.852 353.016 273.727 353 273.602 352.969C273.477 352.922 273.352 352.898 273.227 352.898C273.117 352.898 273.062 352.953 273.062 353.062C273.062 353.172 273.031 353.258 272.969 353.32C272.844 353.273 272.711 353.242 272.57 353.227C272.43 353.211 272.289 353.203 272.148 353.203C271.82 353.203 271.492 353.258 271.164 353.367C270.852 353.461 270.539 353.578 270.227 353.719C269.914 353.844 269.602 353.977 269.289 354.117C268.977 354.258 268.656 354.367 268.328 354.445C268.344 354.461 268.352 354.5 268.352 354.562C268.352 354.672 268.32 354.766 268.258 354.844C268.195 354.906 268.164 354.992 268.164 355.102V355.172C268.352 355.578 268.539 355.969 268.727 356.344C268.914 356.719 269.094 357.109 269.266 357.516C269.359 357.719 269.438 357.914 269.5 358.102C269.562 358.289 269.633 358.492 269.711 358.711C269.742 358.836 269.797 358.922 269.875 358.969C269.953 359 270.031 359.055 270.109 359.133C270.078 359.227 270.062 359.312 270.062 359.391C270.062 359.688 270.133 359.977 270.273 360.258C270.414 360.523 270.484 360.797 270.484 361.078C270.484 361.156 270.469 361.258 270.438 361.383C270.625 361.648 270.758 361.953 270.836 362.297C270.914 362.641 270.984 362.992 271.047 363.352C271.109 363.695 271.172 364.039 271.234 364.383C271.312 364.711 271.445 365.008 271.633 365.273C271.523 365.461 271.453 365.664 271.422 365.883C271.391 366.086 271.375 366.297 271.375 366.516C271.375 367.016 271.422 367.523 271.516 368.039C271.625 368.539 271.68 369.039 271.68 369.539C271.68 369.883 271.641 370.164 271.562 370.383C271.594 370.617 271.672 370.789 271.797 370.898C271.734 371.008 271.711 371.141 271.727 371.297C271.742 371.438 271.711 371.562 271.633 371.672C271.711 371.984 271.75 372.273 271.75 372.539C271.75 372.93 271.695 373.32 271.586 373.711C271.492 374.086 271.445 374.477 271.445 374.883C271.445 374.992 271.453 375.094 271.469 375.188C271.484 375.297 271.516 375.414 271.562 375.539C271.531 375.633 271.469 375.688 271.375 375.703C271.297 375.734 271.242 375.789 271.211 375.867V375.938C271.211 376.172 271.18 376.375 271.117 376.547C271.07 376.734 271.008 376.906 270.93 377.062L270.719 377.555C270.656 377.727 270.602 377.914 270.555 378.117C270.148 378.336 269.758 378.547 269.383 378.75C269.023 378.953 268.672 379.227 268.328 379.57C268.266 379.586 268.172 379.594 268.047 379.594C267.938 379.594 267.828 379.586 267.719 379.57C267.609 379.57 267.492 379.57 267.367 379.57C267.195 379.57 267.016 379.594 266.828 379.641C266.578 379.406 266.273 379.234 265.914 379.125C265.555 379.031 265.219 378.898 264.906 378.727C264.797 378.586 264.672 378.461 264.531 378.352L264.109 378.023C263.969 377.914 263.836 377.805 263.711 377.695C263.586 377.586 263.477 377.445 263.383 377.273H263.055C263.055 377.258 263.055 377.242 263.055 377.227C263.07 377.211 263.078 377.195 263.078 377.18C263.078 377.102 263.039 377.055 262.961 377.039C262.883 377.023 262.859 376.969 262.891 376.875C262.703 376.734 262.547 376.57 262.422 376.383C262.297 376.195 262.172 376 262.047 375.797C261.922 375.609 261.797 375.422 261.672 375.234C261.547 375.062 261.391 374.906 261.203 374.766V374.719C261.203 374.641 261.18 374.594 261.133 374.578C261.086 374.547 261.078 374.469 261.109 374.344C260.859 374.016 260.648 373.672 260.477 373.312C260.305 372.953 260.141 372.586 259.984 372.211C259.844 371.82 259.695 371.438 259.539 371.062C259.398 370.688 259.227 370.328 259.023 369.984C258.992 369.828 258.977 369.672 258.977 369.516V369.047C258.977 368.594 259.016 368.164 259.094 367.758C259.172 367.336 259.32 366.93 259.539 366.539C259.664 366.508 259.805 366.5 259.961 366.516C260.133 366.516 260.289 366.516 260.43 366.516C260.57 366.516 260.703 366.508 260.828 366.492C260.969 366.461 261.094 366.391 261.203 366.281C261.188 366.344 261.203 366.391 261.25 366.422C261.297 366.438 261.344 366.445 261.391 366.445C261.469 366.445 261.539 366.438 261.602 366.422C261.68 366.391 261.758 366.375 261.836 366.375C261.867 366.375 261.906 366.383 261.953 366.398C262.016 366.414 262.047 366.461 262.047 366.539C262.141 366.508 262.227 366.469 262.305 366.422C262.383 366.375 262.469 366.328 262.562 366.281C262.828 366.516 263.141 366.695 263.5 366.82C263.859 366.93 264.227 367.039 264.602 367.148C264.977 367.242 265.344 367.352 265.703 367.477C266.062 367.586 266.383 367.75 266.664 367.969C266.742 368.125 266.781 368.289 266.781 368.461C266.781 368.727 266.672 368.961 266.453 369.164C266.234 369.352 266 369.484 265.75 369.562C265.391 369.312 264.984 369.133 264.531 369.023C264.094 368.914 263.68 368.758 263.289 368.555C262.977 368.68 262.633 368.75 262.258 368.766C261.898 368.766 261.547 368.781 261.203 368.812C261.125 368.875 261.094 368.984 261.109 369.141C261.141 369.297 261.117 369.414 261.039 369.492C261.242 370.102 261.508 370.695 261.836 371.273C262.164 371.836 262.461 372.414 262.727 373.008C262.758 373.102 262.812 373.172 262.891 373.219C262.969 373.25 263.047 373.289 263.125 373.336V373.406C263.125 373.5 263.148 373.57 263.195 373.617C263.242 373.648 263.25 373.727 263.219 373.852C263.406 373.883 263.539 373.984 263.617 374.156C263.711 374.328 263.805 374.477 263.898 374.602C263.961 374.68 264.023 374.75 264.086 374.812C264.164 374.875 264.234 374.945 264.297 375.023C264.562 375.32 264.852 375.633 265.164 375.961C265.477 376.289 265.805 376.539 266.148 376.711C266.195 376.742 266.234 376.758 266.266 376.758C266.312 376.758 266.359 376.766 266.406 376.781C266.578 376.875 266.766 376.961 266.969 377.039C267.172 377.133 267.383 377.18 267.602 377.18C267.711 377.18 267.82 377.156 267.93 377.109C268.055 377.062 268.133 376.984 268.164 376.875C268.242 376.734 268.297 376.57 268.328 376.383C268.375 376.211 268.414 376.047 268.445 375.891C268.57 375.438 268.688 374.984 268.797 374.531C268.922 374.078 269.023 373.625 269.102 373.172C269.07 372.969 269.047 372.766 269.031 372.562C269.016 372.359 269.008 372.156 269.008 371.953C269.008 371.594 269.016 371.234 269.031 370.875C269.062 370.516 269.078 370.156 269.078 369.797C269.078 369.469 269.055 369.148 269.008 368.836C268.977 368.508 268.898 368.188 268.773 367.875C268.805 367.812 268.844 367.766 268.891 367.734C268.938 367.703 268.961 367.648 268.961 367.57C268.961 367.477 268.93 367.352 268.867 367.195C268.82 367.023 268.758 366.914 268.68 366.867C268.789 366.711 268.844 366.516 268.844 366.281C268.844 366.016 268.805 365.75 268.727 365.484C268.648 365.219 268.609 364.953 268.609 364.688C268.609 364.516 268.633 364.344 268.68 364.172C268.68 364.062 268.625 364.008 268.516 364.008C268.406 364.008 268.344 363.953 268.328 363.844C268.328 363.812 268.328 363.781 268.328 363.75C268.344 363.719 268.352 363.688 268.352 363.656C268.352 363.453 268.32 363.266 268.258 363.094C268.211 362.906 268.18 362.711 268.164 362.508C268.023 362.352 267.922 362.156 267.859 361.922C267.797 361.688 267.734 361.453 267.672 361.219C267.609 360.969 267.539 360.734 267.461 360.516C267.383 360.297 267.258 360.117 267.086 359.977C267.086 359.773 267.055 359.562 266.992 359.344C266.945 359.125 266.812 358.969 266.594 358.875C266.5 358.516 266.375 358.18 266.219 357.867C266.062 357.555 265.852 357.273 265.586 357.023C265.586 356.648 265.508 356.359 265.352 356.156C265.211 355.953 265.031 355.719 264.812 355.453C264.453 355.484 264.094 355.555 263.734 355.664C263.375 355.773 263.016 355.828 262.656 355.828C262.562 355.828 262.469 355.828 262.375 355.828C262.297 355.812 262.211 355.797 262.117 355.781C262.039 355.828 261.992 355.906 261.977 356.016C261.961 356.109 261.953 356.195 261.953 356.273C261.672 356.305 261.398 356.359 261.133 356.438C260.867 356.5 260.594 356.57 260.312 356.648C260.047 356.711 259.781 356.766 259.516 356.812C259.25 356.859 258.977 356.875 258.695 356.859C258.586 357.078 258.43 357.227 258.227 357.305C258.023 357.367 257.805 357.414 257.57 357.445C257.352 357.477 257.133 357.516 256.914 357.562C256.695 357.609 256.523 357.711 256.398 357.867C256.336 357.805 256.258 357.773 256.164 357.773C256.039 357.773 255.922 357.805 255.812 357.867C255.688 357.93 255.555 357.961 255.414 357.961C255.305 357.961 255.219 357.93 255.156 357.867C255.047 357.945 254.93 358.008 254.805 358.055C254.664 358.086 254.555 358.164 254.477 358.289C254.211 358.242 253.977 358.141 253.773 357.984C253.57 357.828 253.406 357.641 253.281 357.422C253.141 357.203 253.039 356.969 252.977 356.719C252.914 356.453 252.883 356.195 252.883 355.945C252.977 355.773 253.125 355.656 253.328 355.594C253.531 355.531 253.695 355.422 253.82 355.266C253.93 355.312 254.039 355.359 254.148 355.406C254.242 355.438 254.352 355.453 254.477 355.453C254.633 355.453 254.766 355.422 254.875 355.359C254.984 355.297 255.102 355.266 255.227 355.266C255.305 355.266 255.391 355.289 255.484 355.336C255.594 355.242 255.727 355.188 255.883 355.172C256.039 355.141 256.188 355.117 256.328 355.102C256.484 355.07 256.625 355.031 256.75 354.984C256.875 354.938 256.961 354.836 257.008 354.68C257.148 354.727 257.297 354.75 257.453 354.75C257.641 354.75 257.828 354.727 258.016 354.68C258.203 354.617 258.375 354.555 258.531 354.492C258.688 354.43 258.828 354.375 258.953 354.328C259.078 354.266 259.164 354.234 259.211 354.234C259.289 354.234 259.367 354.258 259.445 354.305C259.523 354.336 259.602 354.352 259.68 354.352C259.836 354.352 259.984 354.305 260.125 354.211C260.281 354.117 260.422 354.023 260.547 353.93C260.672 353.992 260.789 354.023 260.898 354.023C261.117 354.023 261.336 353.961 261.555 353.836C261.789 353.711 262.039 353.648 262.305 353.648C262.414 353.648 262.5 353.656 262.562 353.672C262.922 353.5 263.352 353.344 263.852 353.203C264.367 353.062 264.828 352.992 265.234 352.992C265.453 352.805 265.711 352.672 266.008 352.594C266.305 352.516 266.609 352.453 266.922 352.406C267.234 352.359 267.539 352.297 267.836 352.219C268.148 352.141 268.43 352.008 268.68 351.82C268.758 351.852 268.852 351.875 268.961 351.891C269.07 351.891 269.148 351.922 269.195 351.984C269.273 351.953 269.328 351.898 269.359 351.82C269.391 351.742 269.414 351.664 269.43 351.586C269.445 351.57 269.477 351.562 269.523 351.562C269.602 351.562 269.633 351.594 269.617 351.656C269.602 351.719 269.633 351.75 269.711 351.75C269.758 351.75 269.836 351.727 269.945 351.68C270.07 351.617 270.219 351.555 270.391 351.492C270.562 351.43 270.75 351.375 270.953 351.328C271.156 351.266 271.352 351.234 271.539 351.234H271.633L271.75 351.211C271.828 351.18 271.914 351.156 272.008 351.141C272.102 351.109 272.188 351.078 272.266 351.047C272.359 351.016 272.422 351 272.453 351C272.797 350.891 273.148 350.797 273.508 350.719C273.883 350.641 274.25 350.602 274.609 350.602C274.953 350.602 275.273 350.664 275.57 350.789C275.867 350.898 276.117 351.102 276.32 351.398ZM280.492 371.789C280.414 371.914 280.32 372.031 280.211 372.141C280.102 372.234 280 372.336 279.906 372.445C279.797 372.492 279.672 372.516 279.531 372.516C279.406 372.516 279.281 372.516 279.156 372.516C279.047 372.5 278.938 372.5 278.828 372.516C278.734 372.516 278.656 372.547 278.594 372.609C278.469 372.578 278.375 372.523 278.312 372.445C278.25 372.352 278.141 372.297 277.984 372.281C277.922 372.266 277.859 372.266 277.797 372.281C277.562 372.016 277.344 371.734 277.141 371.438C276.953 371.141 276.773 370.859 276.602 370.594C276.586 370.016 276.539 369.43 276.461 368.836C276.445 368.695 276.422 368.555 276.391 368.414C276.359 368.273 276.336 368.141 276.32 368.016C276.32 367.859 276.328 367.711 276.344 367.57C276.375 367.414 276.398 367.273 276.414 367.148C276.477 366.695 276.547 366.25 276.625 365.812C276.703 365.375 276.773 364.93 276.836 364.477C276.898 364.07 276.93 363.648 276.93 363.211C276.93 362.758 276.859 362.336 276.719 361.945L276.695 361.828C276.727 361.703 276.758 361.602 276.789 361.523C276.836 361.43 276.867 361.328 276.883 361.219C276.914 361.047 276.875 360.922 276.766 360.844C276.812 360.719 276.891 360.641 277 360.609C277.109 360.562 277.172 360.469 277.188 360.328C277.203 360.266 277.203 360.203 277.188 360.141C277.312 360.094 277.438 360.055 277.562 360.023C277.703 359.977 277.836 359.969 277.961 360C278.164 360.031 278.344 360.102 278.5 360.211C278.656 360.305 278.805 360.414 278.945 360.539C279.195 361.289 279.297 362.086 279.25 362.93C279.203 363.758 279.125 364.594 279.016 365.438C278.906 366.281 278.836 367.109 278.805 367.922C278.773 368.719 278.898 369.461 279.18 370.148L279.227 370.172C279.305 370.188 279.367 370.164 279.414 370.102C279.461 370.023 279.523 369.992 279.602 370.008C279.664 370.039 279.703 370.055 279.719 370.055C279.781 370.367 279.883 370.664 280.023 370.945C280.164 371.227 280.32 371.508 280.492 371.789ZM297.344 364.055C297.281 364.211 297.219 364.359 297.156 364.5C297.094 364.641 297.047 364.797 297.016 364.969C296.906 365.047 296.781 365.109 296.641 365.156C296.516 365.188 296.383 365.227 296.242 365.273C296.102 365.305 295.969 365.352 295.844 365.414C295.734 365.461 295.648 365.539 295.586 365.648C295.539 365.883 295.516 366.102 295.516 366.305C295.516 366.57 295.562 366.797 295.656 366.984C295.609 367.125 295.578 367.273 295.562 367.43C295.547 367.586 295.539 367.734 295.539 367.875C295.539 368.391 295.602 368.906 295.727 369.422C295.852 369.922 295.922 370.43 295.938 370.945C295.938 371.023 295.93 371.109 295.914 371.203C295.898 371.297 295.891 371.383 295.891 371.461C295.891 371.789 296.016 372.008 296.266 372.117C296.219 372.195 296.195 372.266 296.195 372.328C296.195 372.453 296.211 372.562 296.242 372.656C296.273 372.75 296.281 372.852 296.266 372.961C296.344 373.117 296.422 373.258 296.5 373.383C296.578 373.492 296.633 373.633 296.664 373.805C296.555 374.023 296.422 374.227 296.266 374.414C296.109 374.586 296 374.805 295.938 375.07C295.875 375.055 295.805 375.047 295.727 375.047C295.617 375.047 295.531 375.07 295.469 375.117C295.406 375.164 295.352 375.219 295.305 375.281C295.273 375.359 295.234 375.43 295.188 375.492C295.141 375.57 295.078 375.625 295 375.656H294.93C294.852 375.672 294.781 375.664 294.719 375.633C294.672 375.617 294.625 375.609 294.578 375.609C294.547 375.609 294.484 375.625 294.391 375.656C294.266 375.5 294.18 375.312 294.133 375.094C294.086 374.891 294.062 374.688 294.062 374.484C294.062 374.266 294.094 374.07 294.156 373.898C293.984 373.758 293.875 373.547 293.828 373.266C293.797 372.984 293.758 372.75 293.711 372.562C293.586 371.984 293.438 371.422 293.266 370.875C293.109 370.328 293.016 369.766 292.984 369.188C292.969 368.969 292.961 368.758 292.961 368.555V367.336C292.961 367.133 292.969 366.938 292.984 366.75C292.984 366.609 292.992 366.477 293.008 366.352C293.039 366.211 293.055 366.07 293.055 365.93C293.055 365.742 292.992 365.562 292.867 365.391C291.758 365.438 290.703 365.641 289.703 366C288.719 366.344 287.734 366.758 286.75 367.242C286.688 367.602 286.648 367.953 286.633 368.297C286.617 368.641 286.609 368.992 286.609 369.352V370.383C286.609 370.773 286.625 371.102 286.656 371.367C286.734 371.82 286.961 372.172 287.336 372.422C287.727 372.656 288.117 372.836 288.508 372.961C288.492 373.195 288.445 373.398 288.367 373.57C288.289 373.727 288.188 373.875 288.062 374.016C287.953 374.141 287.828 374.266 287.688 374.391C287.547 374.516 287.406 374.656 287.266 374.812C287.141 374.734 287.016 374.68 286.891 374.648C286.766 374.617 286.633 374.602 286.492 374.602C286.352 374.586 286.211 374.57 286.07 374.555C285.93 374.539 285.789 374.508 285.648 374.461L285.133 373.758C284.961 373.523 284.773 373.289 284.57 373.055V372.844C284.57 372.422 284.492 372.016 284.336 371.625C284.18 371.234 284.062 370.836 283.984 370.43C284.031 370.289 284.062 370.148 284.078 370.008C284.094 369.867 284.102 369.719 284.102 369.562C284.102 369.25 284.086 368.945 284.055 368.648C284.039 368.352 284.047 368.055 284.078 367.758H283.961C283.82 367.758 283.672 367.797 283.516 367.875C283.359 367.938 283.203 368.016 283.047 368.109C282.906 368.188 282.766 368.266 282.625 368.344C282.5 368.406 282.391 368.438 282.297 368.438C282.25 368.438 282.203 368.43 282.156 368.414C282.109 368.398 282.055 368.391 281.992 368.391C281.914 368.391 281.82 368.422 281.711 368.484C281.602 368.547 281.484 368.617 281.359 368.695C281.219 368.758 281.078 368.82 280.938 368.883C280.797 368.945 280.656 368.977 280.516 368.977C280.297 368.977 280.078 368.883 279.859 368.695C279.828 368.57 279.82 368.453 279.836 368.344C279.836 368.234 279.836 368.117 279.836 367.992C279.836 367.867 279.812 367.734 279.766 367.594C279.875 367.391 280.023 367.234 280.211 367.125C280.383 367 280.57 366.891 280.773 366.797C280.961 366.688 281.156 366.586 281.359 366.492C281.562 366.383 281.734 366.242 281.875 366.07H282.016C282.234 366.07 282.43 366.023 282.602 365.93C282.789 365.836 283 365.797 283.234 365.812C283.312 365.781 283.367 365.664 283.398 365.461L283.492 365.484C283.836 365.484 284.141 365.367 284.406 365.133C284.578 364.164 284.719 363.188 284.828 362.203C284.938 361.219 284.992 360.234 284.992 359.25C284.992 359.156 284.961 359.062 284.898 358.969C284.867 358.844 284.852 358.727 284.852 358.617V358.266C284.852 358.094 284.859 357.914 284.875 357.727C284.891 357.539 284.93 357.352 284.992 357.164C285.148 357.07 285.312 357.023 285.484 357.023C285.688 357.023 285.883 357.055 286.07 357.117C286.273 357.164 286.469 357.203 286.656 357.234C286.797 357.375 286.898 357.531 286.961 357.703C287.039 357.875 287.086 358.055 287.102 358.242C287.117 358.414 287.117 358.594 287.102 358.781C287.102 358.953 287.102 359.125 287.102 359.297C287.102 359.641 287.141 359.977 287.219 360.305C287.297 360.633 287.336 360.953 287.336 361.266C287.336 361.344 287.305 361.406 287.242 361.453C287.195 361.484 287.172 361.586 287.172 361.758C287.172 361.93 287.188 362.109 287.219 362.297C287.25 362.484 287.266 362.672 287.266 362.859C287.266 363.078 287.234 363.305 287.172 363.539C287.109 363.773 287.055 364 287.008 364.219C287.945 364.141 288.906 364.023 289.891 363.867C290.875 363.711 291.812 363.461 292.703 363.117C292.719 363.086 292.727 363.039 292.727 362.977C292.727 362.883 292.719 362.789 292.703 362.695C292.688 362.602 292.68 362.5 292.68 362.391C292.68 362.203 292.742 362.055 292.867 361.945C292.789 361.508 292.734 361.07 292.703 360.633C292.672 360.195 292.656 359.758 292.656 359.32V357.984C292.656 357.547 292.648 357.109 292.633 356.672C292.758 356.594 292.891 356.555 293.031 356.555C293.203 356.555 293.359 356.602 293.5 356.695C293.656 356.773 293.836 356.812 294.039 356.812C294.18 356.812 294.297 356.789 294.391 356.742C294.562 356.898 294.68 357.102 294.742 357.352C294.805 357.602 294.859 357.859 294.906 358.125C294.953 358.391 295 358.656 295.047 358.922C295.109 359.172 295.227 359.375 295.398 359.531L295.422 359.602C295.422 359.664 295.391 359.711 295.328 359.742C295.266 359.773 295.234 359.836 295.234 359.93V360.023C295.297 360.273 295.344 360.531 295.375 360.797C295.406 361.062 295.43 361.336 295.445 361.617C295.477 361.883 295.516 362.148 295.562 362.414C295.609 362.664 295.695 362.898 295.82 363.117C295.898 363.102 296 363.094 296.125 363.094C296.438 363.094 296.68 363.203 296.852 363.422C297.039 363.625 297.203 363.836 297.344 364.055ZM313.68 361.43C313.586 361.57 313.531 361.727 313.516 361.898C313.5 362.07 313.492 362.227 313.492 362.367C313.492 362.555 313.492 362.742 313.492 362.93C313.508 363.102 313.516 363.273 313.516 363.445V363.797C313.484 363.906 313.438 364.016 313.375 364.125C313.312 364.234 313.266 364.344 313.234 364.453C313.016 365.031 312.906 365.609 312.906 366.188V366.234C312.828 366.422 312.75 366.594 312.672 366.75C312.609 366.906 312.547 367.062 312.484 367.219C312.422 367.359 312.375 367.516 312.344 367.688C312.312 367.844 312.305 368.031 312.32 368.25C312.102 368.797 311.812 369.297 311.453 369.75C311.094 370.188 310.742 370.641 310.398 371.109C310.07 371.234 309.766 371.398 309.484 371.602C309.219 371.805 308.961 372.031 308.711 372.281C308.227 372.438 307.75 372.617 307.281 372.82C306.812 373.023 306.391 373.297 306.016 373.641C305.719 373.672 305.422 373.719 305.125 373.781C304.828 373.844 304.539 373.938 304.258 374.062H303.977C303.836 374.062 303.734 374.031 303.672 373.969C303.469 374.078 303.258 374.156 303.039 374.203C302.82 374.234 302.602 374.25 302.383 374.25C302.102 374.25 301.82 374.234 301.539 374.203C301.273 374.156 301 374.109 300.719 374.062C300.562 373.844 300.344 373.68 300.062 373.57C299.781 373.445 299.531 373.328 299.312 373.219C298.859 372.594 298.531 371.992 298.328 371.414C298.125 370.82 297.914 370.156 297.695 369.422C297.727 369.203 297.781 368.992 297.859 368.789C297.938 368.57 297.969 368.336 297.953 368.086C298.234 367.273 298.602 366.539 299.055 365.883C299.523 365.211 300.055 364.57 300.648 363.961C300.648 363.867 300.664 363.789 300.695 363.727C300.742 363.664 300.75 363.57 300.719 363.445C300.734 363.461 300.766 363.469 300.812 363.469C300.938 363.469 301.016 363.438 301.047 363.375C301.078 363.297 301.086 363.211 301.07 363.117C301.633 362.758 302.141 362.344 302.594 361.875C303.062 361.406 303.594 361.016 304.188 360.703C304.234 360.562 304.312 360.445 304.422 360.352C304.531 360.258 304.617 360.148 304.68 360.023C305.18 359.883 305.633 359.672 306.039 359.391C306.445 359.109 306.875 358.859 307.328 358.641C307.578 358.5 307.812 358.406 308.031 358.359C308.266 358.297 308.516 358.234 308.781 358.172C308.875 358.141 308.961 358.117 309.039 358.102C309.117 358.086 309.203 358.078 309.297 358.078C309.578 358.078 309.852 358.133 310.117 358.242C310.383 358.336 310.656 358.383 310.938 358.383C311.016 358.383 311.078 358.383 311.125 358.383C311.188 358.367 311.25 358.352 311.312 358.336C311.578 358.664 311.914 358.914 312.32 359.086C312.414 359.32 312.523 359.523 312.648 359.695C312.789 359.867 312.93 360.039 313.07 360.211C313.211 360.367 313.336 360.547 313.445 360.75C313.57 360.938 313.648 361.164 313.68 361.43ZM311.336 362.648C311.336 362.57 311.328 362.5 311.312 362.438C311.156 362.391 311.008 362.328 310.867 362.25C310.727 362.172 310.57 362.133 310.398 362.133C310.289 362.133 310.18 362.156 310.07 362.203C310.055 362.094 310.008 362.016 309.93 361.969C309.867 361.922 309.789 361.883 309.695 361.852C309.617 361.805 309.531 361.773 309.438 361.758C309.359 361.727 309.289 361.68 309.227 361.617C309.18 361.492 309.125 361.367 309.062 361.242C309.016 361.102 308.922 361 308.781 360.938C308.641 361.078 308.477 361.195 308.289 361.289C308.102 361.367 307.906 361.445 307.703 361.523C307.516 361.602 307.328 361.695 307.141 361.805C306.969 361.914 306.82 362.047 306.695 362.203H306.273C306.18 362.375 306.047 362.508 305.875 362.602C305.703 362.68 305.555 362.797 305.43 362.953C305.18 363.078 304.945 363.234 304.727 363.422C304.523 363.594 304.32 363.781 304.117 363.984C303.914 364.172 303.711 364.367 303.508 364.57C303.32 364.773 303.117 364.961 302.898 365.133C302.695 365.57 302.469 365.953 302.219 366.281C301.984 366.594 301.758 366.914 301.539 367.242C301.336 367.57 301.156 367.93 301 368.32C300.859 368.695 300.789 369.164 300.789 369.727V369.961C300.789 370.039 300.797 370.117 300.812 370.195C301.016 370.414 301.18 370.648 301.305 370.898C301.445 371.148 301.672 371.328 301.984 371.438C302.297 371.562 302.625 371.617 302.969 371.602C303.328 371.586 303.672 371.625 304 371.719C304.75 371.578 305.469 371.352 306.156 371.039C306.859 370.711 307.523 370.32 308.148 369.867C308.242 369.789 308.352 369.711 308.477 369.633C308.602 369.539 308.703 369.445 308.781 369.352C308.859 369.273 308.922 369.188 308.969 369.094C309.031 369 309.094 368.914 309.156 368.836C309.281 368.633 309.422 368.43 309.578 368.227C309.734 368.023 309.898 367.836 310.07 367.664C310.148 367.32 310.25 366.992 310.375 366.68C310.5 366.352 310.625 366.031 310.75 365.719C310.875 365.406 310.977 365.086 311.055 364.758C311.148 364.43 311.195 364.086 311.195 363.727C311.195 363.648 311.188 363.562 311.172 363.469C311.172 363.375 311.164 363.289 311.148 363.211C311.273 363.039 311.336 362.852 311.336 362.648ZM330.133 361.43C330.039 361.57 329.984 361.727 329.969 361.898C329.953 362.07 329.945 362.227 329.945 362.367C329.945 362.555 329.945 362.742 329.945 362.93C329.961 363.102 329.969 363.273 329.969 363.445V363.797C329.938 363.906 329.891 364.016 329.828 364.125C329.766 364.234 329.719 364.344 329.688 364.453C329.469 365.031 329.359 365.609 329.359 366.188V366.234C329.281 366.422 329.203 366.594 329.125 366.75C329.062 366.906 329 367.062 328.938 367.219C328.875 367.359 328.828 367.516 328.797 367.688C328.766 367.844 328.758 368.031 328.773 368.25C328.555 368.797 328.266 369.297 327.906 369.75C327.547 370.188 327.195 370.641 326.852 371.109C326.523 371.234 326.219 371.398 325.938 371.602C325.672 371.805 325.414 372.031 325.164 372.281C324.68 372.438 324.203 372.617 323.734 372.82C323.266 373.023 322.844 373.297 322.469 373.641C322.172 373.672 321.875 373.719 321.578 373.781C321.281 373.844 320.992 373.938 320.711 374.062H320.43C320.289 374.062 320.188 374.031 320.125 373.969C319.922 374.078 319.711 374.156 319.492 374.203C319.273 374.234 319.055 374.25 318.836 374.25C318.555 374.25 318.273 374.234 317.992 374.203C317.727 374.156 317.453 374.109 317.172 374.062C317.016 373.844 316.797 373.68 316.516 373.57C316.234 373.445 315.984 373.328 315.766 373.219C315.312 372.594 314.984 371.992 314.781 371.414C314.578 370.82 314.367 370.156 314.148 369.422C314.18 369.203 314.234 368.992 314.312 368.789C314.391 368.57 314.422 368.336 314.406 368.086C314.688 367.273 315.055 366.539 315.508 365.883C315.977 365.211 316.508 364.57 317.102 363.961C317.102 363.867 317.117 363.789 317.148 363.727C317.195 363.664 317.203 363.57 317.172 363.445C317.188 363.461 317.219 363.469 317.266 363.469C317.391 363.469 317.469 363.438 317.5 363.375C317.531 363.297 317.539 363.211 317.523 363.117C318.086 362.758 318.594 362.344 319.047 361.875C319.516 361.406 320.047 361.016 320.641 360.703C320.688 360.562 320.766 360.445 320.875 360.352C320.984 360.258 321.07 360.148 321.133 360.023C321.633 359.883 322.086 359.672 322.492 359.391C322.898 359.109 323.328 358.859 323.781 358.641C324.031 358.5 324.266 358.406 324.484 358.359C324.719 358.297 324.969 358.234 325.234 358.172C325.328 358.141 325.414 358.117 325.492 358.102C325.57 358.086 325.656 358.078 325.75 358.078C326.031 358.078 326.305 358.133 326.57 358.242C326.836 358.336 327.109 358.383 327.391 358.383C327.469 358.383 327.531 358.383 327.578 358.383C327.641 358.367 327.703 358.352 327.766 358.336C328.031 358.664 328.367 358.914 328.773 359.086C328.867 359.32 328.977 359.523 329.102 359.695C329.242 359.867 329.383 360.039 329.523 360.211C329.664 360.367 329.789 360.547 329.898 360.75C330.023 360.938 330.102 361.164 330.133 361.43ZM327.789 362.648C327.789 362.57 327.781 362.5 327.766 362.438C327.609 362.391 327.461 362.328 327.32 362.25C327.18 362.172 327.023 362.133 326.852 362.133C326.742 362.133 326.633 362.156 326.523 362.203C326.508 362.094 326.461 362.016 326.383 361.969C326.32 361.922 326.242 361.883 326.148 361.852C326.07 361.805 325.984 361.773 325.891 361.758C325.812 361.727 325.742 361.68 325.68 361.617C325.633 361.492 325.578 361.367 325.516 361.242C325.469 361.102 325.375 361 325.234 360.938C325.094 361.078 324.93 361.195 324.742 361.289C324.555 361.367 324.359 361.445 324.156 361.523C323.969 361.602 323.781 361.695 323.594 361.805C323.422 361.914 323.273 362.047 323.148 362.203H322.727C322.633 362.375 322.5 362.508 322.328 362.602C322.156 362.68 322.008 362.797 321.883 362.953C321.633 363.078 321.398 363.234 321.18 363.422C320.977 363.594 320.773 363.781 320.57 363.984C320.367 364.172 320.164 364.367 319.961 364.57C319.773 364.773 319.57 364.961 319.352 365.133C319.148 365.57 318.922 365.953 318.672 366.281C318.438 366.594 318.211 366.914 317.992 367.242C317.789 367.57 317.609 367.93 317.453 368.32C317.312 368.695 317.242 369.164 317.242 369.727V369.961C317.242 370.039 317.25 370.117 317.266 370.195C317.469 370.414 317.633 370.648 317.758 370.898C317.898 371.148 318.125 371.328 318.438 371.438C318.75 371.562 319.078 371.617 319.422 371.602C319.781 371.586 320.125 371.625 320.453 371.719C321.203 371.578 321.922 371.352 322.609 371.039C323.312 370.711 323.977 370.32 324.602 369.867C324.695 369.789 324.805 369.711 324.93 369.633C325.055 369.539 325.156 369.445 325.234 369.352C325.312 369.273 325.375 369.188 325.422 369.094C325.484 369 325.547 368.914 325.609 368.836C325.734 368.633 325.875 368.43 326.031 368.227C326.188 368.023 326.352 367.836 326.523 367.664C326.602 367.32 326.703 366.992 326.828 366.68C326.953 366.352 327.078 366.031 327.203 365.719C327.328 365.406 327.43 365.086 327.508 364.758C327.602 364.43 327.648 364.086 327.648 363.727C327.648 363.648 327.641 363.562 327.625 363.469C327.625 363.375 327.617 363.289 327.602 363.211C327.727 363.039 327.789 362.852 327.789 362.648ZM347.172 359.602C347.141 359.789 347.094 359.953 347.031 360.094C346.984 360.219 346.977 360.391 347.008 360.609C346.852 360.625 346.727 360.68 346.633 360.773C346.555 360.852 346.484 360.945 346.422 361.055C346.375 361.164 346.32 361.281 346.258 361.406C346.211 361.516 346.148 361.617 346.07 361.711C346.195 362.273 346.266 362.844 346.281 363.422C346.297 364 346.336 364.57 346.398 365.133C346.477 365.852 346.594 366.562 346.75 367.266C346.922 367.953 347.008 368.656 347.008 369.375C347.008 369.594 347 369.797 346.984 369.984C346.984 370.172 346.984 370.367 346.984 370.57C346.984 370.695 346.984 370.828 346.984 370.969C347 371.094 347.008 371.219 347.008 371.344C347.008 371.797 346.945 372.25 346.82 372.703C346.711 373.156 346.625 373.609 346.562 374.062C346.375 374.234 346.211 374.422 346.07 374.625C345.945 374.828 345.812 375.016 345.672 375.188C345.531 375.359 345.367 375.508 345.18 375.633C344.992 375.773 344.758 375.867 344.477 375.914C344.43 376.07 344.336 376.188 344.195 376.266C344.07 376.344 343.961 376.453 343.867 376.594H343.82C343.43 376.594 343.094 376.539 342.812 376.43C342.531 376.32 342.266 376.195 342.016 376.055C341.781 375.914 341.539 375.766 341.289 375.609C341.039 375.453 340.75 375.328 340.422 375.234C339.984 374.875 339.586 374.484 339.227 374.062C338.867 373.625 338.461 373.234 338.008 372.891C337.898 372.578 337.75 372.32 337.562 372.117C337.391 371.914 337.219 371.68 337.047 371.414C336.969 371.305 336.906 371.203 336.859 371.109C336.828 371.016 336.781 370.906 336.719 370.781C336.672 370.656 336.594 370.57 336.484 370.523C336.391 370.477 336.305 370.422 336.227 370.359C336.102 369.875 335.922 369.43 335.688 369.023C335.453 368.617 335.18 368.227 334.867 367.852C334.773 368.023 334.695 368.211 334.633 368.414C334.586 368.602 334.539 368.797 334.492 369C334.445 369.188 334.383 369.383 334.305 369.586C334.242 369.773 334.156 369.945 334.047 370.102V370.172C334.047 370.25 334.078 370.297 334.141 370.312C334.203 370.328 334.234 370.375 334.234 370.453C334.234 370.469 334.227 370.484 334.211 370.5C334.211 370.516 334.211 370.531 334.211 370.547C334.133 370.609 334.07 370.688 334.023 370.781C333.992 370.875 333.914 370.93 333.789 370.945C333.805 371.023 333.812 371.102 333.812 371.18V371.391C333.812 371.844 333.758 372.297 333.648 372.75C333.555 373.203 333.508 373.664 333.508 374.133V374.438C333.508 374.547 333.516 374.648 333.531 374.742C333.562 374.836 333.609 374.93 333.672 375.023C333.734 375.117 333.766 375.203 333.766 375.281C333.766 375.391 333.719 375.492 333.625 375.586C333.734 375.664 333.859 375.75 334 375.844C334.141 375.938 334.266 376.039 334.375 376.148C334.5 376.273 334.602 376.398 334.68 376.523C334.758 376.664 334.797 376.812 334.797 376.969C334.797 377.234 334.711 377.422 334.539 377.531C334.367 377.641 334.156 377.727 333.906 377.789C333.672 377.852 333.422 377.906 333.156 377.953C332.906 378.016 332.695 378.117 332.523 378.258H332.453C332.266 378.258 332.125 378.203 332.031 378.094C331.938 377.984 331.797 377.93 331.609 377.93C331.312 377.445 331.109 376.898 331 376.289C330.891 375.695 330.836 375.125 330.836 374.578C330.836 373.906 330.898 373.234 331.023 372.562C331.133 371.891 331.273 371.227 331.445 370.57C331.602 369.914 331.773 369.266 331.961 368.625C332.164 367.969 332.352 367.312 332.523 366.656L332.547 366.586C332.547 366.508 332.523 366.453 332.477 366.422C332.445 366.391 332.43 366.344 332.43 366.281C332.43 366.25 332.438 366.234 332.453 366.234C332.5 366.078 332.547 365.93 332.594 365.789C332.656 365.648 332.703 365.492 332.734 365.32C332.828 364.883 332.891 364.438 332.922 363.984C332.969 363.516 332.992 363.055 332.992 362.602C333.008 362.148 333.023 361.695 333.039 361.242C333.07 360.773 333.125 360.312 333.203 359.859C333.328 359.734 333.445 359.602 333.555 359.461C333.664 359.32 333.805 359.195 333.977 359.086C334.289 359.102 334.602 359.148 334.914 359.227C335.227 359.305 335.523 359.43 335.805 359.602C335.992 360.273 336.117 360.945 336.18 361.617C336.258 362.289 336.383 362.961 336.555 363.633V363.703C336.555 363.781 336.594 363.82 336.672 363.82C336.766 363.805 336.836 363.828 336.883 363.891C336.852 363.938 336.828 363.992 336.812 364.055C336.812 364.117 336.812 364.18 336.812 364.242V364.641C336.844 364.766 336.883 364.898 336.93 365.039C336.977 365.18 337.078 365.266 337.234 365.297C337.312 365.797 337.43 366.258 337.586 366.68C337.742 367.102 337.922 367.508 338.125 367.898C338.328 368.289 338.547 368.68 338.781 369.07C339.016 369.445 339.258 369.844 339.508 370.266C339.898 370.562 340.234 370.906 340.516 371.297C340.797 371.672 341.078 372.039 341.359 372.398C341.656 372.742 341.984 373.047 342.344 373.312C342.719 373.578 343.203 373.742 343.797 373.805C343.875 373.742 343.93 373.656 343.961 373.547L344.078 373.219C344.125 373.109 344.172 373.016 344.219 372.938C344.281 372.844 344.367 372.773 344.477 372.727C344.508 372.289 344.539 371.844 344.57 371.391C344.617 370.938 344.719 370.508 344.875 370.102C344.797 369.961 344.758 369.789 344.758 369.586C344.758 369.43 344.766 369.281 344.781 369.141C344.812 369 344.828 368.859 344.828 368.719C344.828 368.422 344.766 368.18 344.641 367.992C344.641 367.883 344.648 367.773 344.664 367.664C344.68 367.539 344.727 367.422 344.805 367.312C344.68 367 344.578 366.672 344.5 366.328C344.438 365.984 344.406 365.633 344.406 365.273C344.406 365.07 344.43 364.859 344.477 364.641C344.383 364.406 344.32 364.133 344.289 363.82L344.195 362.859C344.164 362.531 344.117 362.227 344.055 361.945C343.992 361.664 343.875 361.438 343.703 361.266C343.797 361.125 343.844 360.961 343.844 360.773C343.844 360.461 343.797 360.164 343.703 359.883C343.609 359.602 343.562 359.305 343.562 358.992C343.562 358.773 343.609 358.555 343.703 358.336C344.047 358.352 344.383 358.391 344.711 358.453C345.055 358.5 345.391 358.523 345.719 358.523C345.812 358.648 345.922 358.75 346.047 358.828C346.172 358.906 346.305 358.984 346.445 359.062C346.586 359.125 346.719 359.195 346.844 359.273C346.984 359.352 347.094 359.461 347.172 359.602Z" fill="#3F3D56"/>
<circle cx="328" cy="157" r="47" fill="#F3F3F3"/>
<circle cx="328" cy="157" r="37.5" stroke="#CCCCCC" stroke-width="3"/>
<path d="M325.241 153.86C324.344 153.554 314.645 160.795 309.908 164.454L299.647 161.3L296.841 163.042L306.194 170.711L307.627 180.422L310.433 178.68L312.483 168.604C315.55 167.851 324.681 162.352 328.863 159.697L332.446 182.265L337.675 179.02L338.579 166.242L343.936 162.918C344.956 162.285 344.903 161.06 344.259 160.022C343.744 159.192 342.326 159.186 341.682 159.286L339.514 160.632L340.034 151.506L351.003 144.698C352.039 143.996 353.283 141.882 352.28 140.493C351.276 139.103 349.343 139.082 347.944 139.77L336.21 147.052L327.962 143.727C328.457 143.48 329.736 142.77 330.896 141.906C332.346 140.827 332.057 140.647 331.541 139.53C331.128 138.636 329.544 138.494 328.803 138.534L323.446 141.859L311.837 137.386L306.607 140.632C313.192 145.169 326.137 154.166 325.241 153.86Z" fill="#1794FB"/>
<rect x="363" y="47" width="24" height="347" fill="#AF7136"/>
<circle cx="194" cy="318" r="36" fill="white"/>
<path d="M191.147 303.531C192.045 300.767 195.955 300.767 196.853 303.531L198.546 308.742C198.948 309.978 200.1 310.815 201.4 310.815H206.879C209.785 310.815 210.994 314.534 208.642 316.242L204.209 319.463C203.158 320.227 202.718 321.581 203.12 322.817L204.813 328.028C205.711 330.792 202.547 333.091 200.196 331.383L195.763 328.162C194.712 327.398 193.288 327.398 192.237 328.162L187.804 331.383C185.453 333.091 182.289 330.792 183.187 328.028L184.88 322.817C185.282 321.581 184.842 320.227 183.791 319.463L179.358 316.242C177.006 314.534 178.215 310.815 181.121 310.815H186.6C187.9 310.815 189.052 309.978 189.454 308.742L191.147 303.531Z" fill="#FBCB41"/>
<circle cx="194" cy="318" r="28" stroke="#FBCB41" stroke-width="4"/>
</svg>
