<svg width="200" height="200" viewBox="0 0 200 200" fill="none" xmlns="http://www.w3.org/2000/svg">
<path d="M159.516 19.004C136.427 7.36267 126.937 23.8545 125.077 33.5556L165.094 67.7519C172.855 56.3531 182.605 30.6453 159.516 19.004Z" fill="#D2BE92"/>
<path d="M23.6566 57.3931C44.2229 35.0806 55.0234 48.0962 57.8529 57.3931L31.1749 102.988C20.0995 97.0867 3.09029 79.7056 23.6566 57.3931Z" fill="#C8A976"/>
<path d="M41.5196 155.908C54.9071 183.265 87.0338 187.194 101.424 185.739C127.132 180.646 134.407 174.098 155.75 165.124C177.092 156.151 193.099 128.988 180.972 83.6351C171.374 47.7366 136.259 35.7074 120.248 33.2645C119.903 33.2118 119.578 33.2 119.229 33.2251C103.324 34.3731 69.6464 40.5639 51.2207 63.0203C27.9381 91.3959 24.7852 121.712 41.5196 155.908Z" fill="#CDB788"/>
<path d="M79.0882 111.188C65.6985 155.321 94.0863 173.884 109.954 177.649C154.946 172.597 153.359 129.509 144.514 108.366C143.965 107.053 143.222 105.83 142.304 104.742C128.015 87.7843 92.0504 68.463 79.0882 111.188Z" fill="#C1A976"/>
<rect x="76.373" y="102.92" width="3.88043" height="6.3057" rx="1.94022" transform="rotate(13.2023 76.373 102.92)" fill="#2C2C2C"/>
<rect x="127.57" y="90.0984" width="3.88043" height="6.3057" rx="1.94022" transform="rotate(-39.9314 127.57 90.0984)" fill="#2C2C2C"/>
<path d="M93.9595 112.346C93.013 108.333 95.0028 104.204 98.7318 102.444L102.609 100.615C108.212 97.9705 114.77 101.532 115.603 107.671C116.234 112.32 113.252 116.695 108.695 117.808L104.53 118.825C99.8188 119.975 95.0727 117.066 93.9595 112.346Z" fill="#402F20"/>
</svg>
