<svg width="1440" height="1024" viewBox="0 0 1440 1024" fill="none" xmlns="http://www.w3.org/2000/svg">
<rect width="1440" height="1024" fill="#ACF0F4"/>
<path fill-rule="evenodd" clip-rule="evenodd" d="M1119.81 204.148C1116.63 184.712 1099.75 169.881 1079.42 169.881C1076.82 169.881 1074.28 170.123 1071.82 170.585C1068.29 155.98 1055.13 145.133 1039.44 145.133C1036.57 145.133 1033.79 145.495 1031.14 146.176C1023.59 135.198 1010.94 128 996.607 128C977.42 128 961.247 140.902 956.29 158.504C955.772 158.474 955.251 158.459 954.726 158.459C940.007 158.459 928.074 170.392 928.074 185.111C917.56 185.111 909.037 193.634 909.037 204.148L904.278 204.148C896.392 204.148 890 210.54 890 218.426C890 226.311 896.392 232.704 904.278 232.704H1132.72C1140.61 232.704 1147 226.311 1147 218.426C1147 210.54 1140.61 204.148 1132.72 204.148H1119.81Z" fill="#E9E9DD"/>
<mask id="mask0" mask-type="alpha" maskUnits="userSpaceOnUse" x="890" y="128" width="257" height="105">
<path fill-rule="evenodd" clip-rule="evenodd" d="M1119.81 204.148C1116.63 184.712 1099.75 169.881 1079.42 169.881C1076.82 169.881 1074.28 170.123 1071.82 170.585C1068.29 155.98 1055.13 145.133 1039.44 145.133C1036.57 145.133 1033.79 145.495 1031.14 146.176C1023.59 135.198 1010.94 128 996.607 128C977.42 128 961.247 140.902 956.29 158.504C955.772 158.474 955.251 158.459 954.726 158.459C940.007 158.459 928.074 170.392 928.074 185.111C917.56 185.111 909.037 193.634 909.037 204.148L904.278 204.148C896.392 204.148 890 210.54 890 218.426C890 226.311 896.392 232.704 904.278 232.704H1132.72C1140.61 232.704 1147 226.311 1147 218.426C1147 210.54 1140.61 204.148 1132.72 204.148H1119.81Z" fill="#F6F6EB"/>
</mask>
<g mask="url(#mask0)">
<ellipse cx="821" cy="-165.5" rx="482" ry="424.5" fill="#F6F6EB"/>
</g>
<path fill-rule="evenodd" clip-rule="evenodd" d="M289.019 308.538C291.06 309.038 293.192 309.304 295.387 309.304C297.577 309.304 299.705 309.04 301.742 308.541L485.84 308.587C493.725 308.589 500.119 302.199 500.121 294.313C500.123 286.528 493.894 280.196 486.146 280.035C486.579 278.442 486.809 276.767 486.809 275.037C486.809 264.523 478.286 256 467.772 256C467.582 256 467.392 256.003 467.203 256.008C465.543 239.161 451.333 226 434.05 226C432.398 226 430.774 226.12 429.187 226.352C422.35 212.516 408.094 203 391.617 203C371.126 203 354.073 217.715 350.447 237.153C345.59 235.122 340.258 234 334.665 234C318.827 234 305.09 242.995 298.285 256.156C297.333 256.053 296.366 256 295.387 256C281.57 256 270.209 266.514 268.868 279.978L223.281 279.966C215.396 279.964 209.002 286.355 209 294.24C208.998 302.126 215.389 308.52 223.274 308.522L289.019 308.538Z" fill="#E9E9DD"/>
<mask id="mask1" mask-type="alpha" maskUnits="userSpaceOnUse" x="209" y="203" width="292" height="107">
<path fill-rule="evenodd" clip-rule="evenodd" d="M289.019 308.538C291.06 309.038 293.192 309.304 295.387 309.304C297.577 309.304 299.705 309.04 301.742 308.541L485.84 308.587C493.725 308.589 500.119 302.199 500.121 294.313C500.123 286.528 493.894 280.196 486.146 280.035C486.579 278.442 486.809 276.767 486.809 275.037C486.809 264.523 478.286 256 467.772 256C467.582 256 467.392 256.003 467.203 256.008C465.543 239.161 451.333 226 434.05 226C432.398 226 430.774 226.12 429.187 226.352C422.35 212.516 408.094 203 391.617 203C371.126 203 354.073 217.715 350.447 237.153C345.59 235.122 340.258 234 334.665 234C318.827 234 305.09 242.995 298.285 256.156C297.333 256.053 296.366 256 295.387 256C281.57 256 270.209 266.514 268.868 279.978L223.281 279.966C215.396 279.964 209.002 286.355 209 294.24C208.998 302.126 215.389 308.52 223.274 308.522L289.019 308.538Z" fill="#F6F6EB"/>
</mask>
<g mask="url(#mask1)">
<path d="M1031.51 -30.904C1084 89.2945 970.609 254.833 778.245 338.835C585.881 422.838 278.489 291.698 226 171.5C173.511 51.3014 395.801 -12.4389 588.165 -96.4418C780.53 -180.445 979.023 -151.103 1031.51 -30.904Z" fill="#F6F6EB"/>
</g>
<path fill-rule="evenodd" clip-rule="evenodd" d="M325.246 697.519C323.636 687.687 315.102 680.185 304.815 680.185C303.502 680.185 302.217 680.307 300.972 680.541C299.185 673.154 292.529 667.667 284.593 667.667C283.143 667.667 281.736 667.85 280.393 668.194C276.574 662.641 270.175 659 262.926 659C253.22 659 245.039 665.527 242.532 674.43C242.27 674.415 242.006 674.407 241.741 674.407C234.295 674.407 228.259 680.443 228.259 687.889L228.259 687.889C222.941 687.889 218.63 692.2 218.63 697.519C218.63 697.519 218.63 697.519 218.63 697.519H216.222C212.234 697.519 209 700.752 209 704.741C209 708.729 212.234 711.963 216.222 711.963H331.778C335.767 711.963 339 708.729 339 704.741C339 700.752 335.767 697.519 331.778 697.519H325.246Z" fill="#E9E9DD"/>
<mask id="mask2" mask-type="alpha" maskUnits="userSpaceOnUse" x="209" y="659" width="130" height="53">
<path fill-rule="evenodd" clip-rule="evenodd" d="M325.246 697.519C323.636 687.687 315.102 680.185 304.815 680.185C303.502 680.185 302.217 680.307 300.972 680.541C299.185 673.154 292.529 667.667 284.593 667.667C283.143 667.667 281.736 667.85 280.393 668.194C276.574 662.641 270.175 659 262.926 659C253.22 659 245.039 665.527 242.532 674.43C242.27 674.415 242.006 674.407 241.741 674.407C234.295 674.407 228.259 680.443 228.259 687.889L228.259 687.889C222.941 687.889 218.63 692.2 218.63 697.519C218.63 697.519 218.63 697.519 218.63 697.519H216.222C212.234 697.519 209 700.752 209 704.741C209 708.729 212.234 711.963 216.222 711.963H331.778C335.767 711.963 339 708.729 339 704.741C339 700.752 335.767 697.519 331.778 697.519H325.246Z" fill="#F6F6EB"/>
</mask>
<g mask="url(#mask2)">
<ellipse cx="174.097" cy="510.537" rx="243.813" ry="214.728" fill="#F6F6EB"/>
</g>
<path fill-rule="evenodd" clip-rule="evenodd" d="M1009.94 832.503C1011.26 832.828 1012.65 833 1014.07 833C1015.49 833 1016.88 832.829 1018.2 832.505L1137.69 832.535C1142.81 832.536 1146.96 828.388 1146.96 823.27C1146.96 818.216 1142.92 814.107 1137.89 814.002C1138.17 812.968 1138.32 811.881 1138.32 810.758C1138.32 803.934 1132.79 798.401 1125.96 798.401C1125.84 798.401 1125.72 798.403 1125.6 798.407C1124.52 787.472 1115.29 778.929 1104.08 778.929C1103 778.929 1101.95 779.007 1100.92 779.158C1096.48 770.177 1087.23 764 1076.53 764C1063.23 764 1052.16 773.551 1049.81 786.168C1046.66 784.85 1043.2 784.122 1039.57 784.122C1029.29 784.122 1020.37 789.96 1015.95 798.503C1015.34 798.436 1014.71 798.401 1014.07 798.401C1005.1 798.401 997.73 805.226 996.859 813.965L967.27 813.958C962.152 813.956 958.001 818.104 958 823.223C957.999 828.341 962.147 832.491 967.265 832.492L1009.94 832.503Z" fill="#E9E9DD"/>
<mask id="mask3" mask-type="alpha" maskUnits="userSpaceOnUse" x="958" y="764" width="189" height="69">
<path fill-rule="evenodd" clip-rule="evenodd" d="M1009.94 832.503C1011.26 832.828 1012.65 833 1014.07 833C1015.49 833 1016.88 832.829 1018.2 832.505L1137.69 832.535C1142.81 832.536 1146.96 828.388 1146.96 823.27C1146.96 818.216 1142.92 814.107 1137.89 814.002C1138.17 812.968 1138.32 811.881 1138.32 810.758C1138.32 803.934 1132.79 798.401 1125.96 798.401C1125.84 798.401 1125.72 798.403 1125.6 798.407C1124.52 787.472 1115.29 778.929 1104.08 778.929C1103 778.929 1101.95 779.007 1100.92 779.158C1096.48 770.177 1087.23 764 1076.53 764C1063.23 764 1052.16 773.551 1049.81 786.168C1046.66 784.85 1043.2 784.122 1039.57 784.122C1029.29 784.122 1020.37 789.96 1015.95 798.503C1015.34 798.436 1014.71 798.401 1014.07 798.401C1005.1 798.401 997.73 805.226 996.859 813.965L967.27 813.958C962.152 813.956 958.001 818.104 958 823.223C957.999 828.341 962.147 832.491 967.265 832.492L1009.94 832.503Z" fill="#F6F6EB"/>
</mask>
<g mask="url(#mask3)">
<path d="M1491.88 612.177C1525.95 690.196 1452.35 797.644 1327.49 852.169C1202.63 906.694 1003.1 821.573 969.034 743.554C934.965 665.535 1079.25 624.162 1204.11 569.637C1328.97 515.112 1457.81 534.158 1491.88 612.177Z" fill="#F6F6EB"/>
</g>
</svg>
