<svg width="292" height="107" viewBox="0 0 292 107" fill="none" xmlns="http://www.w3.org/2000/svg">
<path fill-rule="evenodd" clip-rule="evenodd" d="M80.0194 105.538C82.0597 106.038 84.1924 106.304 86.387 106.304C88.5769 106.304 90.7051 106.04 92.7416 105.541L276.84 105.587C284.725 105.589 291.119 99.1986 291.121 91.3132C291.123 83.5278 284.894 77.1962 277.146 77.035C277.579 75.4423 277.809 73.7666 277.809 72.037C277.809 61.5232 269.286 53 258.772 53C258.582 53 258.392 53.0028 258.203 53.0084C256.543 36.1613 242.333 23 225.05 23C223.398 23 221.774 23.1202 220.187 23.3524C213.35 9.51607 199.094 0 182.617 0C162.126 0 145.073 14.7147 141.447 34.1535C136.59 32.1221 131.258 31 125.665 31C109.827 31 96.0904 39.9954 89.2851 53.1558C88.3332 53.0528 87.3663 53 86.387 53C72.5701 53 61.209 63.5139 59.8676 76.9777L14.2813 76.9663C6.39595 76.9643 0.00197138 83.3551 4.55284e-07 91.2405C-0.00196945 99.1259 6.38882 105.52 14.2742 105.522L80.0194 105.538Z" fill="#E9E9DD"/>
<mask id="mask0" mask-type="alpha" maskUnits="userSpaceOnUse" x="0" y="0" width="292" height="107">
<path fill-rule="evenodd" clip-rule="evenodd" d="M80.0194 105.538C82.0597 106.038 84.1924 106.304 86.387 106.304C88.5769 106.304 90.7051 106.04 92.7416 105.541L276.84 105.587C284.725 105.589 291.119 99.1986 291.121 91.3132C291.123 83.5278 284.894 77.1962 277.146 77.035C277.579 75.4423 277.809 73.7666 277.809 72.037C277.809 61.5232 269.286 53 258.772 53C258.582 53 258.392 53.0028 258.203 53.0084C256.543 36.1613 242.333 23 225.05 23C223.398 23 221.774 23.1202 220.187 23.3524C213.35 9.51607 199.094 0 182.617 0C162.126 0 145.073 14.7147 141.447 34.1535C136.59 32.1221 131.258 31 125.665 31C109.827 31 96.0904 39.9954 89.2851 53.1558C88.3332 53.0528 87.3663 53 86.387 53C72.5701 53 61.209 63.5139 59.8676 76.9777L14.2813 76.9663C6.39595 76.9643 0.00197138 83.3551 4.55284e-07 91.2405C-0.00196945 99.1259 6.38882 105.52 14.2742 105.522L80.0194 105.538Z" fill="#F6F6EB"/>
</mask>
<g mask="url(#mask0)">
<path d="M822.512 -233.904C875.001 -113.705 761.609 51.8326 569.245 135.835C376.881 219.838 69.4891 88.6984 17 -31.5001C-35.4891 -151.699 186.801 -215.439 379.165 -299.442C571.53 -383.445 770.023 -354.103 822.512 -233.904Z" fill="#F6F6EB"/>
</g>
</svg>
