<svg width="656" height="370" viewBox="0 0 656 370" fill="none" xmlns="http://www.w3.org/2000/svg">
<rect width="656" height="370" fill="#BCD1FF"/>
<path d="M353.887 176.6C338.662 185.501 319.827 185.532 304.572 176.682L0.000138768 3.68583e-06L656 6.10352e-05L353.887 176.6Z" fill="#819BD4"/>
<path d="M41.296 302.152H34.72V298.12H53.104V302.152H46.72V337H41.296V302.152ZM63.4896 337.384C60.5456 337.384 58.4496 336.52 57.2016 334.792C55.9856 333.032 55.3776 330.488 55.3776 327.16V319.096C55.3776 315.768 55.9856 313.24 57.2016 311.512C58.4496 309.752 60.5456 308.872 63.4896 308.872C66.4016 308.872 68.4656 309.752 69.6816 311.512C70.9296 313.24 71.5536 315.768 71.5536 319.096V327.16C71.5536 330.488 70.9296 333.032 69.6816 334.792C68.4656 336.52 66.4016 337.384 63.4896 337.384ZM63.4896 333.592C64.4176 333.592 65.0896 333.32 65.5056 332.776C65.9216 332.232 66.1776 331.56 66.2736 330.76C66.3696 329.96 66.4176 328.872 66.4176 327.496V318.808C66.4176 317.432 66.3696 316.344 66.2736 315.544C66.1776 314.712 65.9216 314.024 65.5056 313.48C65.0896 312.936 64.4176 312.664 63.4896 312.664C62.5616 312.664 61.8736 312.936 61.4256 313.48C61.0096 314.024 60.7536 314.712 60.6576 315.544C60.5616 316.344 60.5136 317.432 60.5136 318.808V327.496C60.5136 328.872 60.5616 329.96 60.6576 330.76C60.7536 331.56 61.0096 332.232 61.4256 332.776C61.8736 333.32 62.5616 333.592 63.4896 333.592ZM76.0083 331.288H81.1443V337H76.0083V331.288ZM94.0079 334.024C95.6399 334.024 96.8399 333.88 97.6079 333.592C98.4079 333.272 98.9519 332.712 99.2399 331.912C99.5279 331.08 99.6719 329.816 99.6719 328.12V298.12H105.048V328.216C105.048 330.552 104.808 332.424 104.328 333.832C103.848 335.208 102.984 336.232 101.736 336.904C100.52 337.576 98.8079 337.912 96.5999 337.912H94.0079V334.024ZM111.037 299.752H116.173V305.128H111.037V299.752ZM111.037 309.256H116.173V337H111.037V309.256ZM121.814 298.12H126.95V312.136C129.254 309.96 131.574 308.872 133.91 308.872C135.414 308.872 136.47 309.416 137.078 310.504C137.718 311.592 138.038 312.936 138.038 314.536V337H132.902V316.024C132.902 314.968 132.742 314.184 132.422 313.672C132.102 313.16 131.526 312.904 130.694 312.904C129.574 312.904 128.326 313.512 126.95 314.728V337H121.814V298.12ZM150.677 337.384C147.733 337.384 145.637 336.52 144.389 334.792C143.173 333.032 142.565 330.488 142.565 327.16V319.096C142.565 315.768 143.173 313.24 144.389 311.512C145.637 309.752 147.733 308.872 150.677 308.872C153.589 308.872 155.653 309.752 156.869 311.512C158.117 313.24 158.741 315.768 158.741 319.096V327.16C158.741 330.488 158.117 333.032 156.869 334.792C155.653 336.52 153.589 337.384 150.677 337.384ZM150.677 333.592C151.605 333.592 152.277 333.32 152.693 332.776C153.109 332.232 153.365 331.56 153.461 330.76C153.557 329.96 153.605 328.872 153.605 327.496V318.808C153.605 317.432 153.557 316.344 153.461 315.544C153.365 314.712 153.109 314.024 152.693 313.48C152.277 312.936 151.605 312.664 150.677 312.664C149.749 312.664 149.061 312.936 148.613 313.48C148.197 314.024 147.941 314.712 147.845 315.544C147.749 316.344 147.701 317.432 147.701 318.808V327.496C147.701 328.872 147.749 329.96 147.845 330.76C147.941 331.56 148.197 332.232 148.613 332.776C149.061 333.32 149.749 333.592 150.677 333.592ZM171.068 337.384C168.124 337.384 166.028 336.52 164.78 334.792C163.564 333.032 162.956 330.488 162.956 327.16V319.096C162.956 315.768 163.564 313.24 164.78 311.512C166.028 309.752 168.124 308.872 171.068 308.872C173.98 308.872 176.044 309.752 177.26 311.512C178.508 313.24 179.132 315.768 179.132 319.096V327.16C179.132 330.488 178.508 333.032 177.26 334.792C176.044 336.52 173.98 337.384 171.068 337.384ZM171.068 333.592C171.996 333.592 172.668 333.32 173.084 332.776C173.5 332.232 173.756 331.56 173.852 330.76C173.948 329.96 173.996 328.872 173.996 327.496V318.808C173.996 317.432 173.948 316.344 173.852 315.544C173.756 314.712 173.5 314.024 173.084 313.48C172.668 312.936 171.996 312.664 171.068 312.664C170.14 312.664 169.452 312.936 169.004 313.48C168.588 314.024 168.332 314.712 168.236 315.544C168.14 316.344 168.092 317.432 168.092 318.808V327.496C168.092 328.872 168.14 329.96 168.236 330.76C168.332 331.56 168.588 332.232 169.004 332.776C169.452 333.32 170.14 333.592 171.068 333.592ZM183.826 309.256H188.962V311.992C191.17 309.912 193.426 308.872 195.73 308.872C197.234 308.872 198.306 309.416 198.946 310.504C199.586 311.592 199.906 312.936 199.906 314.536V337H194.77V316.024C194.77 314.968 194.61 314.184 194.29 313.672C193.97 313.16 193.394 312.904 192.562 312.904C191.538 312.904 190.338 313.48 188.962 314.632V337H183.826V309.256Z" fill="#2E509B"/>
</svg>
