<svg width="119" height="119" viewBox="0 0 119 119" fill="none" xmlns="http://www.w3.org/2000/svg">
<g id="screen_rotation_24px">
<path id="icon/device/screen_rotation_24px" fill-rule="evenodd" clip-rule="evenodd" d="M87.3163 6.89857C79.5317 2.78365 69.7142 -0.190984 58.5579 0.0569024C57.6654 0.0569024 57.2688 1.1476 57.8638 1.79211L75.1188 19.045L81.7133 12.4512C97.0346 19.6895 108.191 34.1165 110.918 51.419C111.215 53.4517 113.1 54.8398 115.182 54.4928C117.215 54.1953 118.603 52.2618 118.256 50.2292C115.281 31.3898 103.58 15.525 87.3163 6.89857ZM40.2121 8.6339C43.0879 5.70884 47.7983 5.70884 50.7237 8.6339L110.323 68.2258C113.248 71.1013 113.248 75.8112 110.323 78.7362L78.7879 110.267C75.9121 113.192 71.2016 113.192 68.2762 110.267L8.67705 50.6755C5.75163 47.8 5.75163 43.0901 8.67705 40.1651L40.2121 8.6339ZM17.4533 48.9399L70.0116 101.492C71.9454 103.425 75.1187 103.425 77.0525 101.541L101.596 77.0007C103.53 75.0672 103.53 71.9438 101.596 70.0103L48.9883 17.4087C47.0545 15.4752 43.9308 15.4752 41.997 17.4087L17.4533 41.9495C16.5248 42.8758 16.0031 44.1333 16.0031 45.4447C16.0031 46.7561 16.5248 48.0137 17.4533 48.9399ZM37.2866 106.5L43.8812 99.9061L61.1362 117.209C61.7312 117.853 61.3346 118.944 60.4421 118.944C49.2858 119.192 39.4683 116.217 31.6837 112.102C15.4204 103.476 3.71873 87.6109 0.743729 68.7219C0.396646 66.6893 1.78498 64.7557 3.8179 64.4583C5.9004 64.1112 7.78456 65.4994 8.08206 67.5321C10.8091 84.8346 21.9654 99.2616 37.2866 106.5Z" fill="#F6F6EB"/>
</g>
</svg>
