<svg width="200" height="200" viewBox="0 0 200 200" fill="none" xmlns="http://www.w3.org/2000/svg">
<path d="M137.043 33.9768C125.681 36.1317 101.291 48.5877 90.517 54.5463C67.2537 33.487 62.3565 33.9768 42.5216 37.4051C26.6537 40.1477 27.4854 48.1822 19.8945 58.7119C5.69179 72.9146 17.1362 89.8926 24.8905 94.9533C18.67 107.932 20.3842 107.932 24.8905 120.665C29.3968 133.399 40.3176 140.497 46.1946 141.967C50.8962 143.142 64.1521 152.415 70.1923 156.904C73.4573 160.904 82.0933 168.315 90.517 165.964C98.9407 163.614 103.985 151.762 105.454 146.13C129.158 147.697 147.328 137.967 153.45 132.906C155.98 134.049 163.441 136.335 173.04 136.335C182.639 136.335 185.528 127.356 185.773 122.866C187.406 116.5 189.691 96.5668 185.773 67.7696C180.876 31.773 151.246 31.2832 137.043 33.9768Z" fill="white"/>
<path d="M13.5274 78.0571C10.7848 67.8703 19.4044 56.9978 24.057 52.835C47.0751 62.63 42.1779 67.0377 41.6881 78.0571C41.2963 86.8726 29.7708 93.4842 24.057 95.6881C21.6899 94.0556 16.27 88.2439 13.5274 78.0571Z" fill="#F2F1F1"/>
<rect x="32.6499" y="65.3235" width="3.42825" height="5.877" rx="1.71412" transform="rotate(14.6988 32.6499 65.3235)" fill="#2C2C2C"/>
<path d="M17.6902 75.3633L13.5273 78.7915" stroke="#AF7136"/>
<path d="M51.4829 92.2598C52.7073 93.2393 55.7437 94.6106 58.0945 92.2598C59.4005 93.5658 62.6002 95.3942 64.951 92.2598" stroke="#E9E9DD" stroke-width="3"/>
<path d="M71.3179 110.38C72.5422 111.36 75.5787 112.731 77.9295 110.38C79.2355 111.686 82.4352 113.515 84.786 110.38" stroke="#E9E9DD" stroke-width="3"/>
<path d="M142.821 58.9568C144.046 59.9363 147.082 61.3076 149.433 58.9568C150.739 60.2628 153.939 62.0912 156.289 58.9568" stroke="#E9E9DD" stroke-width="3"/>
<path d="M122.742 77.5671C124.122 78.6759 127.545 80.2281 130.195 77.5671C131.667 79.0454 135.274 81.1151 137.924 77.5671" stroke="#E9E9DD" stroke-width="3"/>
<path d="M92.8672 127.522C93.7131 128.353 95.811 129.517 97.4352 127.522C98.3375 128.63 100.548 130.183 102.172 127.522" stroke="#E9E9DD" stroke-width="3"/>
<path d="M156.535 90.7905C157.381 91.6221 159.479 92.7862 161.103 90.7905C162.005 91.8993 164.216 93.4515 165.84 90.7905" stroke="#E9E9DD" stroke-width="3"/>
<path d="M133.516 111.36C134.362 112.191 136.46 113.356 138.084 111.36C138.986 112.469 141.197 114.021 142.821 111.36" stroke="#E9E9DD" stroke-width="3"/>
<path d="M91.3979 71.6902C92.2439 72.5217 94.3418 73.6859 95.966 71.6902C96.8683 72.7989 99.079 74.3511 100.703 71.6902" stroke="#E9E9DD" stroke-width="3"/>
<path d="M37.5254 116.258C38.3713 117.089 40.4692 118.253 42.0934 116.258C42.9957 117.366 45.2064 118.919 46.8306 116.258" stroke="#E9E9DD" stroke-width="3"/>
<path d="M57.7423 60.6625L45.2724 55.2076C43.3041 54.7688 41.588 52.6559 50.4697 47.7148C61.5718 41.5383 69.4556 46.8665 77.0399 59.2757C84.6241 71.685 75.3071 91.7439 64.551 96.8271C55.9462 100.894 49.5522 90.9937 47.4309 85.5354C47.7745 79.988 50.1922 68.8265 57.1139 68.5595C65.766 68.2258 63.2795 73.915 62.9702 78.9076C62.8234 81.2778 62.4072 81.7815 62.1156 81.7854C62.123 81.7942 62.1305 81.8034 62.1382 81.8128C63.1198 83.0141 62.2557 84.0876 62.9304 82.5365C63.5877 81.0256 65.3119 77.8031 64.0768 70.7724C63.0888 65.1478 59.4421 61.6889 57.7423 60.6625Z" fill="#D2B68A"/>
</svg>
