<svg width="200" height="200" viewBox="0 0 200 200" fill="none" xmlns="http://www.w3.org/2000/svg">
<path d="M89.375 74.1604C60.6238 65.1353 32.1627 72.8711 21.526 77.8671C20.8813 77.8671 19.6887 79.4143 20.0755 85.6029C20.559 93.3386 24.5881 89.7931 24.2657 91.727C24.0079 93.2741 26.3071 104.727 27.489 110.261C28.4022 116.707 34.4511 129.729 51.3409 130.245C72.4531 130.889 81.4781 122.348 85.0237 120.736C88.5692 119.124 93.8876 105.587 96.6273 103.331C99.3671 101.074 103.074 103.169 104.041 103.331C105.008 103.492 110.971 112.356 112.582 116.224C114.194 120.091 118.706 123.798 128.537 127.666C138.368 131.534 154.968 132.179 164.799 125.41C172.663 119.995 175.919 100.698 176.563 91.727C177.853 91.4691 179.357 90.3303 179.948 89.7931C182.398 82.9598 180.002 78.2431 178.497 76.739C147.425 66.4246 121.607 70.7223 112.582 74.1604C109.789 75.396 103.364 77.8671 100.012 77.8671C96.6595 77.8671 91.5239 75.396 89.375 74.1604Z" fill="#3ED4DF"/>
<path d="M81.251 79.1506C53.789 72.962 37.791 78.8283 33.2248 82.535C32.7413 84.6301 31.7421 89.5294 31.6132 92.3659C31.452 95.9114 33.2248 115.412 43.378 121.214C53.5311 127.016 66.1018 122.181 71.2589 121.214C76.4161 120.247 82.8626 112.833 86.8916 104.131C90.9207 95.428 87.8586 88.3368 87.3751 84.7913C86.8944 81.2665 82.5911 79.6531 81.2739 79.1592L81.251 79.1506Z" fill="#151C48"/>
<path d="M118.91 79.1506C146.372 72.962 162.37 78.8283 166.936 82.535C167.42 84.6301 168.419 89.5294 168.548 92.3659C168.709 95.9114 166.936 115.412 156.783 121.214C146.63 127.016 134.059 122.181 128.902 121.214C123.745 120.247 117.299 112.833 113.27 104.131C109.24 95.428 112.303 88.3368 112.786 84.7913C113.267 81.2665 117.57 79.6531 118.887 79.1592L118.91 79.1506Z" fill="#151C48"/>
</svg>
